SplineFontDB: 3.0
FontName: Srisakdi
FullName: Srisakdi
FamilyName: Srisakdi
Weight: Book
Copyright: (c) Copyright , FFDec v.11.2.0 nightly build 1715.
Version: 1.0
ItalicAngle: 10
UnderlinePosition: -30
UnderlineWidth: 60
Ascent: 900
Descent: 205
InvalidEm: 0
sfntRevision: 0x00010000
LayerCount: 2
Layer: 0 1 "Back" 1
Layer: 1 1 "Fore" 0
XUID: [1021 318 -2145553614 30459]
StyleMap: 0x0040
FSType: 0
OS2Version: 2
OS2_WeightWidthSlopeOnly: 0
OS2_UseTypoMetrics: 0
CreationTime: 1562771208
ModificationTime: 1564241317
PfmFamily: 81
TTFWeight: 400
TTFWidth: 5
LineGap: 170
VLineGap: 0
Panose: 0 0 0 0 0 0 0 0 0 0
OS2TypoAscent: 905
OS2TypoAOffset: 0
OS2TypoDescent: -171
OS2TypoDOffset: 0
OS2TypoLinegap: 170
OS2WinAscent: 1336
OS2WinAOffset: 0
OS2WinDescent: 668
OS2WinDOffset: 0
HheadAscent: 1336
HheadAOffset: 0
HheadDescent: -668
HheadDOffset: 0
OS2SubXSize: 128
OS2SubYSize: 128
OS2SubXOff: 0
OS2SubYOff: -64
OS2SupXSize: 128
OS2SupYSize: 128
OS2SupXOff: 0
OS2SupYOff: 64
OS2StrikeYSize: 51
OS2StrikeYPos: 512
OS2CapHeight: 905
OS2XHeight: 424
OS2FamilyClass: 2048
OS2Vendor: 'dtyp'
OS2CodePages: 00000001.00000000
OS2UnicodeRanges: a100002f.0000005a.00000000.00000000
MarkAttachClasses: 1
DEI: 91125
ShortTable: maxp 16
  1
  0
  473
  856
  7
  0
  0
  2
  128
  64
  128
  128
  128
  128
  128
  0
EndShort
LangName: 1033 "+AKkA Copyright , FFDec v.11.2.0 nightly build 1715." "" "Regular" "" "" "Version 1.0" "" "n/a" "FFDec v.11.2.0 nightly build 1715"
Encoding: UnicodeBmp
UnicodeInterp: none
NameList: AGL For New Fonts
DisplaySize: -48
AntiAlias: 1
FitToEm: 0
WinInfo: 3534 31 10
BeginPrivate: 0
EndPrivate
Grid
-1205 1309.59999847 m 0
 2410 1309.59999847 l 1024
  Named: "top most"
-1205 483.270019531 m 0
 2410 483.270019531 l 1024
-1205 652 m 0
 2410 652 l 1024
  Named: "top"
-1024 1017 m 0
 2048 1017 l 1024
  Named: "new top"
EndSplineSet
BeginChars: 65539 473

StartChar: .notdef
Encoding: 65536 -1 0
Width: 512
VWidth: 1024
Flags: W
LayerCount: 2
Fore
SplineSet
0 683 m 1,0,-1
 0 0 l 1,1,-1
 438 0 l 1,2,-1
 438 683 l 1,3,-1
 0 683 l 1,0,-1
365 610 m 1,4,-1
 365 73 l 1,5,-1
 73 73 l 1,6,-1
 73 610 l 1,7,-1
 365 610 l 1,4,-1
EndSplineSet
EndChar

StartChar: exclam
Encoding: 33 33 4
Width: 253
VWidth: 1024
Flags: W
LayerCount: 2
Fore
SplineSet
188 77 m 1,0,1
 190 84 190 84 187 87 c 0,2,3
 185 90 185 90 181 91 c 256,4,5
 177 92 177 92 172 93 c 256,6,7
 167 94 167 94 163 97 c 0,8,9
 162 97 162 97 162 99 c 0,10,11
 162 100 162 100 161 102 c 0,12,13
 161 104 161 104 160 105 c 256,14,15
 159 106 159 106 156 106 c 0,16,17
 152 106 152 106 149 104 c 256,18,19
 146 102 146 102 145 101 c 0,20,21
 128 98 128 98 120 90 c 0,22,23
 111 82 111 82 106 72 c 0,24,25
 104 67 104 67 100 58 c 0,26,27
 97 48 97 48 93 37 c 0,28,29
 90 26 90 26 86 15 c 0,30,31
 83 4 83 4 82 -3 c 0,32,33
 80 -17 80 -17 84 -25 c 0,34,35
 88 -32 88 -32 103 -32 c 0,36,37
 114 -32 114 -32 122 -24 c 0,38,39
 131 -15 131 -15 139 -2 c 0,40,41
 146 11 146 11 154 26 c 0,42,43
 161 41 161 41 170 54 c 0,44,45
 174 60 174 60 181 64 c 0,46,47
 187 68 187 68 188 77 c 1,48,-1
 188 77 l 1,0,1
417 727 m 1,49,50
 418 732 418 732 416 736 c 0,51,52
 413 739 413 739 410 742 c 0,53,54
 406 745 406 745 402 747 c 256,55,56
 398 749 398 749 394 752 c 0,57,58
 392 752 392 752 386 747 c 0,59,60
 380 743 380 743 380 742 c 0,61,62
 370 738 370 738 360 735 c 0,63,64
 349 732 349 732 340 729 c 0,65,66
 330 726 330 726 323 724 c 0,67,68
 316 721 316 721 314 719 c 0,69,70
 310 716 310 716 306 706 c 256,71,72
 302 696 302 696 298 685 c 256,73,74
 294 674 294 674 292 663 c 0,75,76
 289 652 289 652 287 646 c 0,77,78
 285 630 285 630 278 605 c 0,79,80
 272 580 272 580 263 552 c 0,81,82
 255 523 255 523 246 495 c 0,83,84
 237 466 237 466 229 443 c 256,85,86
 221 420 221 420 215 405 c 0,87,88
 210 391 210 391 209 391 c 0,89,90
 202 370 202 370 198 349 c 0,91,92
 195 328 195 328 189 305 c 0,93,94
 177 265 177 265 166 228 c 0,95,96
 155 192 155 192 149 160 c 0,97,98
 147 149 147 149 149 145 c 0,99,100
 151 142 151 142 160 142 c 256,101,102
 169 142 169 142 174 144 c 0,103,104
 179 147 179 147 181 151 c 0,105,106
 184 155 184 155 186 160 c 256,107,108
 188 165 188 165 190 171 c 0,109,110
 191 175 191 175 195 180 c 256,111,112
 199 185 199 185 200 190 c 0,113,114
 202 203 202 203 208 215 c 0,115,116
 214 228 214 228 221 240 c 256,117,118
 228 252 228 252 234 264 c 0,119,120
 240 277 240 277 242 290 c 0,121,122
 246 305 246 305 251 318 c 0,123,124
 257 330 257 330 261 343 c 0,125,126
 265 354 265 354 269 365 c 0,127,128
 273 377 273 377 277 388 c 256,129,130
 281 399 281 399 285 409 c 0,131,132
 288 418 288 418 291 424 c 0,133,134
 294 432 294 432 297 437 c 0,135,136
 300 443 300 443 303 448 c 0,137,138
 307 453 307 453 309 459 c 0,139,140
 312 464 312 464 313 472 c 0,141,142
 318 497 318 497 329 519 c 0,143,144
 341 542 341 542 348 562 c 0,145,146
 350 571 350 571 353 580 c 0,147,148
 355 590 355 590 359 600 c 0,149,150
 364 612 364 612 373 630 c 256,151,152
 382 648 382 648 390 667 c 0,153,154
 395 679 395 679 405 696 c 256,155,156
 415 713 415 713 417 727 c 1,157,-1
 417 727 l 1,49,50
EndSplineSet
EndChar

StartChar: quotedbl
Encoding: 34 34 5
Width: 286
VWidth: 1024
Flags: W
LayerCount: 2
Fore
SplineSet
458 686 m 1,0,1
 459 694 459 694 454 703 c 0,2,3
 450 713 450 713 445 713 c 0,4,5
 425 713 425 713 413 709 c 256,6,7
 401 705 401 705 393 697 c 0,8,9
 386 689 386 689 382 677 c 256,10,11
 378 665 378 665 376 648 c 0,12,13
 370 612 370 612 361 585 c 256,14,15
 352 558 352 558 344 538 c 0,16,17
 336 519 336 519 330 506 c 256,18,19
 324 493 324 493 322 485 c 0,20,21
 321 480 321 480 324 473 c 0,22,23
 328 466 328 466 336 466 c 0,24,25
 339 466 339 466 343 470 c 0,26,27
 346 474 346 474 352 484 c 0,28,29
 357 494 357 494 365 510 c 0,30,31
 373 527 373 527 385 551 c 0,32,33
 392 568 392 568 404 585 c 256,34,35
 416 602 416 602 422 623 c 0,36,37
 426 631 426 631 432 640 c 256,38,39
 438 649 438 649 443 657 c 256,40,41
 448 665 448 665 453 673 c 0,42,43
 457 681 457 681 458 686 c 1,44,-1
 458 686 l 1,0,1
351 686 m 1,45,46
 345 689 345 689 343 692 c 0,47,48
 342 695 342 695 342 698 c 256,49,50
 342 701 342 701 343 703 c 0,51,52
 344 706 344 706 345 709 c 0,53,54
 344 713 344 713 338 713 c 0,55,56
 318 713 318 713 306 709 c 256,57,58
 294 705 294 705 287 697 c 0,59,60
 279 689 279 689 275 677 c 0,61,62
 272 665 272 665 269 648 c 0,63,64
 263 612 263 612 254 585 c 0,65,66
 246 558 246 558 237 538 c 0,67,68
 229 519 229 519 223 506 c 256,69,70
 217 493 217 493 215 485 c 0,71,72
 214 480 214 480 218 473 c 0,73,74
 221 466 221 466 230 466 c 0,75,76
 235 466 235 466 239 472 c 0,77,78
 242 478 242 478 248 491 c 0,79,80
 254 505 254 505 266 529 c 0,81,82
 277 552 277 552 300 588 c 0,83,84
 300 589 300 589 302 594 c 0,85,86
 305 599 305 599 307 605 c 256,87,88
 309 611 309 611 311 616 c 0,89,90
 314 621 314 621 315 623 c 0,91,92
 319 631 319 631 325 640 c 256,93,94
 331 649 331 649 336 657 c 0,95,96
 342 665 342 665 346 673 c 256,97,98
 350 681 350 681 351 686 c 1,99,-1
 351 686 l 1,45,46
EndSplineSet
EndChar

StartChar: numbersign
Encoding: 35 35 6
Width: 491
VWidth: 1024
Flags: W
LayerCount: 2
Fore
SplineSet
419 398 m 1,0,1
 415 375 415 375 407 353 c 0,2,3
 399 330 399 330 390 312 c 0,4,5
 388 306 388 306 384 303 c 0,6,7
 380 301 380 301 375 300 c 256,8,9
 370 299 370 299 362 299 c 0,10,11
 355 299 355 299 345 298 c 0,12,13
 335 296 335 296 327 294 c 256,14,15
 319 292 319 292 311 292 c 0,16,17
 305 292 305 292 303 294 c 0,18,19
 300 296 300 296 301 303 c 0,20,21
 303 311 303 311 307 320 c 0,22,23
 312 329 312 329 315 340 c 0,24,25
 317 354 317 354 320 364 c 256,26,27
 323 374 323 374 329 380 c 0,28,29
 334 387 334 387 344 390 c 256,30,31
 354 393 354 393 370 393 c 0,32,33
 380 393 380 393 390 396 c 0,34,35
 400 398 400 398 411 398 c 0,36,37
 416 398 416 398 419 398 c 1,38,-1
 419 398 l 1,0,1
591 451 m 1,39,40
 592 455 592 455 584 456 c 0,41,42
 577 457 577 457 571 457 c 0,43,44
 553 457 553 457 538 451 c 0,45,46
 523 446 523 446 513 446 c 0,47,48
 504 446 504 446 501 454 c 0,49,50
 501 456 501 456 503 459 c 0,51,52
 506 462 506 462 508 464 c 0,53,54
 511 469 511 469 514 475 c 0,55,56
 516 482 516 482 518 489 c 0,57,58
 520 495 520 495 522 502 c 0,59,60
 524 508 524 508 525 511 c 0,61,62
 529 523 529 523 535 536 c 0,63,64
 541 548 541 548 547 559 c 0,65,66
 553 571 553 571 557 578 c 0,67,68
 562 586 562 586 562 588 c 0,69,70
 565 595 565 595 568 603 c 256,71,72
 571 611 571 611 572 618 c 0,73,74
 575 630 575 630 571 635 c 0,75,76
 566 640 566 640 551 640 c 0,77,78
 527 640 527 640 517 637 c 0,79,80
 506 634 506 634 501 626 c 0,81,82
 496 619 496 619 494 606 c 0,83,84
 491 593 491 593 484 574 c 0,85,86
 478 557 478 557 469 539 c 256,87,88
 460 521 460 521 458 508 c 0,89,90
 457 503 457 503 456 499 c 0,91,92
 456 494 456 494 455 490 c 0,93,94
 454 485 454 485 449 478 c 0,95,96
 443 471 443 471 441 464 c 0,97,98
 435 451 435 451 434 445 c 0,99,100
 434 438 434 438 431 436 c 0,101,102
 431 435 431 435 423 433 c 256,103,104
 415 431 415 431 406 428 c 0,105,106
 398 425 398 425 390 423 c 256,107,108
 382 421 382 421 381 421 c 0,109,110
 375 420 375 420 369 419 c 0,111,112
 364 417 364 417 359 417 c 256,113,114
 354 417 354 417 350 419 c 0,115,116
 347 420 347 420 348 424 c 256,117,118
 349 428 349 428 351 434 c 0,119,120
 354 440 354 440 357 446 c 0,121,122
 360 453 360 453 362 458 c 0,123,124
 364 462 364 462 365 464 c 0,125,126
 371 483 371 483 373 496 c 0,127,128
 375 510 375 510 380 521 c 0,129,130
 382 529 382 529 389 543 c 0,131,132
 396 558 396 558 404 574 c 256,133,134
 412 590 412 590 419 606 c 0,135,136
 426 621 426 621 428 632 c 0,137,138
 429 638 429 638 426 638 c 0,139,140
 420 638 420 638 411 634 c 256,141,142
 402 630 402 630 396 630 c 0,143,144
 394 630 394 630 392 630 c 256,145,146
 390 630 390 630 388 630 c 0,147,148
 366 630 366 630 357 624 c 0,149,150
 349 618 349 618 347 608 c 0,151,152
 345 597 345 597 346 587 c 256,153,154
 347 577 347 577 346 574 c 0,155,156
 344 563 344 563 340 550 c 0,157,158
 336 536 336 536 331 523 c 256,159,160
 326 510 326 510 322 500 c 256,161,162
 318 490 318 490 317 488 c 0,163,164
 313 481 313 481 311 471 c 0,165,166
 308 460 308 460 306 449 c 0,167,168
 303 438 303 438 300 429 c 0,169,170
 298 420 298 420 294 417 c 0,171,172
 289 411 289 411 277 407 c 0,173,174
 265 404 265 404 251 402 c 0,175,176
 237 401 237 401 224 400 c 0,177,178
 212 399 212 399 205 398 c 0,179,180
 185 392 185 392 173 384 c 0,181,182
 160 377 160 377 159 369 c 0,183,184
 158 360 158 360 165 356 c 0,185,186
 172 351 172 351 177 351 c 0,187,188
 186 351 186 351 197 354 c 0,189,190
 207 357 207 357 218 361 c 0,191,192
 230 364 230 364 241 368 c 0,193,194
 253 371 253 371 263 371 c 0,195,196
 267 371 267 371 272 369 c 1,197,198
 264 342 264 342 258 329 c 0,199,200
 252 317 252 317 251 310 c 0,201,202
 250 306 250 306 250 302 c 0,203,204
 249 298 249 298 249 295 c 0,205,206
 247 286 247 286 238 281 c 0,207,208
 229 277 229 277 216 276 c 0,209,210
 203 274 203 274 188 274 c 0,211,212
 174 273 174 273 161 272 c 0,213,214
 148 270 148 270 139 266 c 0,215,216
 130 263 130 263 128 254 c 0,217,218
 126 242 126 242 132 242 c 0,219,220
 139 241 139 241 145 240 c 0,221,222
 150 240 150 240 156 238 c 0,223,224
 161 235 161 235 170 235 c 0,225,226
 189 235 189 235 204 239 c 0,227,228
 220 244 220 244 232 245 c 1,229,230
 232 242 232 242 230 235 c 0,231,232
 228 223 228 223 223 204 c 0,233,234
 217 186 217 186 210 167 c 0,235,236
 203 147 203 147 195 128 c 256,237,238
 187 109 187 109 181 93 c 0,239,240
 176 83 176 83 169 76 c 256,241,242
 162 69 162 69 161 60 c 0,243,244
 159 51 159 51 167 46 c 0,245,246
 174 41 174 41 183 41 c 0,247,248
 195 41 195 41 199 44 c 0,249,250
 204 46 204 46 206 52 c 256,251,252
 208 58 208 58 210 69 c 256,253,254
 212 80 212 80 219 98 c 0,255,256
 223 106 223 106 229 119 c 256,257,258
 235 132 235 132 242 145 c 0,259,260
 249 159 249 159 254 170 c 0,261,262
 259 182 259 182 260 186 c 0,263,264
 261 191 261 191 261 195 c 256,265,266
 261 199 261 199 261 203 c 0,267,268
 263 211 263 211 266 220 c 256,269,270
 269 229 269 229 273 237 c 0,271,272
 277 244 277 244 280 250 c 0,273,274
 283 255 283 255 285 257 c 0,275,276
 287 258 287 258 294 261 c 0,277,278
 301 263 301 263 311 266 c 0,279,280
 321 268 321 268 333 270 c 256,281,282
 345 272 345 272 357 272 c 0,283,284
 368 272 368 272 371 268 c 0,285,286
 375 265 375 265 373 254 c 0,287,288
 371 242 371 242 365 228 c 256,289,290
 359 214 359 214 352 200 c 256,291,292
 345 186 345 186 340 173 c 0,293,294
 335 161 335 161 333 151 c 256,295,296
 331 141 331 141 326 128 c 256,297,298
 321 115 321 115 315 102 c 0,299,300
 310 89 310 89 305 77 c 256,301,302
 300 65 300 65 298 55 c 256,303,304
 296 45 296 45 302 39 c 0,305,306
 308 34 308 34 319 34 c 0,307,308
 329 34 329 34 334 39 c 0,309,310
 338 44 338 44 341 52 c 0,311,312
 343 60 343 60 345 71 c 256,313,314
 347 82 347 82 352 93 c 0,315,316
 352 95 352 95 357 98 c 256,317,318
 362 101 362 101 363 103 c 0,319,320
 366 108 366 108 367 111 c 256,321,322
 368 114 368 114 369 118 c 0,323,324
 371 132 371 132 378 146 c 256,325,326
 385 160 385 160 390 174 c 0,327,328
 393 183 393 183 398 188 c 0,329,330
 402 193 402 193 404 198 c 0,331,332
 408 211 408 211 411 225 c 0,333,334
 413 240 413 240 417 245 c 0,335,336
 422 255 422 255 425 267 c 0,337,338
 428 280 428 280 433 284 c 0,339,340
 436 286 436 286 447 287 c 0,341,342
 459 287 459 287 467 289 c 0,343,344
 495 294 495 294 516 300 c 0,345,346
 537 305 537 305 539 314 c 0,347,348
 539 319 539 319 532 321 c 256,349,350
 525 323 525 323 520 323 c 0,351,352
 501 323 501 323 482 317 c 0,353,354
 462 312 462 312 448 312 c 0,355,356
 445 312 445 312 446 313 c 0,357,358
 446 315 446 315 451 323 c 0,359,360
 455 331 455 331 456 331 c 0,361,362
 462 345 462 345 467 360 c 0,363,364
 473 374 473 374 476 386 c 0,365,366
 480 398 480 398 483 406 c 256,367,368
 486 414 486 414 487 415 c 256,369,370
 488 416 488 416 495 417 c 256,371,372
 502 418 502 418 510 419 c 0,373,374
 518 419 518 419 526 419 c 0,375,376
 533 420 533 420 536 420 c 0,377,378
 542 420 542 420 546 421 c 0,379,380
 550 423 550 423 553 425 c 0,381,382
 557 427 557 427 560 430 c 0,383,384
 564 433 564 433 569 436 c 0,385,386
 571 437 571 437 575 438 c 256,387,388
 579 439 579 439 582 440 c 0,389,390
 585 442 585 442 588 444 c 0,391,392
 590 446 590 446 591 451 c 1,393,-1
 591 451 l 1,39,40
EndSplineSet
EndChar

StartChar: dollar
Encoding: 36 36 7
Width: 412
VWidth: 1024
Flags: W
LayerCount: 2
Fore
SplineSet
184 -20 m 1,0,1
 191 -2 191 -2 198 15 c 0,2,3
 206 32 206 32 209 45 c 0,4,5
 210 54 210 54 207 60 c 0,6,7
 205 66 205 66 195 66 c 0,8,9
 192 66 192 66 187 58 c 0,10,11
 183 50 183 50 178 40 c 256,12,13
 173 30 173 30 170 22 c 0,14,15
 167 13 167 13 167 13 c 2,16,17
 161 1 161 1 158 -7 c 0,18,19
 156 -14 156 -14 154 -19 c 0,20,21
 153 -25 153 -25 152 -29 c 0,22,23
 151 -34 151 -34 148 -39 c 0,24,25
 144 -48 144 -48 138 -57 c 0,26,27
 133 -65 133 -65 128 -73 c 0,28,29
 122 -82 122 -82 118 -91 c 0,30,31
 113 -99 113 -99 112 -108 c 0,32,33
 111 -111 111 -111 107 -114 c 256,34,35
 103 -117 103 -117 100 -120 c 0,36,37
 96 -125 96 -125 95 -129 c 0,38,39
 95 -134 95 -134 92 -139 c 0,40,41
 90 -143 90 -143 83 -150 c 256,42,43
 76 -157 76 -157 75 -165 c 0,44,45
 74 -169 74 -169 78 -172 c 0,46,47
 81 -176 81 -176 86 -178 c 0,48,49
 92 -180 92 -180 99 -181 c 256,50,51
 106 -182 106 -182 112 -182 c 0,52,53
 116 -182 116 -182 122 -178 c 256,54,55
 128 -174 128 -174 134 -167 c 0,56,57
 139 -161 139 -161 144 -155 c 0,58,59
 148 -148 148 -148 149 -143 c 0,60,61
 150 -136 150 -136 149 -128 c 256,62,63
 148 -120 148 -120 149 -111 c 0,64,65
 151 -102 151 -102 156 -90 c 0,66,67
 162 -78 162 -78 166 -67 c 0,68,69
 172 -55 172 -55 176 -44 c 0,70,71
 179 -32 179 -32 184 -20 c 1,72,-1
 184 -20 l 1,0,1
558 892 m 1,73,74
 558 894 558 894 551 896 c 0,75,76
 544 897 544 897 536 897 c 0,77,78
 524 897 524 897 515 889 c 256,79,80
 506 881 506 881 500 869 c 0,81,82
 494 858 494 858 489 846 c 0,83,84
 484 833 484 833 481 825 c 0,85,86
 471 803 471 803 460 783 c 256,87,88
 449 763 449 763 439 744 c 256,89,90
 429 725 429 725 421 706 c 0,91,92
 413 688 413 688 410 668 c 0,93,94
 410 666 410 666 409 661 c 256,95,96
 408 656 408 656 408 652 c 0,97,98
 408 647 408 647 409 643 c 0,99,100
 410 640 410 640 412 640 c 0,101,102
 418 640 418 640 423 645 c 0,103,104
 428 651 428 651 432 658 c 256,105,106
 436 665 436 665 440 674 c 0,107,108
 443 682 443 682 446 688 c 0,109,110
 454 697 454 697 464 713 c 0,111,112
 473 728 473 728 483 746 c 256,113,114
 493 764 493 764 502 781 c 0,115,116
 512 798 512 798 521 810 c 0,117,118
 525 819 525 819 528 830 c 0,119,120
 530 840 530 840 538 854 c 0,121,122
 539 855 539 855 543 860 c 0,123,124
 548 865 548 865 550 868 c 0,125,126
 553 874 553 874 555 880 c 0,127,128
 558 885 558 885 558 889 c 0,129,130
 559 891 559 891 558 892 c 1,131,-1
 558 892 l 1,73,74
521 597 m 1,132,133
 529 601 529 601 530 609 c 0,134,135
 531 615 531 615 528 623 c 0,136,137
 525 630 525 630 520 636 c 256,138,139
 515 642 515 642 509 647 c 0,140,141
 503 651 503 651 497 651 c 256,142,143
 491 651 491 651 481 645 c 0,144,145
 472 639 472 639 463 632 c 0,146,147
 453 625 453 625 446 618 c 0,148,149
 440 612 440 612 438 611 c 0,150,151
 424 602 424 602 407 592 c 0,152,153
 390 581 390 581 372 571 c 0,154,155
 354 560 354 560 338 550 c 0,156,157
 322 539 322 539 310 530 c 0,158,159
 308 527 308 527 307 527 c 0,160,161
 305 528 305 528 304 525 c 0,162,163
 298 518 298 518 293 513 c 0,164,165
 289 508 289 508 285 504 c 0,166,167
 282 500 282 500 279 494 c 0,168,169
 277 488 277 488 275 479 c 0,170,171
 273 466 273 466 274 454 c 256,172,173
 275 442 275 442 277 432 c 0,174,175
 279 421 279 421 281 412 c 0,176,177
 284 403 284 403 286 398 c 0,178,179
 289 387 289 387 294 379 c 0,180,181
 298 371 298 371 300 364 c 0,182,183
 301 359 301 359 300 352 c 0,184,185
 298 345 298 345 300 340 c 0,186,187
 302 333 302 333 307 327 c 0,188,189
 311 321 311 321 314 312 c 0,190,191
 315 307 315 307 315 302 c 0,192,193
 314 298 314 298 315 293 c 0,194,195
 317 289 317 289 321 287 c 0,196,197
 326 284 326 284 327 279 c 0,198,199
 335 258 335 258 338 242 c 0,200,201
 340 226 340 226 338 216 c 0,202,203
 337 209 337 209 336 202 c 0,204,205
 334 194 334 194 329 187 c 256,206,207
 324 180 324 180 316 176 c 0,208,209
 308 171 308 171 294 171 c 0,210,211
 287 171 287 171 279 172 c 0,212,213
 270 173 270 173 262 174 c 0,214,215
 254 176 254 176 246 177 c 0,216,217
 239 178 239 178 234 179 c 256,218,219
 229 180 229 180 225 183 c 0,220,221
 221 187 221 187 214 187 c 0,222,223
 200 187 200 187 188 193 c 0,224,225
 177 198 177 198 166 198 c 0,226,227
 153 198 153 198 145 193 c 0,228,229
 136 188 136 188 130 181 c 256,230,231
 124 174 124 174 121 168 c 256,232,233
 118 162 118 162 116 160 c 0,234,235
 106 149 106 149 93 138 c 0,236,237
 81 127 81 127 79 113 c 0,238,239
 78 107 78 107 87 107 c 0,240,241
 101 107 101 107 114 108 c 256,242,243
 127 109 127 109 142 109 c 0,244,245
 162 109 162 109 183 103 c 0,246,247
 203 98 203 98 222 98 c 0,248,249
 231 98 231 98 234 100 c 0,250,251
 238 101 238 101 240 103 c 0,252,253
 242 106 242 106 244 107 c 0,254,255
 246 109 246 109 253 109 c 0,256,257
 258 109 258 109 263 108 c 256,258,259
 268 107 268 107 273 107 c 0,260,261
 279 107 279 107 289 114 c 0,262,263
 300 121 300 121 311 131 c 0,264,265
 323 141 323 141 335 152 c 0,266,267
 347 162 347 162 355 169 c 0,268,269
 364 177 364 177 377 186 c 0,270,271
 389 195 389 195 400 204 c 0,272,273
 412 214 412 214 420 223 c 256,274,275
 428 232 428 232 430 240 c 0,276,277
 431 245 431 245 430 247 c 256,278,279
 429 249 429 249 427 250 c 0,280,281
 426 251 426 251 425 252 c 0,282,283
 423 252 423 252 423 255 c 0,284,285
 420 260 420 260 422 265 c 0,286,287
 423 270 423 270 422 274 c 0,288,289
 413 298 413 298 406 319 c 256,290,291
 399 340 399 340 394 361 c 256,292,293
 389 382 389 382 384 402 c 0,294,295
 380 423 380 423 375 445 c 0,296,297
 375 447 375 447 372 452 c 0,298,299
 370 457 370 457 368 459 c 0,300,301
 367 466 367 466 367 476 c 0,302,303
 367 485 367 485 367 494 c 0,304,305
 368 502 368 502 368 508 c 0,306,307
 369 515 369 515 369 515 c 2,308,309
 371 525 371 525 377 533 c 0,310,311
 384 540 384 540 387 540 c 0,312,313
 391 541 391 541 391 542 c 0,314,315
 391 544 391 544 393 545 c 0,316,317
 408 551 408 551 428 561 c 0,318,319
 447 570 447 570 465 578 c 256,320,321
 483 586 483 586 496 592 c 0,322,323
 510 597 510 597 514 597 c 0,324,325
 515 597 515 597 517 597 c 256,326,327
 519 597 519 597 520 597 c 2,328,-1
 521 597 l 1,329,-1
 521 597 l 1,132,133
EndSplineSet
EndChar

StartChar: percent
Encoding: 37 37 8
Width: 501
VWidth: 1024
Flags: W
LayerCount: 2
Fore
SplineSet
466 251 m 1,0,1
 468 240 468 240 465 219 c 0,2,3
 462 205 462 205 458 190 c 0,4,5
 454 174 454 174 450 161 c 0,6,7
 445 148 445 148 440 139 c 0,8,9
 434 129 434 129 429 126 c 0,10,11
 421 119 421 119 420 119 c 1,12,13
 420 120 420 120 417 122 c 256,14,15
 414 124 414 124 410 127 c 256,16,17
 406 130 406 130 404 134 c 0,18,19
 401 137 401 137 401 141 c 0,20,21
 402 146 402 146 399 150 c 0,22,23
 397 154 397 154 393 158 c 0,24,25
 390 162 390 162 387 166 c 256,26,27
 384 170 384 170 385 176 c 2,28,29
 385 176 385 176 387 185 c 0,30,31
 389 195 389 195 393 208 c 0,32,33
 397 222 397 222 402 238 c 0,34,35
 406 254 406 254 412 267 c 0,36,37
 418 281 418 281 424 290 c 256,38,39
 430 299 430 299 436 299 c 1,40,-1
 441 294 l 2,41,42
 445 289 445 289 446 285 c 0,43,44
 445 282 445 282 448 278 c 256,45,46
 451 274 451 274 455 269 c 256,47,48
 459 264 459 264 462 259 c 0,49,50
 466 254 466 254 466 251 c 1,51,-1
 466 251 l 1,0,1
350 593 m 1,52,53
 351 587 351 587 350 578 c 0,54,55
 350 570 350 570 348 560 c 0,56,57
 345 546 345 546 342 531 c 0,58,59
 338 516 338 516 334 504 c 0,60,61
 329 492 329 492 326 483 c 0,62,63
 322 474 322 474 321 472 c 0,64,65
 319 471 319 471 313 467 c 0,66,67
 307 464 307 464 304 462 c 0,68,69
 303 463 303 463 300 465 c 256,70,71
 297 467 297 467 293 470 c 256,72,73
 289 473 289 473 287 476 c 0,74,75
 284 480 284 480 285 483 c 0,76,77
 286 488 286 488 283 493 c 0,78,79
 280 497 280 497 277 501 c 0,80,81
 273 504 273 504 270 509 c 0,82,83
 267 513 267 513 268 519 c 2,84,85
 268 519 268 519 270 528 c 256,86,87
 272 537 272 537 276 551 c 256,88,89
 280 565 280 565 285 580 c 0,90,91
 290 596 290 596 296 610 c 0,92,93
 301 623 301 623 308 632 c 0,94,95
 314 641 314 641 320 641 c 1,96,97
 320 640 320 640 325 636 c 0,98,99
 330 631 330 631 329 627 c 0,100,101
 329 625 329 625 332 621 c 0,102,103
 335 616 335 616 338 612 c 0,104,105
 342 607 342 607 345 602 c 0,106,107
 349 597 349 597 350 593 c 1,108,-1
 350 593 l 1,52,53
615 677 m 1,109,110
 616 680 616 680 619 684 c 0,111,112
 622 689 622 689 623 694 c 0,113,114
 623 696 623 696 622 700 c 256,115,116
 621 704 621 704 617 704 c 0,117,118
 610 704 610 704 607 700 c 0,119,120
 604 695 604 695 600 693 c 0,121,122
 599 692 599 692 590 688 c 0,123,124
 581 685 581 685 570 680 c 0,125,126
 559 674 559 674 549 668 c 0,127,128
 538 662 538 662 533 656 c 0,129,130
 529 651 529 651 525 641 c 0,131,132
 522 631 522 631 516 622 c 0,133,134
 490 578 490 578 464 541 c 256,135,136
 438 504 438 504 415 466 c 0,137,138
 383 417 383 417 352 369 c 256,139,140
 321 321 321 321 289 279 c 2,141,-1
 246 222 l 2,142,143
 240 214 240 214 235 209 c 256,144,145
 230 204 230 204 225 197 c 0,146,147
 219 190 219 190 212 179 c 0,148,149
 204 169 204 169 193 153 c 1,150,151
 191 143 191 143 187 140 c 0,152,153
 182 136 182 136 179 134 c 0,154,155
 177 131 177 131 176 128 c 0,156,157
 176 125 176 125 174 123 c 0,158,159
 170 118 170 118 163 112 c 0,160,161
 155 106 155 106 149 101 c 0,162,163
 142 95 142 95 138 90 c 256,164,165
 134 85 134 85 132 81 c 0,166,167
 132 79 132 79 133 76 c 0,168,169
 134 72 134 72 136 67 c 256,170,171
 138 62 138 62 142 59 c 0,172,173
 146 55 146 55 154 55 c 0,174,175
 161 55 161 55 168 64 c 0,176,177
 175 72 175 72 181 84 c 0,178,179
 188 95 188 95 193 106 c 0,180,181
 198 116 198 116 200 120 c 0,182,183
 209 133 209 133 218 142 c 256,184,185
 227 151 227 151 232 157 c 0,186,187
 246 177 246 177 258 195 c 0,188,189
 270 212 270 212 280 228 c 0,190,191
 285 233 285 233 289 242 c 256,192,193
 293 251 293 251 300 259 c 0,194,195
 303 262 303 262 306 264 c 0,196,197
 310 266 310 266 312 269 c 0,198,199
 316 274 316 274 317 278 c 256,200,201
 318 282 318 282 321 286 c 0,202,203
 328 293 328 293 335 301 c 0,204,205
 342 310 342 310 348 317 c 0,206,207
 369 350 369 350 395 384 c 0,208,209
 422 417 422 417 445 449 c 0,210,211
 448 452 448 452 451 454 c 256,212,213
 454 456 454 456 457 459 c 256,214,215
 460 462 460 462 462 467 c 0,216,217
 464 473 464 473 467 476 c 0,218,219
 469 478 469 478 473 481 c 0,220,221
 476 483 476 483 476 484 c 256,222,223
 476 485 476 485 476 487 c 0,224,225
 476 488 476 488 476 489 c 2,226,-1
 476 490 l 1,227,228
 480 494 480 494 482 495 c 0,229,230
 485 497 485 497 487 498 c 256,231,232
 489 499 489 499 491 501 c 0,233,234
 492 503 492 503 494 507 c 0,235,236
 494 509 494 509 500 522 c 0,237,238
 507 534 507 534 516 549 c 0,239,240
 526 564 526 564 537 578 c 256,241,242
 548 592 548 592 557 598 c 1,243,244
 557 598 557 598 557 600 c 0,245,246
 558 601 558 601 557 602 c 0,247,248
 557 604 557 604 558 605 c 0,249,250
 558 609 558 609 563 614 c 0,251,252
 567 619 567 619 571 623 c 0,253,254
 576 628 576 628 580 631 c 256,255,256
 584 634 584 634 584 634 c 2,257,258
 584 636 584 636 584 638 c 0,259,260
 583 639 583 639 584 640 c 0,261,262
 585 644 585 644 588 649 c 0,263,264
 592 654 592 654 598 660 c 0,265,266
 603 665 603 665 608 669 c 0,267,268
 613 674 613 674 615 677 c 1,269,-1
 615 677 l 1,109,110
529 258 m 1,270,271
 529 265 529 265 527 266 c 0,272,273
 525 266 525 266 523 270 c 0,274,275
 522 273 522 273 523 277 c 0,276,277
 523 280 523 280 522 285 c 0,278,279
 512 312 512 312 500 330 c 0,280,281
 488 349 488 349 473 350 c 0,282,283
 469 350 469 350 457 342 c 0,284,285
 444 333 444 333 428 321 c 0,286,287
 412 308 412 308 396 294 c 0,288,289
 380 279 380 279 370 266 c 256,290,291
 360 253 360 253 354 244 c 0,292,293
 349 234 349 234 345 225 c 0,294,295
 341 215 341 215 338 204 c 0,296,297
 335 194 335 194 332 179 c 0,298,299
 329 170 329 170 326 162 c 0,300,301
 324 155 324 155 322 149 c 0,302,303
 321 142 321 142 327 129 c 0,304,305
 332 117 332 117 341 105 c 256,306,307
 350 93 350 93 361 84 c 256,308,309
 372 75 372 75 382 75 c 0,310,311
 394 75 394 75 405 80 c 0,312,313
 415 85 415 85 426 94 c 256,314,315
 437 103 437 103 450 116 c 0,316,317
 463 128 463 128 481 144 c 0,318,319
 487 150 487 150 490 152 c 0,320,321
 494 154 494 154 495 155 c 0,322,323
 497 156 497 156 498 159 c 0,324,325
 500 162 500 162 501 167 c 0,326,327
 506 188 506 188 515 209 c 0,328,329
 523 229 523 229 527 250 c 0,330,331
 528 252 528 252 528 254 c 256,332,333
 528 256 528 256 529 258 c 1,334,-1
 529 258 l 1,270,271
412 601 m 1,335,336
 412 607 412 607 410 608 c 0,337,338
 408 608 408 608 406 612 c 0,339,340
 405 616 405 616 406 619 c 0,341,342
 407 623 407 623 405 627 c 0,343,344
 400 640 400 640 395 652 c 0,345,346
 390 663 390 663 384 672 c 0,347,348
 377 681 377 681 370 687 c 0,349,350
 364 692 364 692 356 692 c 0,351,352
 353 692 353 692 340 684 c 0,353,354
 327 675 327 675 311 663 c 256,355,356
 295 651 295 651 279 636 c 256,357,358
 263 621 263 621 254 609 c 0,359,360
 244 596 244 596 239 586 c 0,361,362
 233 577 233 577 229 567 c 0,363,364
 225 558 225 558 222 547 c 256,365,366
 219 536 219 536 215 521 c 0,367,368
 212 511 212 511 210 504 c 0,369,370
 207 496 207 496 205 490 c 0,371,372
 204 483 204 483 210 470 c 0,373,374
 216 458 216 458 225 446 c 0,375,376
 235 434 235 434 246 426 c 0,377,378
 257 417 257 417 266 417 c 0,379,380
 280 417 280 417 288 421 c 0,381,382
 297 424 297 424 303 430 c 0,383,384
 309 435 309 435 314 441 c 0,385,386
 318 447 318 447 325 453 c 0,387,388
 352 475 352 475 367 488 c 0,389,390
 382 500 382 500 384 510 c 0,391,392
 389 530 389 530 398 550 c 256,393,394
 407 570 407 570 411 591 c 0,395,396
 412 598 412 598 412 601 c 1,397,-1
 412 601 l 1,335,336
EndSplineSet
EndChar

StartChar: ampersand
Encoding: 38 38 9
Width: 911
VWidth: 1024
Flags: W
LayerCount: 2
Fore
SplineSet
539 538 m 1,0,1
 537 536 537 536 533 531 c 256,2,3
 529 526 529 526 527 524 c 0,4,5
 524 519 524 519 523 515 c 0,6,7
 522 510 522 510 518 505 c 0,8,9
 517 502 517 502 513 502 c 0,10,11
 508 501 508 501 508 499 c 0,12,13
 508 498 508 498 508 496 c 256,14,15
 508 494 508 494 508 493 c 0,16,17
 507 490 507 490 504 488 c 0,18,19
 501 487 501 487 497 486 c 0,20,21
 494 485 494 485 489 484 c 0,22,23
 485 483 485 483 481 481 c 0,24,25
 476 478 476 478 469 472 c 256,26,27
 462 466 462 466 455 460 c 0,28,29
 448 453 448 453 440 449 c 0,30,31
 433 445 433 445 426 445 c 0,32,33
 421 445 421 445 419 446 c 0,34,35
 417 448 417 448 416 452 c 0,36,37
 415 455 415 455 415 459 c 0,38,39
 414 463 414 463 412 467 c 0,40,41
 408 476 408 476 401 487 c 256,42,43
 394 498 394 498 388 513 c 256,44,45
 382 528 382 528 380 547 c 0,46,47
 377 566 377 566 382 591 c 0,48,49
 382 597 382 597 384 601 c 0,50,51
 386 606 386 606 390 613 c 0,52,53
 391 613 391 613 395 619 c 0,54,55
 400 624 400 624 408 631 c 0,56,57
 417 637 417 637 427 644 c 0,58,59
 438 650 438 650 450 653 c 0,60,61
 451 653 451 653 453 655 c 0,62,63
 456 657 456 657 460 657 c 0,64,65
 471 656 471 656 478 654 c 0,66,67
 485 651 485 651 492 646 c 0,68,69
 498 640 498 640 503 633 c 0,70,71
 509 626 509 626 515 619 c 256,72,73
 521 612 521 612 527 605 c 256,74,75
 533 598 533 598 538 591 c 256,76,77
 543 584 543 584 545 576 c 0,78,79
 547 567 547 567 545 557 c 0,80,81
 544 547 544 547 539 538 c 1,82,-1
 539 538 l 1,0,1
509 130 m 1,83,84
 508 119 508 119 493 111 c 0,85,86
 479 103 479 103 460 92 c 0,87,88
 455 89 455 89 446 85 c 0,89,90
 436 81 436 81 429 78 c 0,91,92
 420 72 420 72 415 66 c 0,93,94
 411 61 411 61 406 59 c 0,95,96
 394 52 394 52 378 46 c 0,97,98
 361 41 361 41 341 34 c 0,99,100
 335 32 335 32 334 32 c 0,101,102
 324 32 324 32 312 39 c 256,103,104
 300 46 300 46 287 57 c 0,105,106
 273 67 273 67 262 79 c 0,107,108
 250 91 250 91 244 101 c 256,109,110
 238 111 238 111 229 124 c 0,111,112
 220 138 220 138 213 154 c 0,113,114
 205 170 205 170 202 189 c 0,115,116
 198 207 198 207 202 226 c 0,117,118
 203 236 203 236 207 244 c 0,119,120
 212 252 212 252 219 260 c 0,121,122
 227 268 227 268 238 276 c 0,123,124
 249 285 249 285 263 296 c 0,125,126
 274 305 274 305 286 314 c 256,127,128
 298 323 298 323 309 331 c 0,129,130
 320 338 320 338 329 343 c 0,131,132
 339 349 339 349 345 349 c 0,133,134
 350 349 350 349 358 337 c 0,135,136
 366 326 366 326 376 308 c 0,137,138
 386 291 386 291 398 271 c 256,139,140
 410 251 410 251 424 234 c 0,141,142
 431 224 431 224 444 208 c 256,143,144
 457 192 457 192 471 176 c 0,145,146
 484 160 484 160 495 147 c 256,147,148
 506 134 506 134 509 130 c 1,149,-1
 509 130 l 1,83,84
1069 638 m 1,150,-1
 1066 638 l 2,151,152
 1059 638 1059 638 1051 632 c 0,153,154
 1044 626 1044 626 1035 619 c 0,155,156
 1027 611 1027 611 1018 603 c 256,157,158
 1009 595 1009 595 999 590 c 0,159,160
 988 585 988 585 972 585 c 0,161,162
 957 584 957 584 941 581 c 0,163,164
 906 576 906 576 871 568 c 256,165,166
 836 560 836 560 807 553 c 0,167,168
 805 551 805 551 803 550 c 0,169,170
 802 548 802 548 801 548 c 0,171,172
 794 546 794 546 785 545 c 0,173,174
 777 545 777 545 772 543 c 0,175,176
 769 542 769 542 766 536 c 0,177,178
 764 530 764 530 761 529 c 0,179,180
 756 526 756 526 751 527 c 0,181,182
 745 527 745 527 740 524 c 0,183,184
 738 522 738 522 730 515 c 0,185,186
 723 509 723 509 713 500 c 0,187,188
 703 490 703 490 692 481 c 0,189,190
 681 471 681 471 671 462 c 0,191,192
 662 453 662 453 655 448 c 0,193,194
 649 443 649 443 648 443 c 256,195,196
 647 443 647 443 645 443 c 256,197,198
 643 443 643 443 642 443 c 0,199,200
 638 443 638 443 634 439 c 0,201,202
 630 436 630 436 626 431 c 0,203,204
 623 426 623 426 620 422 c 0,205,206
 618 418 618 418 618 418 c 2,207,208
 617 413 617 413 621 409 c 0,209,210
 625 406 625 406 628 406 c 0,211,212
 633 406 633 406 638 410 c 0,213,214
 642 413 642 413 646 418 c 256,215,216
 650 423 650 423 653 428 c 0,217,218
 656 432 656 432 658 434 c 0,219,220
 692 460 692 460 725 475 c 0,221,222
 759 489 759 489 797 495 c 1,223,224
 796 488 796 488 793 481 c 0,225,226
 791 474 791 474 787 469 c 0,227,228
 784 462 784 462 780 455 c 0,229,230
 780 454 780 454 780 453 c 0,231,232
 780 451 780 451 780 450 c 2,233,-1
 779 448 l 2,234,235
 777 443 777 443 771 431 c 0,236,237
 765 418 765 418 756 401 c 256,238,239
 747 384 747 384 737 365 c 256,240,241
 727 346 727 346 718 329 c 0,242,243
 709 313 709 313 701 301 c 256,244,245
 693 289 693 289 689 286 c 0,246,247
 685 281 685 281 682 275 c 0,248,249
 679 270 679 270 676 268 c 0,250,251
 668 261 668 261 656 250 c 256,252,253
 644 239 644 239 631 228 c 0,254,255
 618 218 618 218 608 210 c 256,256,257
 598 202 598 202 595 202 c 0,258,259
 585 202 585 202 576 212 c 0,260,261
 567 223 567 223 560 236 c 256,262,263
 553 249 553 249 547 261 c 0,264,265
 542 273 542 273 540 277 c 0,266,267
 536 282 536 282 528 288 c 0,268,269
 519 295 519 295 512 305 c 0,270,271
 505 314 505 314 499 325 c 0,272,273
 494 336 494 336 490 343 c 0,274,275
 486 349 486 349 478 359 c 0,276,277
 471 369 471 369 463 379 c 0,278,279
 455 390 455 390 450 399 c 256,280,281
 445 408 445 408 446 413 c 0,282,283
 447 422 447 422 460 432 c 256,284,285
 473 442 473 442 488 452 c 0,286,287
 504 461 504 461 517 468 c 0,288,289
 530 474 530 474 532 476 c 0,290,291
 542 484 542 484 549 491 c 0,292,293
 556 497 556 497 561 504 c 0,294,295
 567 510 567 510 572 516 c 0,296,297
 578 522 578 522 585 529 c 0,298,299
 595 538 595 538 604 545 c 0,300,301
 613 553 613 553 621 560 c 0,302,303
 628 567 628 567 633 574 c 0,304,305
 638 582 638 582 640 593 c 0,306,307
 641 600 641 600 640 613 c 256,308,309
 639 626 639 626 634 640 c 0,310,311
 630 654 630 654 623 668 c 0,312,313
 617 681 617 681 608 690 c 256,314,315
 599 699 599 699 591 708 c 0,316,317
 582 717 582 717 575 725 c 256,318,319
 568 733 568 733 563 737 c 0,320,321
 558 742 558 742 556 742 c 0,322,323
 551 742 551 742 548 741 c 0,324,325
 544 739 544 739 543 737 c 0,326,327
 541 735 541 735 538 732 c 0,328,329
 536 730 536 730 534 728 c 0,330,331
 528 724 528 724 520 723 c 0,332,333
 511 722 511 722 504 719 c 0,334,335
 502 717 502 717 499 714 c 0,336,337
 496 710 496 710 494 709 c 0,338,339
 489 707 489 707 485 707 c 256,340,341
 481 707 481 707 478 704 c 0,342,343
 471 700 471 700 466 695 c 256,344,345
 461 690 461 690 455 686 c 0,346,347
 444 678 444 678 437 676 c 0,348,349
 430 675 430 675 424 671 c 0,350,351
 411 662 411 662 396 652 c 0,352,353
 380 641 380 641 366 631 c 256,354,355
 352 621 352 621 342 613 c 0,356,357
 331 604 331 604 326 600 c 0,358,359
 322 596 322 596 322 591 c 0,360,361
 322 585 322 585 318 581 c 0,362,363
 314 576 314 576 312 575 c 0,364,365
 309 573 309 573 307 571 c 0,366,367
 304 569 304 569 301 565 c 0,368,369
 299 562 299 562 294 553 c 0,370,371
 287 537 287 537 286 526 c 0,372,373
 282 508 282 508 286 487 c 0,374,375
 289 466 289 466 296 446 c 0,376,377
 303 425 303 425 312 408 c 0,378,379
 320 390 320 390 325 377 c 1,380,381
 319 377 319 377 316 374 c 0,382,383
 312 371 312 371 310 367 c 0,384,385
 307 363 307 363 305 359 c 256,386,387
 303 355 303 355 302 353 c 0,388,389
 299 350 299 350 294 350 c 0,390,391
 290 351 290 351 287 348 c 0,392,393
 265 331 265 331 247 319 c 256,394,395
 229 307 229 307 211 291 c 0,396,397
 200 282 200 282 190 273 c 0,398,399
 179 264 179 264 172 258 c 0,400,401
 163 252 163 252 154 247 c 0,402,403
 146 243 146 243 138 239 c 256,404,405
 130 235 130 235 124 230 c 0,406,407
 117 226 117 226 112 220 c 0,408,409
 108 215 108 215 107 207 c 0,410,411
 106 198 106 198 102 191 c 0,412,413
 100 187 100 187 96 185 c 0,414,415
 91 183 91 183 90 176 c 0,416,417
 88 170 88 170 90 158 c 0,418,419
 91 145 91 145 94 130 c 256,420,421
 97 115 97 115 101 100 c 0,422,423
 105 84 105 84 110 72 c 0,424,425
 111 69 111 69 114 68 c 0,426,427
 116 66 116 66 117 63 c 0,428,429
 120 59 120 59 118 53 c 0,430,431
 116 48 116 48 119 45 c 0,432,433
 124 38 124 38 135 35 c 0,434,435
 147 32 147 32 154 25 c 0,436,437
 158 22 158 22 160 14 c 0,438,439
 161 6 161 6 163 1 c 0,440,441
 167 0 167 0 170 -1 c 0,442,443
 174 -1 174 -1 179 -3 c 0,444,445
 184 -6 184 -6 191 -10 c 0,446,447
 198 -15 198 -15 207 -22 c 1,448,449
 214 -22 214 -22 218 -25 c 0,450,451
 222 -27 222 -27 226 -31 c 0,452,453
 230 -34 230 -34 233 -37 c 0,454,455
 237 -40 237 -40 242 -41 c 1,456,457
 240 -41 240 -41 245 -39 c 256,458,459
 250 -37 250 -37 255 -37 c 0,460,461
 258 -37 258 -37 260 -39 c 256,462,463
 262 -41 262 -41 268 -41 c 0,464,465
 272 -41 272 -41 277 -38 c 0,466,467
 282 -36 282 -36 288 -31 c 0,468,469
 294 -27 294 -27 301 -22 c 256,470,471
 308 -17 308 -17 317 -13 c 0,472,473
 323 -10 323 -10 332 -7 c 0,474,475
 342 -4 342 -4 350 -1 c 0,476,477
 361 3 361 3 371 6 c 0,478,479
 373 6 373 6 376 6 c 0,480,481
 378 6 378 6 380 6 c 0,482,483
 384 6 384 6 393 12 c 0,484,485
 403 18 403 18 415 26 c 256,486,487
 427 34 427 34 439 42 c 0,488,489
 450 50 450 50 458 54 c 0,490,491
 464 57 464 57 473 58 c 0,492,493
 481 59 481 59 488 63 c 0,494,495
 496 67 496 67 502 73 c 0,496,497
 509 79 509 79 515 84 c 0,498,499
 520 90 520 90 526 93 c 0,500,501
 531 97 531 97 537 97 c 1,502,503
 541 93 541 93 546 90 c 0,504,505
 550 88 550 88 553 86 c 0,506,507
 557 84 557 84 558 83 c 0,508,509
 571 70 571 70 582 53 c 256,510,511
 593 36 593 36 605 25 c 0,512,513
 607 23 607 23 612 23 c 0,514,515
 616 23 616 23 619 20 c 0,516,517
 626 14 626 14 630 5 c 0,518,519
 635 -3 635 -3 642 -8 c 0,520,521
 646 -13 646 -13 655 -13 c 0,522,523
 664 -14 664 -14 668 -17 c 0,524,525
 674 -21 674 -21 677 -26 c 0,526,527
 681 -31 681 -31 690 -31 c 0,528,529
 700 -31 700 -31 711 -26 c 0,530,531
 723 -21 723 -21 735 -15 c 0,532,533
 746 -8 746 -8 754 -3 c 0,534,535
 763 2 763 2 765 2 c 0,536,537
 766 2 766 2 768 2 c 0,538,539
 770 1 770 1 771 1 c 0,540,541
 773 1 773 1 778 5 c 0,542,543
 782 8 782 8 787 13 c 256,544,545
 792 18 792 18 798 23 c 0,546,547
 803 27 803 27 805 30 c 0,548,549
 823 45 823 45 840 59 c 0,550,551
 857 72 857 72 872 87 c 0,552,553
 876 90 876 90 878 96 c 0,554,555
 881 102 881 102 885 106 c 0,556,557
 890 111 890 111 896 113 c 256,558,559
 902 115 902 115 903 121 c 0,560,561
 903 124 903 124 903 125 c 1,562,563
 893 123 893 123 885 119 c 256,564,565
 877 115 877 115 870 110 c 0,566,567
 863 104 863 104 856 98 c 0,568,569
 848 92 848 92 839 87 c 0,570,571
 834 84 834 84 830 85 c 0,572,573
 826 85 826 85 819 83 c 0,574,575
 814 80 814 80 810 75 c 256,576,577
 806 70 806 70 803 68 c 0,578,579
 778 56 778 56 762 56 c 0,580,581
 748 56 748 56 737 64 c 256,582,583
 726 72 726 72 719 78 c 0,584,585
 714 80 714 80 709 86 c 256,586,587
 704 92 704 92 699 97 c 0,588,589
 693 102 693 102 689 107 c 0,590,591
 684 111 684 111 682 111 c 0,592,593
 679 111 679 111 677 113 c 256,594,595
 675 115 675 115 674 118 c 0,596,597
 672 121 672 121 670 123 c 256,598,599
 668 125 668 125 665 125 c 0,600,601
 664 125 664 125 657 132 c 0,602,603
 649 139 649 139 641 147 c 0,604,605
 633 156 633 156 627 163 c 256,606,607
 621 170 621 170 621 172 c 0,608,609
 622 177 622 177 626 179 c 0,610,611
 631 180 631 180 638 187 c 0,612,613
 642 192 642 192 646 198 c 0,614,615
 649 204 649 204 651 205 c 2,616,-1
 698 253 l 2,617,618
 706 259 706 259 717 271 c 0,619,620
 729 282 729 282 742 298 c 0,621,622
 755 313 755 313 768 330 c 256,623,624
 781 347 781 347 792 362 c 0,625,626
 803 378 803 378 810 391 c 0,627,628
 818 403 818 403 820 410 c 0,629,630
 821 414 821 414 823 414 c 0,631,632
 825 413 825 413 826 415 c 0,633,634
 831 423 831 423 834 431 c 0,635,636
 838 439 838 439 841 446 c 256,637,638
 844 453 844 453 848 461 c 0,639,640
 853 468 853 468 860 476 c 0,641,642
 870 488 870 488 886 494 c 0,643,644
 901 499 901 499 918 503 c 0,645,646
 934 506 934 506 950 509 c 256,647,648
 966 512 966 512 977 519 c 0,649,650
 985 524 985 524 989 531 c 0,651,652
 993 539 993 539 1001 548 c 0,653,654
 1009 558 1009 558 1020 569 c 0,655,656
 1031 581 1031 581 1041 593 c 256,657,658
 1051 605 1051 605 1058 616 c 0,659,660
 1066 628 1066 628 1069 638 c 1,661,-1
 1069 638 l 1,150,-1
EndSplineSet
EndChar

StartChar: quotesingle
Encoding: 39 39 10
Width: 179
VWidth: 1024
Flags: W
LayerCount: 2
Fore
SplineSet
351 686 m 1,0,1
 352 689 352 689 349 690 c 0,2,3
 347 691 347 691 344 692 c 0,4,5
 342 693 342 693 340 695 c 0,6,7
 338 696 338 696 338 700 c 0,8,9
 339 703 339 703 342 705 c 0,10,11
 344 708 344 708 345 709 c 0,12,13
 344 713 344 713 338 713 c 0,14,15
 318 713 318 713 306 709 c 256,16,17
 294 705 294 705 287 697 c 0,18,19
 279 689 279 689 275 677 c 0,20,21
 272 665 272 665 269 648 c 2,22,-1
 267 637 l 2,23,24
 258 598 258 598 250 574 c 0,25,26
 241 549 241 549 234 532 c 0,27,28
 227 516 227 516 222 505 c 0,29,30
 217 495 217 495 215 485 c 0,31,32
 214 480 214 480 218 473 c 0,33,34
 221 466 221 466 230 466 c 0,35,36
 235 466 235 466 239 472 c 0,37,38
 242 478 242 478 248 491 c 0,39,40
 254 505 254 505 266 529 c 0,41,42
 277 552 277 552 300 588 c 0,43,44
 300 589 300 589 302 594 c 0,45,46
 305 599 305 599 307 605 c 256,47,48
 309 611 309 611 311 616 c 0,49,50
 314 621 314 621 315 623 c 0,51,52
 319 630 319 630 324 639 c 0,53,54
 330 647 330 647 336 655 c 0,55,56
 341 663 341 663 345 671 c 0,57,58
 350 679 350 679 351 684 c 2,59,-1
 351 686 l 1,60,-1
 351 686 l 1,0,1
EndSplineSet
EndChar

StartChar: parenleft
Encoding: 40 40 11
Width: 377
VWidth: 1024
Flags: W
LayerCount: 2
Fore
SplineSet
633 813 m 1,0,1
 633 819 633 819 632 823 c 0,2,3
 631 828 631 828 629 832 c 0,4,5
 626 836 626 836 625 839 c 0,6,7
 623 841 623 841 623 843 c 256,8,9
 623 845 623 845 624 847 c 0,10,11
 625 848 625 848 625 850 c 0,12,13
 625 853 625 853 622 853 c 256,14,15
 619 853 619 853 614 850 c 0,16,17
 610 848 610 848 610 847 c 1,18,19
 607 847 607 847 605 847 c 0,20,21
 602 847 602 847 600 847 c 0,22,23
 589 847 589 847 577 840 c 256,24,25
 565 833 565 833 555 825 c 0,26,27
 544 817 544 817 536 810 c 0,28,29
 529 803 529 803 525 803 c 0,30,31
 523 803 523 803 522 804 c 0,32,33
 520 804 520 804 518 804 c 2,34,35
 518 804 518 804 514 801 c 0,36,37
 509 798 509 798 504 793 c 0,38,39
 499 789 499 789 494 785 c 0,40,41
 489 782 489 782 488 780 c 0,42,43
 463 759 463 759 433 738 c 0,44,45
 402 716 402 716 371 691 c 0,46,47
 340 667 340 667 312 638 c 0,48,49
 284 610 284 610 263 576 c 0,50,51
 253 558 253 558 243 546 c 0,52,53
 234 535 234 535 231 529 c 0,54,55
 218 508 218 508 209 490 c 0,56,57
 200 473 200 473 192 456 c 256,58,59
 184 439 184 439 177 422 c 256,60,61
 170 405 170 405 163 386 c 0,62,63
 155 368 155 368 149 352 c 0,64,65
 142 336 142 336 136 319 c 0,66,67
 131 301 131 301 126 281 c 0,68,69
 120 260 120 260 116 233 c 0,70,71
 107 189 107 189 106 149 c 0,72,73
 104 108 104 108 107 73 c 0,74,75
 109 38 109 38 114 10 c 0,76,77
 120 -18 120 -18 127 -37 c 0,78,79
 130 -48 130 -48 137 -59 c 0,80,81
 143 -69 143 -69 147 -80 c 0,82,83
 150 -90 150 -90 151 -100 c 0,84,85
 151 -109 151 -109 155 -117 c 0,86,87
 158 -123 158 -123 164 -128 c 0,88,89
 170 -134 170 -134 174 -141 c 0,90,91
 188 -162 188 -162 197 -176 c 256,92,93
 206 -190 206 -190 213 -198 c 0,94,95
 219 -207 219 -207 225 -211 c 256,96,97
 231 -215 231 -215 240 -215 c 0,98,99
 248 -215 248 -215 258 -210 c 256,100,101
 268 -205 268 -205 283 -198 c 0,102,103
 284 -197 284 -197 286 -197 c 0,104,105
 287 -197 287 -197 290 -198 c 0,106,107
 292 -198 292 -198 294 -198 c 0,108,109
 299 -198 299 -198 300 -195 c 0,110,111
 300 -191 300 -191 303 -188 c 0,112,113
 323 -177 323 -177 324 -172 c 0,114,115
 326 -163 326 -163 318 -153 c 0,116,117
 310 -142 310 -142 298 -130 c 0,118,119
 287 -119 287 -119 276 -108 c 256,120,121
 265 -97 265 -97 260 -88 c 0,122,123
 258 -85 258 -85 259 -79 c 0,124,125
 261 -74 261 -74 258 -70 c 0,126,127
 256 -67 256 -67 251 -65 c 0,128,129
 245 -62 245 -62 246 -59 c 0,130,131
 246 -57 246 -57 246 -56 c 0,132,133
 247 -54 247 -54 247 -53 c 0,134,135
 247 -50 247 -50 244 -49 c 0,136,137
 240 -48 240 -48 239 -46 c 0,138,139
 236 -42 236 -42 235 -36 c 0,140,141
 235 -31 235 -31 233 -27 c 0,142,143
 223 -8 223 -8 216 13 c 0,144,145
 209 33 209 33 204 54 c 0,146,147
 203 59 203 59 200 62 c 0,148,149
 198 65 198 65 197 68 c 0,150,151
 197 71 197 71 195 81 c 0,152,153
 194 92 194 92 193 106 c 0,154,155
 193 121 193 121 192 137 c 0,156,157
 191 154 191 154 190 169 c 0,158,159
 190 185 190 185 190 198 c 256,160,161
 190 211 190 211 191 217 c 0,162,163
 197 247 197 247 207 278 c 0,164,165
 218 308 218 308 224 329 c 0,166,167
 237 367 237 367 249 407 c 0,168,169
 262 448 262 448 285 486 c 0,170,171
 287 491 287 491 290 498 c 0,172,173
 293 504 293 504 295 511 c 0,174,175
 298 518 298 518 299 523 c 0,176,177
 301 529 301 529 303 533 c 0,178,179
 305 538 305 538 311 550 c 0,180,181
 318 561 318 561 327 576 c 0,182,183
 335 590 335 590 345 606 c 0,184,185
 354 621 354 621 363 635 c 0,186,187
 371 648 371 648 376 657 c 0,188,189
 382 665 382 665 383 667 c 0,190,191
 390 676 390 676 399 684 c 0,192,193
 409 692 409 692 420 699 c 0,194,195
 432 706 432 706 445 713 c 0,196,197
 457 720 457 720 470 728 c 0,198,199
 492 742 492 742 514 757 c 256,200,201
 536 772 536 772 555 780 c 0,202,203
 560 782 560 782 562 783 c 0,204,205
 565 784 565 784 567 784 c 0,206,207
 570 785 570 785 573 786 c 256,208,209
 576 787 576 787 581 790 c 0,210,211
 588 794 588 794 598 793 c 0,212,213
 607 792 607 792 614 795 c 0,214,215
 620 797 620 797 626 805 c 0,216,217
 632 812 632 812 633 813 c 1,218,-1
 633 813 l 1,0,1
EndSplineSet
EndChar

StartChar: parenright
Encoding: 41 41 12
Width: 377
VWidth: 1024
Flags: W
LayerCount: 2
Fore
SplineSet
455 359 m 1,0,1
 457 370 457 370 459 381 c 0,2,3
 461 391 461 391 463 401 c 0,4,5
 471 445 471 445 472 486 c 0,6,7
 474 527 474 527 472 563 c 0,8,9
 469 599 469 599 464 627 c 0,10,11
 459 656 459 656 453 673 c 0,12,13
 448 685 448 685 441 695 c 0,14,15
 435 705 435 705 431 716 c 0,16,17
 427 726 427 726 428 736 c 0,18,19
 428 746 428 746 424 754 c 0,20,21
 422 758 422 758 417 764 c 0,22,23
 413 770 413 770 407 776 c 0,24,25
 402 782 402 782 397 787 c 256,26,27
 392 792 392 792 389 796 c 0,28,29
 384 802 384 802 383 808 c 256,30,31
 382 814 382 814 378 820 c 0,32,33
 371 836 371 836 358 844 c 256,34,35
 345 852 345 852 339 852 c 0,36,37
 330 852 330 852 321 847 c 0,38,39
 311 841 311 841 296 834 c 0,40,41
 294 834 294 834 293 834 c 0,42,43
 290 834 290 834 288 834 c 256,44,45
 286 834 286 834 284 834 c 0,46,47
 279 834 279 834 279 830 c 256,48,49
 279 826 279 826 275 825 c 0,50,51
 256 813 256 813 254 808 c 0,52,53
 253 799 253 799 261 788 c 0,54,55
 270 778 270 778 281 767 c 256,56,57
 292 756 292 756 304 745 c 0,58,59
 315 735 315 735 319 725 c 0,60,61
 322 718 322 718 328 706 c 0,62,63
 334 693 334 693 340 679 c 0,64,65
 347 665 347 665 354 649 c 0,66,67
 361 634 361 634 366 621 c 0,68,69
 371 607 371 607 374 598 c 0,70,71
 377 588 377 588 377 584 c 0,72,73
 377 583 377 583 375 583 c 0,74,75
 374 583 374 583 373 581 c 0,76,77
 373 579 373 579 377 576 c 0,78,79
 382 572 382 572 382 569 c 0,80,81
 383 565 383 565 384 556 c 0,82,83
 385 546 385 546 385 528 c 0,84,85
 386 510 386 510 386 482 c 0,86,87
 386 453 386 453 384 413 c 1,88,89
 378 384 378 384 370 355 c 0,90,91
 362 327 362 327 355 307 c 0,92,93
 350 293 350 293 345 273 c 0,94,95
 340 252 340 252 332 231 c 0,96,97
 325 209 325 209 315 188 c 0,98,99
 306 167 306 167 294 151 c 0,100,101
 287 140 287 140 283 125 c 0,102,103
 280 111 280 111 277 103 c 0,104,105
 268 85 268 85 257 65 c 0,106,107
 247 45 247 45 237 29 c 0,108,109
 228 13 228 13 221 3 c 0,110,111
 214 -8 214 -8 214 -6 c 1,112,113
 206 -24 206 -24 195 -35 c 256,114,115
 184 -46 184 -46 170 -56 c 0,116,117
 156 -65 156 -65 141 -73 c 256,118,119
 126 -81 126 -81 109 -92 c 0,120,121
 87 -105 87 -105 65 -121 c 0,122,123
 43 -136 43 -136 24 -144 c 0,124,125
 18 -146 18 -146 13 -147 c 0,126,127
 9 -147 9 -147 4 -149 c 0,128,129
 1 -150 1 -150 0 -151 c 0,130,131
 0 -153 0 -153 -2 -153 c 0,132,133
 -10 -157 -10 -157 -19 -156 c 0,134,135
 -29 -156 -29 -156 -36 -158 c 0,136,137
 -41 -160 -41 -160 -47 -168 c 256,138,139
 -53 -176 -53 -176 -53 -177 c 0,140,141
 -54 -182 -54 -182 -53 -187 c 256,142,143
 -52 -192 -52 -192 -50 -196 c 256,144,145
 -48 -200 -48 -200 -46 -203 c 0,146,147
 -45 -205 -45 -205 -45 -207 c 0,148,149
 -45 -208 -45 -208 -46 -210 c 0,150,151
 -46 -212 -46 -212 -46 -213 c 0,152,153
 -47 -216 -47 -216 -43 -216 c 0,154,155
 -40 -216 -40 -216 -35 -213 c 0,156,157
 -30 -211 -30 -211 -31 -210 c 1,158,159
 -27 -211 -27 -211 -25 -211 c 256,160,161
 -23 -211 -23 -211 -21 -211 c 0,162,163
 -13 -211 -13 -211 -6 -208 c 0,164,165
 0 -205 0 -205 6 -202 c 0,166,167
 12 -198 12 -198 19 -193 c 256,168,169
 26 -188 26 -188 36 -182 c 0,170,171
 39 -180 39 -180 45 -174 c 0,172,173
 51 -167 51 -167 54 -167 c 0,174,175
 55 -167 55 -167 57 -168 c 0,176,177
 58 -168 58 -168 59 -168 c 256,178,179
 60 -168 60 -168 65 -165 c 0,180,181
 69 -162 69 -162 75 -157 c 0,182,183
 81 -153 81 -153 86 -149 c 0,184,185
 90 -146 90 -146 90 -144 c 0,186,187
 99 -136 99 -136 113 -127 c 0,188,189
 126 -118 126 -118 140 -108 c 0,190,191
 155 -98 155 -98 169 -88 c 256,192,193
 183 -78 183 -78 193 -67 c 0,194,195
 197 -64 197 -64 200 -60 c 0,196,197
 202 -57 202 -57 206 -53 c 0,198,199
 215 -45 215 -45 224 -40 c 0,200,201
 232 -36 232 -36 239 -30 c 0,202,203
 240 -27 240 -27 250 -16 c 0,204,205
 260 -4 260 -4 272 11 c 0,206,207
 284 27 284 27 298 44 c 0,208,209
 312 62 312 62 324 76 c 0,210,211
 335 90 335 90 342 100 c 0,212,213
 349 109 349 109 349 108 c 1,214,215
 361 128 361 128 370 146 c 256,216,217
 379 164 379 164 387 181 c 256,218,219
 395 198 395 198 402 215 c 0,220,221
 408 232 408 232 416 251 c 0,222,223
 422 265 422 265 428 278 c 0,224,225
 433 291 433 291 438 303 c 0,226,227
 442 315 442 315 446 329 c 0,228,229
 450 342 450 342 455 359 c 1,230,-1
 455 359 l 1,0,1
EndSplineSet
EndChar

StartChar: asterisk
Encoding: 42 42 13
Width: 415
VWidth: 1024
Flags: W
LayerCount: 2
Fore
SplineSet
526 538 m 1,0,1
 525 553 525 553 527 568 c 256,2,3
 529 583 529 583 530 595 c 0,4,5
 530 607 530 607 528 614 c 0,6,7
 525 622 525 622 514 622 c 256,8,9
 503 622 503 622 489 611 c 0,10,11
 476 600 476 600 460 590 c 0,12,13
 441 579 441 579 426 572 c 0,14,15
 410 565 410 565 398 562 c 1,16,17
 401 574 401 574 405 583 c 0,18,19
 408 593 408 593 412 601 c 0,20,21
 415 610 415 610 420 619 c 0,22,23
 424 627 424 627 430 638 c 0,24,25
 439 651 439 651 448 664 c 0,26,27
 458 677 458 677 461 697 c 0,28,29
 462 700 462 700 459 704 c 0,30,31
 457 709 457 709 452 709 c 2,32,-1
 450 709 l 2,33,34
 446 709 446 709 442 707 c 0,35,36
 438 704 438 704 437 704 c 0,37,38
 429 705 429 705 422 707 c 256,39,40
 415 709 415 709 408 709 c 0,41,42
 391 709 391 709 383 696 c 0,43,44
 376 684 376 684 373 667 c 0,45,46
 371 659 371 659 370 651 c 0,47,48
 370 643 370 643 368 635 c 0,49,50
 366 624 366 624 363 612 c 0,51,52
 361 601 361 601 357 592 c 0,53,54
 354 583 354 583 351 577 c 0,55,56
 347 571 347 571 344 571 c 0,57,58
 340 571 340 571 335 574 c 0,59,60
 329 578 329 578 323 583 c 0,61,62
 318 587 318 587 314 591 c 256,63,64
 310 595 310 595 308 595 c 0,65,66
 302 596 302 596 300 599 c 0,67,68
 297 603 297 603 295 607 c 256,69,70
 293 611 293 611 290 614 c 0,71,72
 287 618 287 618 281 618 c 0,73,74
 273 618 273 618 266 611 c 0,75,76
 260 604 260 604 254 595 c 0,77,78
 249 586 249 586 245 578 c 0,79,80
 242 571 242 571 242 569 c 0,81,82
 240 558 240 558 234 550 c 0,83,84
 228 541 228 541 226 529 c 1,85,86
 230 525 230 525 237 524 c 256,87,88
 244 523 244 523 252 523 c 0,89,90
 261 523 261 523 272 524 c 0,91,92
 282 525 282 525 291 525 c 256,93,94
 300 525 300 525 308 523 c 0,95,96
 315 522 315 522 319 519 c 1,97,98
 314 509 314 509 306 502 c 0,99,100
 298 494 298 494 289 487 c 256,101,102
 280 480 280 480 271 474 c 0,103,104
 263 468 263 468 256 462 c 0,105,106
 251 456 251 456 247 450 c 0,107,108
 244 443 244 443 239 439 c 0,109,110
 236 437 236 437 232 436 c 0,111,112
 227 434 227 434 223 432 c 0,113,114
 218 430 218 430 215 426 c 0,115,116
 211 423 211 423 210 417 c 0,117,118
 209 406 209 406 210 401 c 256,119,120
 211 396 211 396 214 394 c 0,121,122
 217 391 217 391 221 390 c 0,123,124
 226 389 226 389 229 386 c 0,125,126
 232 384 232 384 234 381 c 256,127,128
 236 378 236 378 239 375 c 0,129,130
 241 373 241 373 246 371 c 0,131,132
 250 369 250 369 257 369 c 0,133,134
 266 369 266 369 275 377 c 256,135,136
 284 385 284 385 292 397 c 0,137,138
 301 410 301 410 309 424 c 256,139,140
 317 438 317 438 324 450 c 0,141,142
 332 462 332 462 339 470 c 0,143,144
 345 478 345 478 350 478 c 1,145,146
 356 467 356 467 361 457 c 0,147,148
 365 448 365 448 369 440 c 256,149,150
 373 432 373 432 375 429 c 0,151,152
 375 423 375 423 375 413 c 256,153,154
 375 403 375 403 377 392 c 0,155,156
 378 382 378 382 384 375 c 0,157,158
 390 367 390 367 403 367 c 0,159,160
 409 367 409 367 413 369 c 0,161,162
 418 371 418 371 422 375 c 0,163,164
 426 378 426 378 430 383 c 0,165,166
 434 387 434 387 439 391 c 0,167,168
 444 394 444 394 450 398 c 0,169,170
 457 403 457 403 462 407 c 256,171,172
 467 411 467 411 472 416 c 0,173,174
 476 421 476 421 476 427 c 0,175,176
 478 433 478 433 475 437 c 0,177,178
 473 441 473 441 469 446 c 0,179,180
 464 450 464 450 457 454 c 0,181,182
 450 459 450 459 442 467 c 0,183,184
 440 469 440 469 436 474 c 0,185,186
 432 480 432 480 428 484 c 0,187,188
 424 489 424 489 421 493 c 0,189,190
 419 496 419 496 418 496 c 0,191,192
 416 496 416 496 414 495 c 0,193,194
 412 495 412 495 410 495 c 0,195,196
 406 495 406 495 405 502 c 0,197,198
 405 508 405 508 405 509 c 0,199,200
 405 513 405 513 413 517 c 0,201,202
 422 521 422 521 434 524 c 0,203,204
 447 527 447 527 462 530 c 0,205,206
 476 532 476 532 489 534 c 256,207,208
 502 536 502 536 513 536 c 0,209,210
 523 537 523 537 526 538 c 1,211,-1
 526 538 l 1,0,1
EndSplineSet
EndChar

StartChar: plus
Encoding: 43 43 14
Width: 480
VWidth: 1024
Flags: W
LayerCount: 2
Fore
SplineSet
559 368 m 1,0,1
 557 368 557 368 553 368 c 0,2,3
 543 368 543 368 536 363 c 0,4,5
 530 358 530 358 522 356 c 0,6,7
 518 355 518 355 509 354 c 0,8,9
 499 353 499 353 487 352 c 0,10,11
 474 352 474 352 460 351 c 0,12,13
 445 350 445 350 432 350 c 0,14,15
 408 350 408 350 396 352 c 256,16,17
 384 354 384 354 385 361 c 0,18,19
 387 368 387 368 393 380 c 0,20,21
 400 393 400 393 403 408 c 0,22,23
 403 411 403 411 403 413 c 0,24,25
 403 416 403 416 404 419 c 0,26,27
 405 426 405 426 409 433 c 0,28,29
 413 439 413 439 417 447 c 0,30,31
 424 464 424 464 428 475 c 0,32,33
 433 487 433 487 438 494 c 0,34,35
 444 502 444 502 451 507 c 0,36,37
 459 511 459 511 471 515 c 0,38,39
 471 519 471 519 471 523 c 0,40,41
 472 527 472 527 469 527 c 0,42,43
 466 525 466 525 460 522 c 0,44,45
 455 518 455 518 450 515 c 0,46,47
 445 511 445 511 439 509 c 0,48,49
 434 507 434 507 430 507 c 256,50,51
 426 507 426 507 422 508 c 0,52,53
 418 508 418 508 414 508 c 256,54,55
 410 508 410 508 400 504 c 0,56,57
 391 500 391 500 380 494 c 0,58,59
 368 488 368 488 358 483 c 0,60,61
 348 477 348 477 342 474 c 0,62,63
 338 472 338 472 335 471 c 0,64,65
 332 471 332 471 330 469 c 0,66,67
 328 468 328 468 326 465 c 256,68,69
 324 462 324 462 323 455 c 0,70,71
 326 452 326 452 330 452 c 0,72,73
 334 451 334 451 337 450 c 0,74,75
 341 450 341 450 344 448 c 0,76,77
 347 447 347 447 348 443 c 1,78,79
 348 444 348 444 346 439 c 0,80,81
 343 434 343 434 341 428 c 0,82,83
 338 422 338 422 336 418 c 0,84,85
 335 413 335 413 335 413 c 2,86,87
 331 405 331 405 329 394 c 0,88,89
 326 383 326 383 323 373 c 0,90,91
 321 364 321 364 317 357 c 0,92,93
 313 351 313 351 307 351 c 0,94,95
 300 351 300 351 290 354 c 0,96,97
 280 356 280 356 272 356 c 2,98,-1
 226 356 l 2,99,100
 217 356 217 356 214 358 c 256,101,102
 211 360 211 360 209 360 c 256,103,104
 207 360 207 360 197 350 c 0,105,106
 186 340 186 340 175 327 c 0,107,108
 164 315 164 315 156 305 c 0,109,110
 147 295 147 295 147 295 c 2,111,112
 142 291 142 291 135 286 c 0,113,114
 128 282 128 282 127 274 c 0,115,116
 126 269 126 269 128 267 c 256,117,118
 130 265 130 265 132 265 c 2,119,120
 132 265 132 265 135 266 c 0,121,122
 139 268 139 268 143 271 c 256,123,124
 147 274 147 274 151 276 c 0,125,126
 156 279 156 279 160 280 c 0,127,128
 173 287 173 287 184 290 c 256,129,130
 195 293 195 293 208 293 c 0,131,132
 217 293 217 293 231 293 c 256,133,134
 245 293 245 293 258 292 c 0,135,136
 272 292 272 292 281 290 c 0,137,138
 291 288 291 288 290 284 c 0,139,140
 289 277 289 277 283 266 c 0,141,142
 278 254 278 254 272 242 c 256,143,144
 266 230 266 230 260 218 c 0,145,146
 254 205 254 205 253 196 c 2,147,-1
 251 188 l 2,148,149
 249 177 249 177 244 173 c 0,150,151
 239 168 239 168 233 165 c 0,152,153
 227 163 227 163 222 161 c 0,154,155
 218 158 218 158 216 153 c 0,156,157
 216 146 216 146 219 144 c 0,158,159
 222 141 222 141 226 141 c 256,160,161
 230 141 230 141 236 143 c 0,162,163
 241 145 241 145 246 147 c 0,164,165
 252 149 252 149 257 152 c 0,166,167
 263 154 263 154 267 155 c 0,168,169
 275 156 275 156 285 157 c 0,170,171
 295 157 295 157 304 158 c 0,172,173
 314 160 314 160 321 163 c 256,174,175
 328 166 328 166 331 174 c 0,176,177
 331 178 331 178 328 179 c 0,178,179
 325 181 325 181 322 182 c 0,180,181
 318 183 318 183 315 184 c 0,182,183
 313 186 313 186 314 191 c 0,184,185
 315 197 315 197 318 199 c 0,186,187
 321 200 321 200 324 201 c 0,188,189
 327 201 327 201 329 202 c 0,190,191
 332 203 332 203 333 207 c 0,192,193
 333 209 333 209 333 211 c 0,194,195
 333 214 333 214 334 215 c 0,196,197
 336 225 336 225 340 238 c 0,198,199
 343 251 343 251 348 264 c 0,200,201
 353 276 353 276 359 285 c 0,202,203
 365 293 365 293 375 293 c 0,204,205
 384 293 384 293 393 290 c 256,206,207
 402 287 402 287 420 287 c 0,208,209
 424 287 424 287 430 288 c 256,210,211
 436 289 436 289 443 291 c 0,212,213
 449 293 449 293 455 294 c 0,214,215
 460 295 460 295 462 295 c 256,216,217
 464 295 464 295 465 294 c 256,218,219
 466 293 466 293 466 291 c 1,220,221
 475 291 475 291 483 296 c 0,222,223
 492 301 492 301 499 307 c 0,224,225
 506 314 506 314 512 320 c 0,226,227
 517 326 517 326 522 329 c 0,228,229
 530 336 530 336 542 344 c 0,230,231
 553 351 553 351 559 368 c 1,232,-1
 559 368 l 1,0,1
EndSplineSet
EndChar

StartChar: comma
Encoding: 44 44 15
Width: 196
VWidth: 1024
Flags: W
LayerCount: 2
Fore
SplineSet
154 16 m 1,0,1
 155 22 155 22 154 27 c 0,2,3
 152 31 152 31 153 34 c 0,4,5
 153 36 153 36 155 38 c 0,6,7
 156 40 156 40 158 40 c 2,8,-1
 158 39 l 2,9,10
 158 58 158 58 156 69 c 0,11,12
 155 81 155 81 155 79 c 1,13,14
 155 82 155 82 156 84 c 256,15,16
 157 86 157 86 158 88 c 0,17,18
 158 90 158 90 156 93 c 0,19,20
 153 95 153 95 151 98 c 0,21,22
 149 100 149 100 147 103 c 0,23,24
 144 105 144 105 144 106 c 2,25,-1
 146 106 l 2,26,27
 141 107 141 107 139 107 c 0,28,29
 132 107 132 107 124 104 c 0,30,31
 116 102 116 102 116 101 c 1,32,-1
 116 101 l 1,33,34
 112 100 112 100 106 97 c 0,35,36
 99 93 99 93 93 88 c 256,37,38
 87 83 87 83 82 77 c 0,39,40
 78 71 78 71 76 64 c 0,41,42
 75 58 75 58 75 50 c 0,43,44
 74 42 74 42 74 33 c 0,45,46
 74 25 74 25 74 16 c 0,47,48
 74 8 74 8 75 1 c 0,49,50
 76 -3 76 -3 79 -8 c 256,51,52
 82 -13 82 -13 81 -20 c 0,53,54
 80 -26 80 -26 77 -31 c 256,55,56
 74 -36 74 -36 74 -37 c 0,57,58
 73 -44 73 -44 74 -48 c 0,59,60
 75 -53 75 -53 74 -58 c 0,61,62
 74 -60 74 -60 67 -68 c 0,63,64
 60 -75 60 -75 53 -85 c 0,65,66
 45 -94 45 -94 38 -105 c 256,67,68
 31 -116 31 -116 29 -125 c 0,69,70
 28 -128 28 -128 35 -132 c 0,71,72
 41 -136 41 -136 43 -136 c 0,73,74
 47 -135 47 -135 52 -132 c 256,75,76
 57 -129 57 -129 61 -126 c 0,77,78
 66 -122 66 -122 68 -119 c 0,79,80
 71 -116 71 -116 71 -116 c 2,81,82
 71 -114 71 -114 71 -113 c 0,83,84
 71 -111 71 -111 72 -109 c 2,85,86
 72 -109 72 -109 73 -108 c 0,87,88
 80 -100 80 -100 84 -97 c 0,89,90
 89 -94 89 -94 93 -92 c 0,91,92
 96 -89 96 -89 100 -85 c 0,93,94
 104 -80 104 -80 108 -70 c 0,95,96
 109 -68 109 -68 113 -63 c 0,97,98
 117 -57 117 -57 121 -51 c 0,99,100
 126 -45 126 -45 130 -39 c 0,101,102
 135 -34 135 -34 135 -32 c 0,103,104
 141 -18 141 -18 146 -6 c 0,105,106
 151 7 151 7 154 16 c 1,107,-1
 154 16 l 1,0,1
EndSplineSet
EndChar

StartChar: hyphen
Encoding: 45 45 16
Width: 482
VWidth: 1024
Flags: W
LayerCount: 2
Fore
SplineSet
544 375 m 1,0,1
 541 379 541 379 538 379 c 0,2,3
 534 379 534 379 530 374 c 0,4,5
 527 369 527 369 524 368 c 0,6,7
 520 365 520 365 513 364 c 256,8,9
 506 363 506 363 500 360 c 0,10,11
 498 359 498 359 495 356 c 0,12,13
 493 354 493 354 491 352 c 0,14,15
 481 347 481 347 460 345 c 0,16,17
 440 343 440 343 418 343 c 0,18,19
 403 343 403 343 388 343 c 256,20,21
 373 343 373 343 361 345 c 0,22,23
 350 345 350 345 341 349 c 0,24,25
 332 352 332 352 321 352 c 0,26,27
 316 352 316 352 314 350 c 0,28,29
 311 349 311 349 308 349 c 0,30,31
 304 349 304 349 302 350 c 0,32,33
 300 352 300 352 298 352 c 0,34,35
 290 352 290 352 284 350 c 0,36,37
 279 349 279 349 272 349 c 0,38,39
 263 349 263 349 254 350 c 0,40,41
 246 352 246 352 241 352 c 0,42,43
 239 352 239 352 236 349 c 0,44,45
 233 345 233 345 229 341 c 0,46,47
 225 336 225 336 221 333 c 0,48,49
 218 329 218 329 215 329 c 0,50,51
 214 329 214 329 212 329 c 0,52,53
 211 329 211 329 210 329 c 1,54,55
 211 329 211 329 202 321 c 0,56,57
 193 312 193 312 181 301 c 0,58,59
 169 289 169 289 159 278 c 256,60,61
 149 267 149 267 148 261 c 0,62,63
 147 258 147 258 150 258 c 0,64,65
 160 258 160 258 167 263 c 0,66,67
 175 269 175 269 184 272 c 0,68,69
 195 275 195 275 211 277 c 0,70,71
 228 278 228 278 243 278 c 0,72,73
 260 278 260 278 270 277 c 0,74,75
 281 275 281 275 286 275 c 0,76,77
 300 275 300 275 312 276 c 256,78,79
 324 277 324 277 333 277 c 0,80,81
 347 277 347 277 367 275 c 256,82,83
 387 273 387 273 408 273 c 0,84,85
 417 273 417 273 422 273 c 256,86,87
 427 273 427 273 432 274 c 0,88,89
 438 276 438 276 442 279 c 256,90,91
 446 282 446 282 453 287 c 0,92,93
 465 298 465 298 478 308 c 0,94,95
 492 319 492 319 504 329 c 256,96,97
 516 339 516 339 527 350 c 0,98,99
 537 362 537 362 544 375 c 1,100,-1
 544 375 l 1,0,1
EndSplineSet
EndChar

StartChar: period
Encoding: 46 46 17
Width: 193
VWidth: 1024
Flags: W
LayerCount: 2
Fore
SplineSet
166 83 m 1,0,1
 165 88 165 88 163 90 c 0,2,3
 160 92 160 92 156 93 c 0,4,5
 153 93 153 93 148 94 c 0,6,7
 144 94 144 94 140 97 c 0,8,9
 139 97 139 97 139 99 c 0,10,11
 139 100 139 100 138 102 c 0,12,13
 138 104 138 104 137 105 c 256,14,15
 136 106 136 106 133 106 c 0,16,17
 129 106 129 106 126 104 c 256,18,19
 123 102 123 102 122 101 c 0,20,21
 106 98 106 98 97 90 c 256,22,23
 88 82 88 82 83 72 c 0,24,25
 81 67 81 67 78 58 c 0,26,27
 74 48 74 48 70 37 c 0,28,29
 67 26 67 26 64 15 c 0,30,31
 60 4 60 4 59 -3 c 0,32,33
 57 -17 57 -17 61 -25 c 0,34,35
 65 -32 65 -32 80 -32 c 0,36,37
 91 -32 91 -32 100 -24 c 0,38,39
 108 -15 108 -15 116 -2 c 0,40,41
 123 11 123 11 131 26 c 0,42,43
 138 41 138 41 147 54 c 0,44,45
 151 60 151 60 158 64 c 0,46,47
 164 68 164 68 165 77 c 0,48,49
 166 81 166 81 166 83 c 1,50,-1
 166 83 l 1,0,1
EndSplineSet
EndChar

StartChar: slash
Encoding: 47 47 18
Width: 485
VWidth: 1024
Flags: W
LayerCount: 2
Fore
SplineSet
697 795 m 1,0,1
 699 799 699 799 703 805 c 0,2,3
 707 812 707 812 709 819 c 0,4,5
 709 822 709 822 708 827 c 0,6,7
 707 833 707 833 701 833 c 0,8,9
 690 833 690 833 686 827 c 256,10,11
 682 821 682 821 678 818 c 0,12,13
 672 815 672 815 666 814 c 0,14,15
 659 812 659 812 652 809 c 0,16,17
 646 806 646 806 641 802 c 0,18,19
 637 798 637 798 631 795 c 0,20,21
 616 786 616 786 602 779 c 0,22,23
 588 773 588 773 583 766 c 256,24,25
 578 759 578 759 573 745 c 256,26,27
 568 731 568 731 560 719 c 0,28,29
 552 704 552 704 545 692 c 0,30,31
 537 680 537 680 532 669 c 0,32,33
 526 659 526 659 520 649 c 0,34,35
 513 639 513 639 506 628 c 0,36,37
 485 594 485 594 461 564 c 0,38,39
 438 533 438 533 417 500 c 0,40,41
 410 488 410 488 404 476 c 256,42,43
 398 464 398 464 391 453 c 0,44,45
 382 441 382 441 374 431 c 256,46,47
 366 421 366 421 359 410 c 0,48,49
 328 365 328 365 300 322 c 256,50,51
 272 279 272 279 243 239 c 0,52,53
 228 219 228 219 212 198 c 0,54,55
 196 178 196 178 181 158 c 0,56,57
 177 153 177 153 174 146 c 0,58,59
 172 139 172 139 167 134 c 0,60,61
 167 133 167 133 163 132 c 256,62,63
 159 131 159 131 158 130 c 0,64,65
 155 127 155 127 154 122 c 0,66,67
 153 118 153 118 150 116 c 0,68,69
 149 114 149 114 145 113 c 0,70,71
 141 113 141 113 140 111 c 0,72,73
 138 109 138 109 136 102 c 0,74,75
 134 96 134 96 132 96 c 0,76,77
 131 96 131 96 130 96 c 0,78,79
 129 97 129 97 128 97 c 256,80,81
 127 97 127 97 127 95 c 0,82,83
 127 94 127 94 127 92 c 256,84,85
 127 90 127 90 127 89 c 0,86,87
 127 86 127 86 124 86 c 0,88,89
 123 86 123 86 121 87 c 0,90,91
 119 87 119 87 118 87 c 0,92,93
 115 87 115 87 113 84 c 256,94,95
 111 81 111 81 111 78 c 0,96,97
 109 73 109 73 108 68 c 0,98,99
 107 66 107 66 107 64 c 256,100,101
 107 62 107 62 107 60 c 0,102,103
 105 48 105 48 99 43 c 0,104,105
 92 39 92 39 88 34 c 0,106,107
 86 31 86 31 85 27 c 0,108,109
 84 24 84 24 81 20 c 0,110,111
 73 13 73 13 66 7 c 0,112,113
 59 2 59 2 53 -8 c 0,114,115
 48 -14 48 -14 43 -17 c 0,116,117
 39 -20 39 -20 35 -22 c 0,118,119
 31 -25 31 -25 27 -28 c 0,120,121
 24 -32 24 -32 23 -38 c 0,122,123
 23 -39 23 -39 24 -45 c 0,124,125
 24 -51 24 -51 27 -57 c 0,126,127
 31 -64 31 -64 37 -69 c 256,128,129
 43 -74 43 -74 53 -74 c 0,130,131
 64 -74 64 -74 70 -67 c 256,132,133
 76 -60 76 -60 82 -51 c 0,134,135
 88 -41 88 -41 93 -29 c 0,136,137
 98 -18 98 -18 105 -8 c 0,138,139
 125 22 125 22 138 39 c 0,140,141
 151 55 151 55 161 68 c 0,142,143
 181 96 181 96 198 121 c 0,144,145
 216 146 216 146 231 168 c 0,146,147
 235 175 235 175 242 188 c 0,148,149
 249 200 249 200 257 211 c 0,150,151
 260 214 260 214 266 218 c 0,152,153
 271 221 271 221 274 225 c 0,154,155
 279 231 279 231 281 237 c 0,156,157
 283 242 283 242 287 248 c 0,158,159
 291 252 291 252 295 255 c 0,160,161
 300 258 300 258 304 263 c 0,162,163
 313 274 313 274 318 282 c 0,164,165
 324 291 324 291 324 291 c 2,166,167
 343 321 343 321 363 347 c 0,168,169
 383 372 383 372 405 401 c 0,170,171
 419 420 419 420 433 439 c 0,172,173
 446 459 446 459 461 476 c 0,174,175
 464 481 464 481 469 483 c 0,176,177
 474 486 474 486 478 490 c 0,178,179
 481 495 481 495 484 502 c 256,180,181
 487 509 487 509 491 515 c 0,182,183
 493 516 493 516 498 520 c 0,184,185
 502 524 502 524 503 525 c 0,186,187
 503 527 503 527 503 529 c 0,188,189
 503 530 503 530 503 532 c 1,190,191
 504 532 504 532 504 533 c 0,192,193
 509 539 509 539 513 542 c 0,194,195
 517 544 517 544 520 546 c 0,196,197
 523 549 523 549 526 553 c 256,198,199
 529 557 529 557 534 567 c 0,200,201
 540 581 540 581 544 588 c 0,202,203
 549 595 549 595 555 604 c 0,204,205
 562 614 562 614 569 626 c 0,206,207
 577 637 577 637 585 649 c 0,208,209
 592 660 592 660 600 670 c 256,210,211
 608 680 608 680 616 686 c 1,212,-1
 616 687 l 2,213,214
 617 688 617 688 617 690 c 256,215,216
 617 692 617 692 617 693 c 0,217,218
 618 698 618 698 624 705 c 256,219,220
 630 712 630 712 636 719 c 0,221,222
 643 726 643 726 649 730 c 0,223,224
 654 735 654 735 654 735 c 2,225,226
 655 738 655 738 655 740 c 0,227,228
 654 742 654 742 654 744 c 0,229,230
 655 746 655 746 656 747 c 0,231,232
 661 754 661 754 667 759 c 0,233,234
 672 765 672 765 678 771 c 0,235,236
 684 776 684 776 689 782 c 0,237,238
 694 787 694 787 697 795 c 1,239,-1
 697 795 l 1,0,1
EndSplineSet
EndChar

StartChar: zero
Encoding: 48 48 19
Width: 556
VWidth: 1024
Flags: W
LayerCount: 2
Fore
SplineSet
555 509 m 1,0,1
 555 497 555 497 553 486 c 0,2,3
 551 474 551 474 550 461 c 0,4,5
 545 437 545 437 538 412 c 0,6,7
 532 386 532 386 523 357 c 0,8,9
 520 347 520 347 518 338 c 256,10,11
 516 329 516 329 513 320 c 0,12,13
 510 310 510 310 506 298 c 0,14,15
 502 287 502 287 494 272 c 2,16,-1
 464 205 l 2,17,18
 459 196 459 196 458 193 c 0,19,20
 458 190 458 190 455 186 c 0,21,22
 453 181 453 181 446 170 c 0,23,24
 439 160 439 160 422 134 c 0,25,26
 415 122 415 122 410 115 c 0,27,28
 406 108 406 108 401 103 c 0,29,30
 397 98 397 98 390 93 c 0,31,32
 384 88 384 88 371 82 c 0,33,34
 366 79 366 79 363 80 c 0,35,36
 359 80 359 80 356 78 c 0,37,38
 352 74 352 74 350 71 c 0,39,40
 348 67 348 67 339 67 c 0,41,42
 336 67 336 67 332 67 c 256,43,44
 328 67 328 67 325 67 c 0,45,46
 319 67 319 67 313 66 c 0,47,48
 307 64 307 64 300 64 c 2,49,50
 300 64 300 64 295 66 c 0,51,52
 289 67 289 67 283 70 c 0,53,54
 276 72 276 72 271 77 c 0,55,56
 266 81 266 81 267 87 c 0,57,58
 267 93 267 93 264 99 c 0,59,60
 261 104 261 104 257 109 c 256,61,62
 253 114 253 114 250 118 c 0,63,64
 246 122 246 122 246 125 c 0,65,66
 243 132 243 132 244 142 c 0,67,68
 245 151 245 151 242 163 c 0,69,70
 242 168 242 168 238 171 c 256,71,72
 234 174 234 174 235 179 c 0,73,74
 235 180 235 180 236 182 c 0,75,76
 237 183 237 183 237 184 c 0,77,78
 238 191 238 191 237 200 c 0,79,80
 237 210 237 210 236 221 c 256,81,82
 235 232 235 232 235 244 c 256,83,84
 235 256 235 256 237 268 c 0,85,86
 239 276 239 276 241 278 c 0,87,88
 244 279 244 279 246 285 c 0,89,90
 246 288 246 288 244 287 c 0,91,92
 241 287 241 287 242 291 c 0,93,94
 245 305 245 305 252 320 c 0,95,96
 259 336 259 336 261 349 c 0,97,98
 262 352 262 352 262 353 c 0,99,100
 261 355 261 355 262 357 c 0,101,102
 262 359 262 359 265 368 c 0,103,104
 267 377 267 377 270 390 c 0,105,106
 273 402 273 402 278 415 c 0,107,108
 282 429 282 429 286 438 c 0,109,110
 287 438 287 438 289 440 c 0,111,112
 292 442 292 442 292 445 c 2,113,-1
 293 450 l 2,114,115
 294 457 294 457 300 471 c 0,116,117
 305 485 305 485 312 500 c 0,118,119
 314 504 314 504 318 508 c 0,120,121
 322 511 322 511 324 515 c 0,122,123
 327 521 327 521 328 529 c 0,124,125
 329 536 329 536 334 543 c 0,126,127
 335 544 335 544 339 548 c 0,128,129
 343 551 343 551 344 552 c 0,130,131
 348 559 348 559 348 566 c 0,132,133
 349 573 349 573 354 581 c 0,134,135
 356 582 356 582 360 583 c 256,136,137
 364 584 364 584 364 586 c 0,138,139
 368 592 368 592 369 598 c 0,140,141
 370 605 370 605 374 609 c 0,142,143
 375 611 375 611 381 616 c 0,144,145
 387 620 387 620 391 623 c 0,146,147
 394 626 394 626 399 633 c 256,148,149
 404 640 404 640 410 647 c 0,150,151
 416 653 416 653 422 659 c 0,152,153
 427 664 427 664 431 666 c 0,154,155
 434 667 434 667 438 668 c 0,156,157
 443 669 443 669 448 670 c 0,158,159
 453 670 453 670 457 671 c 0,160,161
 460 671 460 671 460 671 c 2,162,163
 462 671 462 671 464 673 c 256,164,165
 466 675 466 675 469 675 c 0,166,167
 481 675 481 675 490 672 c 0,168,169
 499 668 499 668 506 662 c 0,170,171
 514 656 514 656 520 647 c 0,172,173
 527 639 527 639 534 628 c 0,174,175
 538 623 538 623 541 619 c 0,176,177
 544 614 544 614 546 609 c 256,178,179
 548 604 548 604 550 595 c 0,180,181
 551 586 551 586 552 571 c 0,182,183
 552 568 552 568 555 564 c 0,184,185
 558 559 558 559 558 557 c 0,186,187
 560 547 560 547 558 535 c 0,188,189
 556 522 556 522 555 509 c 1,190,-1
 555 509 l 1,0,1
621 372 m 1,191,192
 625 384 625 384 628 397 c 256,193,194
 631 410 631 410 633 424 c 0,195,196
 641 469 641 469 643 508 c 0,197,198
 646 547 646 547 645 576 c 256,199,200
 644 605 644 605 641 623 c 0,201,202
 638 640 638 640 636 642 c 0,203,204
 635 642 635 642 636 644 c 0,205,206
 636 646 636 646 637 648 c 0,207,208
 637 650 637 650 638 651 c 2,209,-1
 638 652 l 1,210,211
 633 663 633 663 624 675 c 0,212,213
 614 688 614 688 604 700 c 0,214,215
 596 708 596 708 589 716 c 0,216,217
 583 724 583 724 574 730 c 0,218,219
 566 735 566 735 557 739 c 0,220,221
 547 742 547 742 534 742 c 0,222,223
 525 742 525 742 522 740 c 0,224,225
 520 737 520 737 519 737 c 0,226,227
 512 736 512 736 508 735 c 0,228,229
 504 733 504 733 500 732 c 0,230,231
 497 730 497 730 493 728 c 0,232,233
 490 726 490 726 483 723 c 0,234,235
 474 719 474 719 467 718 c 0,236,237
 459 717 459 717 453 714 c 0,238,239
 448 710 448 710 441 704 c 0,240,241
 434 697 434 697 426 690 c 0,242,243
 419 685 419 685 410 681 c 0,244,245
 401 676 401 676 394 671 c 0,246,247
 383 663 383 663 371 654 c 256,248,249
 359 645 359 645 349 637 c 0,250,251
 338 628 338 628 329 621 c 0,252,253
 321 614 321 614 317 609 c 0,254,255
 311 604 311 604 307 597 c 256,256,257
 303 590 303 590 298 586 c 0,258,259
 296 584 296 584 293 583 c 0,260,261
 290 583 290 583 287 581 c 0,262,263
 284 578 284 578 284 573 c 0,264,265
 284 569 284 569 280 566 c 0,266,267
 277 564 277 564 273 564 c 0,268,269
 268 564 268 564 266 562 c 0,270,271
 262 559 262 559 262 555 c 0,272,273
 261 551 261 551 258 548 c 0,274,275
 251 537 251 537 247 532 c 0,276,277
 244 526 244 526 242 522 c 0,278,279
 240 517 240 517 239 513 c 0,280,281
 239 508 239 508 235 500 c 0,282,283
 235 498 235 498 229 494 c 0,284,285
 224 490 224 490 223 487 c 0,286,287
 223 486 223 486 223 484 c 256,288,289
 223 482 223 482 223 481 c 0,290,291
 219 470 219 470 215 463 c 0,292,293
 210 457 210 457 207 448 c 0,294,295
 207 442 207 442 203 434 c 0,296,297
 199 427 199 427 195 419 c 0,298,299
 191 412 191 412 188 405 c 0,300,301
 184 398 184 398 184 396 c 0,302,303
 175 377 175 377 170 364 c 256,304,305
 165 351 165 351 161 340 c 0,306,307
 158 329 158 329 155 318 c 0,308,309
 153 307 153 307 150 292 c 0,310,311
 146 271 146 271 143 248 c 0,312,313
 139 225 139 225 137 202 c 256,314,315
 135 179 135 179 134 158 c 256,316,317
 133 137 133 137 135 120 c 0,318,319
 135 119 135 119 135 116 c 0,320,321
 134 113 134 113 134 111 c 0,322,323
 133 108 133 108 132 106 c 0,324,325
 132 93 132 93 133 88 c 0,326,327
 134 82 134 82 137 78 c 0,328,329
 139 74 139 74 143 71 c 0,330,331
 148 67 148 67 153 59 c 0,332,333
 158 52 158 52 161 42 c 0,334,335
 164 33 164 33 167 30 c 0,336,337
 169 28 169 28 174 27 c 0,338,339
 178 26 178 26 180 25 c 0,340,341
 183 24 183 24 184 20 c 0,342,343
 186 17 186 17 188 16 c 0,344,345
 194 11 194 11 201 8 c 256,346,347
 208 5 208 5 214 1 c 0,348,349
 221 -3 221 -3 225 -8 c 0,350,351
 230 -12 230 -12 234 -16 c 0,352,353
 239 -19 239 -19 245 -22 c 256,354,355
 251 -25 251 -25 262 -27 c 0,356,357
 272 -27 272 -27 281 -21 c 0,358,359
 290 -16 290 -16 299 -9 c 0,360,361
 307 -1 307 -1 315 7 c 256,362,363
 323 15 323 15 331 20 c 0,364,365
 340 27 340 27 347 31 c 256,366,367
 354 35 354 35 360 38 c 256,368,369
 366 41 366 41 370 43 c 0,370,371
 375 46 375 46 380 49 c 0,372,373
 382 50 382 50 383 54 c 0,374,375
 384 57 384 57 385 59 c 0,376,377
 391 62 391 62 397 64 c 256,378,379
 403 66 403 66 406 67 c 0,380,381
 414 74 414 74 423 83 c 0,382,383
 431 93 431 93 441 101 c 0,384,385
 453 111 453 111 465 123 c 0,386,387
 478 135 478 135 490 146 c 256,388,389
 502 157 502 157 513 168 c 0,390,391
 523 178 523 178 532 187 c 0,392,393
 539 195 539 195 550 211 c 0,394,395
 560 226 560 226 569 243 c 0,396,397
 579 259 579 259 586 274 c 256,398,399
 593 289 593 289 594 294 c 0,400,401
 594 296 594 296 594 299 c 0,402,403
 594 301 594 301 595 303 c 2,404,-1
 595 305 l 1,405,406
 602 324 602 324 610 341 c 0,407,408
 618 359 618 359 621 372 c 1,409,-1
 621 372 l 1,191,192
EndSplineSet
EndChar

StartChar: one
Encoding: 49 49 20
Width: 359
VWidth: 1024
Flags: W
LayerCount: 2
Fore
SplineSet
465 728 m 1,0,1
 464 730 464 730 459 731 c 0,2,3
 454 733 454 733 447 733 c 0,4,5
 441 733 441 733 438 731 c 0,6,7
 434 728 434 728 432 725 c 0,8,9
 429 723 429 723 427 720 c 0,10,11
 425 718 425 718 422 718 c 0,12,13
 421 718 421 718 419 718 c 0,14,15
 417 719 417 719 415 719 c 0,16,17
 414 719 414 719 412 715 c 0,18,19
 411 710 411 710 408 709 c 0,20,21
 366 672 366 672 325 636 c 256,22,23
 284 600 284 600 240 562 c 0,24,25
 237 559 237 559 232 556 c 0,26,27
 226 552 226 552 220 549 c 0,28,29
 215 546 215 546 211 542 c 0,30,31
 207 539 207 539 207 536 c 0,32,33
 206 535 206 535 206 533 c 256,34,35
 206 531 206 531 206 530 c 0,36,37
 205 527 205 527 204 526 c 0,38,39
 202 525 202 525 199 524 c 0,40,41
 197 523 197 523 194 521 c 0,42,43
 192 518 192 518 191 512 c 0,44,45
 190 505 190 505 194 502 c 0,46,47
 198 500 198 500 202 500 c 0,48,49
 207 500 207 500 212 504 c 0,50,51
 218 509 218 509 228 515 c 0,52,53
 243 525 243 525 255 536 c 0,54,55
 267 548 267 548 278 559 c 0,56,57
 288 570 288 570 300 579 c 0,58,59
 311 589 311 589 327 595 c 1,60,-1
 325 584 l 2,61,62
 321 560 321 560 310 531 c 0,63,64
 300 503 300 503 291 472 c 0,65,66
 278 427 278 427 267 388 c 256,67,68
 256 349 256 349 246 313 c 0,69,70
 235 277 235 277 225 242 c 0,71,72
 216 208 216 208 205 172 c 0,73,74
 204 169 204 169 201 167 c 0,75,76
 199 164 199 164 198 163 c 0,77,78
 191 144 191 144 189 128 c 256,79,80
 187 112 187 112 181 92 c 0,81,82
 176 74 176 74 165 53 c 0,83,84
 155 33 155 33 149 20 c 0,85,86
 149 17 149 17 151 15 c 256,87,88
 153 13 153 13 153 11 c 1,89,90
 152 11 152 11 150 9 c 0,91,92
 148 8 148 8 146 6 c 256,93,94
 144 4 144 4 143 3 c 0,95,96
 141 1 141 1 141 1 c 2,97,98
 135 -3 135 -3 122 -3 c 256,99,100
 109 -3 109 -3 96 -4 c 256,101,102
 83 -5 83 -5 72 -9 c 0,103,104
 61 -12 61 -12 59 -22 c 0,105,106
 55 -43 55 -43 87 -43 c 0,107,108
 90 -43 90 -43 93 -42 c 0,109,110
 97 -42 97 -42 101 -41 c 0,111,112
 104 -41 104 -41 108 -39 c 0,113,114
 111 -37 111 -37 116 -34 c 256,115,116
 121 -31 121 -31 127 -29 c 0,117,118
 134 -27 134 -27 141 -27 c 0,119,120
 152 -27 152 -27 159 -32 c 256,121,122
 166 -37 166 -37 175 -37 c 0,123,124
 181 -37 181 -37 187 -34 c 0,125,126
 194 -31 194 -31 201 -27 c 0,127,128
 208 -24 208 -24 215 -19 c 0,129,130
 223 -15 223 -15 229 -13 c 0,131,132
 242 -8 242 -8 259 -5 c 0,133,134
 275 -2 275 -2 292 2 c 0,135,136
 308 5 308 5 321 10 c 0,137,138
 333 16 333 16 336 25 c 1,139,140
 329 32 329 32 317 32 c 256,141,142
 305 32 305 32 290 27 c 256,143,144
 275 22 275 22 265 22 c 0,145,146
 257 22 257 22 254 26 c 0,147,148
 251 31 251 31 254 45 c 0,149,150
 258 64 258 64 263 85 c 0,151,152
 269 106 269 106 276 126 c 0,153,154
 284 146 284 146 291 163 c 0,155,156
 298 181 298 181 303 191 c 0,157,158
 305 199 305 199 304 205 c 256,159,160
 303 211 303 211 303 218 c 2,161,162
 303 218 303 218 307 226 c 0,163,164
 311 233 311 233 315 243 c 0,165,166
 319 252 319 252 323 262 c 256,167,168
 327 272 327 272 328 275 c 0,169,170
 328 279 328 279 328 282 c 256,171,172
 328 285 328 285 328 287 c 0,173,174
 329 296 329 296 334 310 c 256,175,176
 339 324 339 324 343 338 c 0,177,178
 350 361 350 361 358 386 c 0,179,180
 365 412 365 412 372 436 c 0,181,182
 380 461 380 461 387 485 c 0,183,184
 394 508 394 508 401 529 c 0,185,186
 406 541 406 541 411 552 c 0,187,188
 417 564 417 564 419 576 c 0,189,190
 420 585 420 585 422 595 c 0,191,192
 423 605 423 605 425 616 c 0,193,194
 427 633 427 633 434 648 c 0,195,196
 441 664 441 664 447 677 c 0,197,198
 453 691 453 691 459 701 c 0,199,200
 465 712 465 712 466 719 c 0,201,202
 467 724 467 724 465 728 c 1,203,-1
 465 728 l 1,0,1
EndSplineSet
EndChar

StartChar: two
Encoding: 50 50 21
Width: 462
VWidth: 1024
Flags: W
LayerCount: 2
Fore
SplineSet
567 509 m 1,0,1
 570 518 570 518 572 528 c 0,2,3
 574 537 574 537 576 546 c 0,4,5
 582 581 582 581 580 613 c 0,6,7
 579 646 579 646 576 671 c 0,8,9
 576 672 576 672 574 673 c 256,10,11
 572 674 572 674 572 677 c 256,12,13
 572 680 572 680 573 682 c 256,14,15
 574 684 574 684 574 686 c 0,16,17
 577 700 577 700 574 711 c 0,18,19
 572 723 572 723 568 730 c 0,20,21
 564 738 564 738 560 743 c 0,22,23
 557 747 557 747 557 747 c 1,24,25
 552 747 552 747 548 745 c 0,26,27
 544 742 544 742 541 742 c 0,28,29
 536 742 536 742 529 744 c 0,30,31
 522 747 522 747 518 747 c 256,32,33
 514 747 514 747 510 741 c 256,34,35
 506 735 506 735 502 733 c 0,36,37
 495 730 495 730 488 729 c 0,38,39
 480 728 480 728 471 723 c 0,40,41
 464 720 464 720 460 718 c 256,42,43
 456 716 456 716 451 714 c 0,44,45
 450 713 450 713 448 709 c 256,46,47
 446 705 446 705 444 704 c 0,48,49
 440 702 440 702 437 702 c 0,50,51
 433 702 433 702 429 700 c 0,52,53
 423 695 423 695 418 689 c 0,54,55
 412 683 412 683 407 681 c 0,56,57
 402 678 402 678 397 678 c 0,58,59
 392 679 392 679 387 675 c 0,60,61
 382 672 382 672 376 667 c 0,62,63
 370 661 370 661 364 657 c 0,64,65
 358 652 358 652 347 643 c 0,66,67
 335 635 335 635 324 626 c 0,68,69
 312 616 312 616 302 608 c 256,70,71
 292 600 292 600 287 595 c 0,72,73
 284 591 284 591 281 582 c 0,74,75
 279 573 279 573 273 566 c 0,76,77
 254 540 254 540 240 510 c 0,78,79
 227 480 227 480 221 447 c 0,80,81
 218 431 218 431 219 418 c 0,82,83
 221 405 221 405 228 405 c 0,84,85
 233 405 233 405 242 410 c 256,86,87
 251 415 251 415 260 421 c 0,88,89
 268 427 268 427 275 432 c 0,90,91
 282 438 282 438 283 438 c 0,92,93
 294 445 294 445 304 450 c 256,94,95
 314 455 314 455 321 460 c 0,96,97
 328 466 328 466 333 471 c 256,98,99
 338 476 338 476 339 484 c 256,100,101
 340 492 340 492 340 504 c 256,102,103
 340 516 340 516 341 522 c 0,104,105
 343 537 343 537 348 550 c 0,106,107
 352 564 352 564 354 571 c 0,108,109
 355 575 355 575 357 575 c 256,110,111
 359 575 359 575 361 576 c 0,112,113
 364 584 364 584 365 588 c 256,114,115
 366 592 366 592 368 596 c 256,116,117
 370 600 370 600 374 606 c 256,118,119
 378 612 378 612 387 623 c 0,120,121
 394 632 394 632 400 638 c 0,122,123
 405 644 405 644 410 649 c 0,124,125
 415 653 415 653 422 656 c 0,126,127
 428 660 428 660 436 661 c 0,128,129
 443 663 443 663 445 667 c 0,130,131
 448 672 448 672 453 672 c 256,132,133
 458 672 458 672 462 656 c 0,134,135
 467 641 467 641 469 619 c 0,136,137
 472 596 472 596 472 571 c 0,138,139
 472 545 472 545 468 525 c 0,140,141
 463 495 463 495 452 476 c 0,142,143
 450 472 450 472 446 469 c 0,144,145
 441 466 441 466 440 462 c 0,146,147
 434 452 434 452 431 442 c 0,148,149
 429 431 429 431 423 424 c 0,150,151
 413 409 413 409 398 398 c 0,152,153
 382 387 382 387 367 372 c 0,154,155
 366 371 366 371 366 370 c 0,156,157
 366 368 366 368 366 366 c 256,158,159
 366 364 366 364 366 363 c 0,160,161
 353 354 353 354 342 346 c 0,162,163
 333 339 333 339 324 332 c 0,164,165
 315 324 315 324 310 319 c 0,166,167
 308 317 308 317 307 313 c 0,168,169
 305 308 305 308 303 305 c 0,170,171
 300 302 300 302 297 301 c 0,172,173
 294 299 294 299 292 296 c 0,174,175
 286 289 286 289 282 283 c 0,176,177
 279 277 279 277 273 272 c 0,178,179
 262 260 262 260 251 253 c 0,180,181
 239 245 239 245 229 234 c 0,182,183
 226 231 226 231 225 227 c 256,184,185
 224 223 224 223 221 220 c 0,186,187
 214 211 214 211 204 205 c 0,188,189
 195 198 195 198 188 191 c 0,190,191
 184 187 184 187 180 181 c 0,192,193
 176 174 176 174 171 168 c 0,194,195
 167 162 167 162 163 156 c 0,196,197
 159 151 159 151 156 149 c 0,198,199
 148 141 148 141 138 133 c 256,200,201
 128 125 128 125 123 120 c 0,202,203
 120 117 120 117 119 113 c 0,204,205
 119 109 119 109 116 106 c 0,206,207
 112 102 112 102 108 99 c 0,208,209
 104 97 104 97 99 92 c 0,210,211
 95 86 95 86 93 80 c 256,212,213
 91 74 91 74 85 67 c 0,214,215
 82 64 82 64 77 61 c 0,216,217
 73 58 73 58 69 53 c 0,218,219
 64 48 64 48 58 40 c 256,220,221
 52 32 52 32 47 25 c 0,222,223
 42 17 42 17 38 10 c 256,224,225
 34 3 34 3 33 -3 c 0,226,227
 32 -11 32 -11 38 -14 c 0,228,229
 45 -17 45 -17 48 -17 c 0,230,231
 56 -17 56 -17 66 -13 c 0,232,233
 76 -10 76 -10 88 -5 c 0,234,235
 100 -1 100 -1 113 3 c 256,236,237
 126 7 126 7 140 7 c 0,238,239
 162 7 162 7 181 2 c 256,240,241
 200 -3 200 -3 215 -4 c 0,242,243
 223 -4 223 -4 232 -1 c 0,244,245
 242 1 242 1 254 1 c 0,246,247
 258 1 258 1 264 -2 c 0,248,249
 269 -4 269 -4 279 -4 c 0,250,251
 287 -4 287 -4 295 -3 c 0,252,253
 302 -1 302 -1 310 1 c 0,254,255
 322 4 322 4 329 5 c 0,256,257
 335 6 335 6 339 8 c 0,258,259
 343 9 343 9 347 12 c 0,260,261
 350 15 350 15 357 20 c 0,262,263
 361 24 361 24 365 31 c 0,264,265
 370 37 370 37 374 44 c 0,266,267
 378 50 378 50 382 56 c 0,268,269
 385 61 385 61 388 63 c 2,270,-1
 389 64 l 1,271,272
 389 64 389 64 389 64 c 257,273,274
 389 64 389 64 389 65 c 256,275,276
 389 66 389 66 389 68 c 256,277,278
 389 70 389 70 390 71 c 0,279,280
 390 72 390 72 392 75 c 256,281,282
 394 78 394 78 397 81 c 0,283,284
 399 84 399 84 401 86 c 256,285,286
 403 88 403 88 403 88 c 2,287,288
 403 90 403 90 403 92 c 0,289,290
 403 93 403 93 403 95 c 0,291,292
 403 99 403 99 407 102 c 0,293,294
 411 106 411 106 415 108 c 0,295,296
 420 111 420 111 423 114 c 0,297,298
 427 116 427 116 427 119 c 0,299,300
 428 121 428 121 428 124 c 0,301,302
 427 127 427 127 428 130 c 0,303,304
 429 135 429 135 433 139 c 0,305,306
 438 144 438 144 443 148 c 0,307,308
 448 151 448 151 453 155 c 0,309,310
 457 159 457 159 458 163 c 0,311,312
 459 174 459 174 454 177 c 0,313,314
 450 180 450 180 446 180 c 0,315,316
 436 180 436 180 426 167 c 0,317,318
 415 155 415 155 403 138 c 256,319,320
 391 121 391 121 377 105 c 0,321,322
 364 89 364 89 349 82 c 0,323,324
 344 80 344 80 334 78 c 0,325,326
 324 75 324 75 312 73 c 256,327,328
 300 71 300 71 288 69 c 0,329,330
 277 67 277 67 271 67 c 0,331,332
 261 67 261 67 253 72 c 0,333,334
 244 76 244 76 240 78 c 0,335,336
 235 79 235 79 225 79 c 0,337,338
 216 80 216 80 206 82 c 0,339,340
 197 83 197 83 190 86 c 0,341,342
 184 89 184 89 184 94 c 0,343,344
 185 98 185 98 188 104 c 0,345,346
 191 109 191 109 196 116 c 0,347,348
 200 123 200 123 205 130 c 0,349,350
 209 137 209 137 213 144 c 0,351,352
 230 174 230 174 244 194 c 256,353,354
 258 214 258 214 271 228 c 0,355,356
 283 242 283 242 295 252 c 0,357,358
 308 262 308 262 321 272 c 0,359,360
 343 289 343 289 356 305 c 256,361,362
 369 321 369 321 384 334 c 0,363,364
 389 338 389 338 394 341 c 256,365,366
 399 344 399 344 405 348 c 0,367,368
 438 371 438 371 468 396 c 0,369,370
 498 422 498 422 522 443 c 0,371,372
 525 446 525 446 526 450 c 0,373,374
 526 454 526 454 529 457 c 0,375,376
 535 463 535 463 542 467 c 0,377,378
 549 472 549 472 551 476 c 0,379,380
 556 484 556 484 557 489 c 0,381,382
 559 494 559 494 561 500 c 0,383,384
 561 503 561 503 564 506 c 0,385,386
 567 508 567 508 567 509 c 1,387,-1
 567 509 l 1,0,1
EndSplineSet
EndChar

StartChar: three
Encoding: 51 51 22
Width: 482
VWidth: 1024
Flags: W
LayerCount: 2
Fore
SplineSet
621 723 m 1,0,1
 618 726 618 726 613 727 c 0,2,3
 609 728 609 728 603 728 c 256,4,5
 597 728 597 728 594 727 c 0,6,7
 591 725 591 725 588 723 c 0,8,9
 586 721 586 721 583 719 c 256,10,11
 580 717 580 717 576 717 c 256,12,13
 572 717 572 717 569 718 c 0,14,15
 565 719 565 719 562 719 c 0,16,17
 550 719 550 719 541 714 c 256,18,19
 532 709 532 709 523 709 c 0,20,21
 510 709 510 709 496 711 c 0,22,23
 482 714 482 714 469 714 c 2,24,-1
 443 714 l 2,25,26
 427 714 427 714 418 715 c 256,27,28
 409 716 409 716 403 716 c 0,29,30
 392 716 392 716 381 709 c 0,31,32
 370 703 370 703 360 694 c 256,33,34
 350 685 350 685 341 674 c 0,35,36
 331 662 331 662 324 652 c 256,37,38
 317 642 317 642 303 630 c 256,39,40
 289 618 289 618 274 604 c 0,41,42
 260 591 260 591 248 578 c 0,43,44
 237 564 237 564 235 554 c 0,45,46
 235 552 235 552 237 550 c 0,47,48
 239 549 239 549 242 547 c 0,49,50
 245 546 245 546 248 545 c 0,51,52
 252 544 252 544 253 544 c 0,53,54
 256 544 256 544 265 552 c 0,55,56
 273 561 273 561 281 571 c 0,57,58
 290 582 290 582 298 592 c 0,59,60
 307 602 307 602 310 604 c 0,61,62
 322 613 322 613 338 618 c 256,63,64
 354 623 354 623 371 626 c 0,65,66
 389 628 389 628 409 628 c 0,67,68
 429 629 429 629 450 629 c 0,69,70
 461 629 461 629 470 628 c 0,71,72
 480 628 480 628 485 623 c 1,73,74
 476 612 476 612 473 606 c 0,75,76
 469 600 469 600 466 595 c 0,77,78
 463 593 463 593 459 589 c 0,79,80
 454 586 454 586 449 582 c 0,81,82
 444 579 444 579 440 575 c 0,83,84
 437 572 437 572 436 569 c 0,85,86
 436 568 436 568 436 566 c 256,87,88
 436 564 436 564 436 563 c 0,89,90
 436 561 436 561 432 558 c 0,91,92
 429 555 429 555 426 552 c 0,93,94
 422 550 422 550 418 547 c 0,95,96
 415 544 415 544 414 543 c 0,97,98
 406 535 406 535 400 529 c 256,99,100
 394 523 394 523 388 517 c 0,101,102
 382 512 382 512 376 507 c 0,103,104
 370 501 370 501 362 495 c 0,105,106
 355 488 355 488 350 481 c 0,107,108
 346 474 346 474 338 467 c 0,109,110
 333 462 333 462 325 457 c 0,111,112
 317 451 317 451 309 445 c 0,113,114
 301 438 301 438 296 432 c 0,115,116
 290 425 290 425 289 418 c 0,117,118
 286 405 286 405 308 405 c 0,119,120
 315 405 315 405 323 405 c 0,121,122
 331 406 331 406 338 406 c 0,123,124
 343 406 343 406 350 400 c 0,125,126
 357 395 357 395 361 395 c 0,127,128
 362 395 362 395 364 395 c 0,129,130
 366 396 366 396 368 396 c 0,131,132
 375 396 375 396 384 382 c 0,133,134
 394 368 394 368 403 348 c 256,135,136
 412 328 412 328 419 306 c 256,137,138
 426 284 426 284 426 267 c 2,139,-1
 426 265 l 2,140,141
 425 261 425 261 422 258 c 0,142,143
 420 256 420 256 419 253 c 0,144,145
 418 247 418 247 419 233 c 256,146,147
 420 219 420 219 417 207 c 0,148,149
 413 185 413 185 407 166 c 0,150,151
 401 148 401 148 392 130 c 0,152,153
 391 127 391 127 389 118 c 0,154,155
 386 109 386 109 384 106 c 0,156,157
 380 101 380 101 374 96 c 0,158,159
 368 90 368 90 362 85 c 0,160,161
 355 79 355 79 349 75 c 256,162,163
 343 71 343 71 339 67 c 0,164,165
 334 64 334 64 331 59 c 0,166,167
 328 55 328 55 322 53 c 0,168,169
 318 52 318 52 310 52 c 0,170,171
 301 51 301 51 292 50 c 256,172,173
 283 49 283 49 273 49 c 0,174,175
 264 48 264 48 258 48 c 0,176,177
 244 48 244 48 233 50 c 0,178,179
 223 51 223 51 218 53 c 0,180,181
 216 55 216 55 214 58 c 0,182,183
 212 62 212 62 209 63 c 0,184,185
 202 69 202 69 193 74 c 256,186,187
 184 79 184 79 177 86 c 0,188,189
 169 92 169 92 165 99 c 0,190,191
 160 106 160 106 162 116 c 0,192,193
 164 128 164 128 173 136 c 256,194,195
 182 144 182 144 192 150 c 0,196,197
 202 157 202 157 211 164 c 0,198,199
 219 170 219 170 221 179 c 0,200,201
 221 185 221 185 218 191 c 1,202,203
 204 183 204 183 194 176 c 0,204,205
 185 170 185 170 176 163 c 0,206,207
 174 162 174 162 168 156 c 0,208,209
 162 151 162 151 155 145 c 256,210,211
 148 139 148 139 142 135 c 0,212,213
 135 130 135 130 132 130 c 0,214,215
 128 130 128 130 125 128 c 0,216,217
 123 125 123 125 120 123 c 0,218,219
 118 120 118 120 115 118 c 0,220,221
 113 116 113 116 110 116 c 0,222,223
 103 115 103 115 100 109 c 0,224,225
 97 104 97 104 94 101 c 0,226,227
 80 91 80 91 68 83 c 0,228,229
 55 75 55 75 53 64 c 0,230,231
 53 60 53 60 56 58 c 0,232,233
 59 55 59 55 63 52 c 0,234,235
 68 49 68 49 73 46 c 256,236,237
 78 43 78 43 83 39 c 0,238,239
 86 36 86 36 90 31 c 0,240,241
 95 25 95 25 100 20 c 256,242,243
 105 15 105 15 111 10 c 0,244,245
 116 6 116 6 123 6 c 1,246,247
 122 6 122 6 132 1 c 0,248,249
 141 -4 141 -4 157 -10 c 0,250,251
 172 -17 172 -17 192 -21 c 0,252,253
 212 -26 212 -26 231 -26 c 0,254,255
 240 -26 240 -26 248 -24 c 0,256,257
 256 -23 256 -23 262 -18 c 0,258,259
 265 -15 265 -15 277 -14 c 0,260,261
 289 -12 289 -12 297 -8 c 0,262,263
 307 -3 307 -3 312 0 c 256,264,265
 317 3 317 3 319 6 c 0,266,267
 322 9 322 9 325 13 c 0,268,269
 329 17 329 17 336 25 c 0,270,271
 349 38 349 38 365 50 c 0,272,273
 382 62 382 62 392 72 c 0,274,275
 395 76 395 76 396 80 c 0,276,277
 396 84 396 84 399 87 c 0,278,279
 404 92 404 92 410 96 c 0,280,281
 417 100 417 100 422 106 c 0,282,283
 433 118 433 118 443 128 c 0,284,285
 453 139 453 139 462 149 c 0,286,287
 469 156 469 156 474 162 c 0,288,289
 478 167 478 167 482 173 c 0,290,291
 485 179 485 179 488 186 c 0,292,293
 491 192 491 192 496 201 c 0,294,295
 496 203 496 203 502 211 c 0,296,297
 507 220 507 220 508 227 c 0,298,299
 512 249 512 249 514 275 c 0,300,301
 515 300 515 300 515 323 c 0,302,303
 515 347 515 347 514 365 c 0,304,305
 512 383 512 383 509 391 c 0,306,307
 509 392 509 392 506 393 c 0,308,309
 502 394 502 394 502 396 c 0,310,311
 499 399 499 399 500 403 c 0,312,313
 501 406 501 406 499 410 c 0,314,315
 497 415 497 415 491 420 c 0,316,317
 486 425 486 425 483 429 c 0,318,319
 472 444 472 444 464 456 c 0,320,321
 456 467 456 467 444 472 c 0,322,323
 431 477 431 477 423 481 c 0,324,325
 414 486 414 486 415 500 c 0,326,327
 416 504 416 504 424 509 c 0,328,329
 431 514 431 514 433 519 c 0,330,331
 434 524 434 524 441 531 c 0,332,333
 449 538 449 538 458 544 c 256,334,335
 467 550 467 550 474 555 c 256,336,337
 481 560 481 560 483 562 c 0,338,339
 487 565 487 565 489 572 c 0,340,341
 490 579 490 579 497 586 c 0,342,343
 502 591 502 591 510 595 c 256,344,345
 518 599 518 599 519 604 c 256,346,347
 520 609 520 609 522 608 c 0,348,349
 523 607 523 607 525 609 c 0,350,351
 537 625 537 625 547 635 c 0,352,353
 557 646 557 646 572 661 c 0,354,355
 578 667 578 667 586 674 c 256,356,357
 594 681 594 681 602 688 c 0,358,359
 609 695 609 695 615 702 c 0,360,361
 621 710 621 710 622 716 c 0,362,363
 623 721 623 721 621 723 c 1,364,-1
 621 723 l 1,0,1
EndSplineSet
EndChar

StartChar: four
Encoding: 52 52 23
Width: 500
VWidth: 1024
Flags: W
LayerCount: 2
Fore
SplineSet
435 509 m 1,0,1
 428 486 428 486 419 458 c 0,2,3
 409 431 409 431 398 405 c 1,4,5
 398 405 398 405 397 404 c 0,6,7
 397 403 397 403 397 403 c 2,8,9
 396 400 396 400 397 398 c 0,10,11
 397 396 397 396 396 394 c 0,12,13
 396 389 396 389 391 389 c 0,14,15
 387 389 387 389 385 386 c 0,16,17
 380 380 380 380 378 372 c 0,18,19
 377 364 377 364 375 355 c 2,20,-1
 371 335 l 2,21,22
 369 320 369 320 364 301 c 0,23,24
 360 283 360 283 355 267 c 0,25,26
 349 251 349 251 344 240 c 0,27,28
 338 229 338 229 333 229 c 0,29,30
 329 229 329 229 324 229 c 0,31,32
 319 230 319 230 314 230 c 0,33,34
 307 230 307 230 304 227 c 0,35,36
 301 225 301 225 299 225 c 0,37,38
 296 225 296 225 288 225 c 0,39,40
 281 226 281 226 271 228 c 256,41,42
 261 230 261 230 250 231 c 256,43,44
 239 232 239 232 230 232 c 0,45,46
 211 232 211 232 191 226 c 256,47,48
 171 220 171 220 151 220 c 1,49,50
 158 233 158 233 168 243 c 0,51,52
 178 252 178 252 188 263 c 0,53,54
 212 290 212 290 242 317 c 0,55,56
 271 345 271 345 298 377 c 0,57,58
 312 393 312 393 325 409 c 0,59,60
 339 425 339 425 351 438 c 0,61,62
 354 441 354 441 355 445 c 0,63,64
 356 450 356 450 358 452 c 256,65,66
 360 454 360 454 363 455 c 0,67,68
 367 455 367 455 369 457 c 0,69,70
 373 462 373 462 375 469 c 0,71,72
 378 476 378 476 382 481 c 0,73,74
 399 500 399 500 414 515 c 256,75,76
 429 530 429 530 443 552 c 1,77,78
 452 551 452 551 450 543 c 0,79,80
 449 537 449 537 444 528 c 0,81,82
 438 518 438 518 435 509 c 1,83,-1
 435 509 l 1,0,1
551 281 m 1,84,85
 549 282 549 282 544 282 c 0,86,87
 535 282 535 282 526 278 c 0,88,89
 517 273 517 273 509 268 c 256,90,91
 501 263 501 263 493 257 c 0,92,93
 486 251 486 251 479 248 c 0,94,95
 465 241 465 241 456 238 c 0,96,97
 447 234 447 234 441 234 c 0,98,99
 433 234 433 234 435 247 c 0,100,101
 437 258 437 258 444 273 c 0,102,103
 450 288 450 288 455 301 c 0,104,105
 462 319 462 319 467 338 c 0,106,107
 473 357 473 357 477 367 c 0,108,109
 480 374 480 374 484 380 c 256,110,111
 488 386 488 386 490 391 c 0,112,113
 496 406 496 406 498 422 c 0,114,115
 500 437 500 437 506 452 c 0,116,117
 511 465 511 465 516 472 c 0,118,119
 520 479 520 479 520 481 c 0,120,121
 521 483 521 483 521 486 c 0,122,123
 521 488 521 488 522 490 c 0,124,125
 524 498 524 498 527 507 c 256,126,127
 530 516 530 516 534 525 c 0,128,129
 537 533 537 533 539 539 c 0,130,131
 541 544 541 544 541 545 c 0,132,133
 542 547 542 547 542 549 c 256,134,135
 542 551 542 551 542 553 c 0,136,137
 546 579 546 579 554 598 c 0,138,139
 562 618 562 618 571 634 c 0,140,141
 580 651 580 651 587 668 c 0,142,143
 595 684 595 684 598 703 c 0,144,145
 600 713 600 713 596 717 c 0,146,147
 593 722 593 722 586 722 c 0,148,149
 576 722 576 722 565 714 c 0,150,151
 555 707 555 707 550 704 c 0,152,153
 541 698 541 698 528 692 c 256,154,155
 515 686 515 686 503 681 c 0,156,157
 492 676 492 676 483 672 c 256,158,159
 474 668 474 668 473 666 c 0,160,161
 468 663 468 663 464 657 c 0,162,163
 459 651 459 651 455 644 c 0,164,165
 452 637 452 637 447 630 c 0,166,167
 443 623 443 623 440 619 c 0,168,169
 436 614 436 614 431 611 c 0,170,171
 427 609 427 609 424 604 c 0,172,173
 420 600 420 600 419 594 c 0,174,175
 417 589 417 589 415 586 c 0,176,177
 412 581 412 581 409 578 c 0,178,179
 406 576 406 576 403 571 c 0,180,181
 397 562 397 562 393 552 c 0,182,183
 389 541 389 541 382 533 c 0,184,185
 379 529 379 529 374 526 c 256,186,187
 369 523 369 523 366 519 c 0,188,189
 361 514 361 514 359 509 c 0,190,191
 356 504 356 504 353 500 c 256,192,193
 350 496 350 496 345 493 c 0,194,195
 339 490 339 490 336 486 c 0,196,197
 332 481 332 481 331 474 c 0,198,199
 331 467 331 467 327 462 c 0,200,201
 301 441 301 441 282 416 c 0,202,203
 264 392 264 392 244 372 c 0,204,205
 244 371 244 371 244 370 c 0,206,207
 243 369 243 369 243 367 c 256,208,209
 243 365 243 365 243 364 c 0,210,211
 242 360 242 360 233 356 c 0,212,213
 225 352 225 352 216 343 c 0,214,215
 207 335 207 335 199 322 c 0,216,217
 191 310 191 310 186 305 c 0,218,219
 180 301 180 301 173 294 c 0,220,221
 167 286 167 286 167 285 c 256,222,223
 167 284 167 284 167 282 c 256,224,225
 167 280 167 280 166 279 c 0,226,227
 165 275 165 275 159 273 c 0,228,229
 153 270 153 270 150 267 c 0,230,231
 145 262 145 262 142 258 c 0,232,233
 138 253 138 253 135 249 c 256,234,235
 132 245 132 245 129 241 c 0,236,237
 125 237 125 237 120 234 c 0,238,239
 116 231 116 231 110 229 c 0,240,241
 103 228 103 228 100 225 c 0,242,243
 96 221 96 221 95 216 c 0,244,245
 95 210 95 210 92 205 c 0,246,247
 86 197 86 197 80 191 c 0,248,249
 74 186 74 186 69 182 c 0,250,251
 64 177 64 177 61 173 c 256,252,253
 58 169 58 169 57 163 c 0,254,255
 56 160 56 160 57 156 c 256,256,257
 58 152 58 152 64 152 c 0,258,259
 75 152 75 152 91 157 c 0,260,261
 107 163 107 163 118 163 c 0,262,263
 125 163 125 163 132 162 c 256,264,265
 139 161 139 161 148 160 c 0,266,267
 156 159 156 159 168 158 c 0,268,269
 179 158 179 158 195 158 c 0,270,271
 207 158 207 158 221 158 c 256,272,273
 235 158 235 158 249 158 c 0,274,275
 262 158 262 158 273 159 c 0,276,277
 284 159 284 159 291 159 c 0,278,279
 303 159 303 159 308 156 c 0,280,281
 312 153 312 153 310 144 c 0,282,283
 309 139 309 139 305 125 c 0,284,285
 300 111 300 111 294 96 c 256,286,287
 288 81 288 81 283 69 c 0,288,289
 277 58 277 58 275 58 c 1,290,291
 275 57 275 57 274 56 c 256,292,293
 273 55 273 55 273 53 c 0,294,295
 272 45 272 45 273 36 c 0,296,297
 274 28 274 28 273 20 c 0,298,299
 272 17 272 17 269 11 c 0,300,301
 267 5 267 5 261 5 c 0,302,303
 259 5 259 5 256 6 c 0,304,305
 254 6 254 6 252 6 c 256,306,307
 250 6 250 6 249 2 c 0,308,309
 247 -3 247 -3 245 -4 c 0,310,311
 235 -7 235 -7 224 -8 c 0,312,313
 212 -9 212 -9 202 -10 c 256,314,315
 192 -11 192 -11 184 -15 c 0,316,317
 176 -18 176 -18 174 -27 c 0,318,319
 172 -38 172 -38 180 -42 c 0,320,321
 187 -46 187 -46 198 -46 c 0,322,323
 207 -46 207 -46 211 -45 c 0,324,325
 216 -43 216 -43 218 -40 c 0,326,327
 221 -38 221 -38 222 -36 c 0,328,329
 224 -33 224 -33 226 -32 c 256,330,331
 228 -31 228 -31 232 -30 c 0,332,333
 235 -29 235 -29 239 -28 c 256,334,335
 243 -27 243 -27 246 -27 c 0,336,337
 250 -27 250 -27 251 -27 c 0,338,339
 254 -27 254 -27 256 -29 c 0,340,341
 259 -31 259 -31 261 -33 c 0,342,343
 264 -36 264 -36 268 -38 c 0,344,345
 272 -39 272 -39 279 -39 c 0,346,347
 288 -39 288 -39 296 -36 c 0,348,349
 305 -32 305 -32 312 -28 c 256,350,351
 319 -24 319 -24 325 -19 c 0,352,353
 332 -15 332 -15 338 -13 c 0,354,355
 352 -9 352 -9 369 -7 c 0,356,357
 386 -6 386 -6 402 -3 c 0,358,359
 419 -1 419 -1 430 4 c 0,360,361
 441 8 441 8 443 18 c 256,362,363
 445 28 445 28 434 28 c 0,364,365
 427 28 427 28 417 25 c 0,366,367
 406 22 406 22 396 19 c 0,368,369
 385 16 385 16 376 13 c 256,370,371
 367 10 367 10 361 10 c 0,372,373
 358 10 358 10 357 11 c 0,374,375
 361 32 361 32 367 52 c 0,376,377
 373 71 373 71 380 92 c 0,378,379
 389 113 389 113 393 128 c 256,380,381
 397 143 397 143 400 153 c 0,382,383
 403 162 403 162 408 166 c 256,384,385
 413 170 413 170 425 170 c 2,386,-1
 438 170 l 2,387,388
 446 170 446 170 451 173 c 0,389,390
 455 175 455 175 458 179 c 0,391,392
 462 183 462 183 465 189 c 0,393,394
 469 195 469 195 476 201 c 0,395,396
 483 208 483 208 493 211 c 0,397,398
 502 215 502 215 508 220 c 0,399,400
 521 232 521 232 534 246 c 0,401,402
 548 259 548 259 551 276 c 2,403,-1
 551 281 l 1,404,-1
 551 281 l 1,84,85
EndSplineSet
EndChar

StartChar: five
Encoding: 53 53 24
Width: 458
VWidth: 1024
Flags: W
LayerCount: 2
Fore
SplineSet
610 686 m 1,0,1
 612 698 612 698 604 702 c 256,2,3
 596 706 596 706 587 706 c 0,4,5
 582 706 582 706 578 705 c 0,6,7
 573 705 573 705 571 704 c 0,8,9
 549 699 549 699 516 697 c 0,10,11
 484 696 484 696 451 695 c 0,12,13
 419 695 419 695 391 695 c 0,14,15
 363 694 363 694 350 690 c 0,16,17
 342 688 342 688 338 687 c 0,18,19
 335 686 335 686 333 684 c 0,20,21
 331 683 331 683 328 680 c 0,22,23
 326 677 326 677 318 671 c 0,24,25
 310 664 310 664 304 662 c 256,26,27
 298 660 298 660 296 657 c 0,28,29
 291 647 291 647 285 625 c 256,30,31
 279 603 279 603 272 577 c 0,32,33
 266 551 266 551 259 527 c 0,34,35
 251 502 251 502 243 486 c 0,36,37
 238 476 238 476 234 472 c 256,38,39
 230 468 230 468 228 458 c 0,40,41
 227 455 227 455 227 452 c 0,42,43
 227 450 227 450 226 447 c 0,44,45
 225 441 225 441 222 434 c 0,46,47
 218 428 218 428 214 422 c 0,48,49
 209 415 209 415 206 409 c 0,50,51
 202 403 202 403 201 398 c 0,52,53
 200 390 200 390 208 383 c 0,54,55
 217 376 217 376 230 376 c 0,56,57
 237 376 237 376 242 379 c 0,58,59
 246 382 246 382 253 382 c 0,60,61
 258 382 258 382 259 378 c 0,62,63
 261 374 261 374 265 372 c 0,64,65
 270 370 270 370 273 369 c 0,66,67
 277 368 277 368 281 368 c 256,68,69
 285 368 285 368 289 368 c 256,70,71
 293 368 293 368 298 367 c 0,72,73
 312 359 312 359 326 350 c 0,74,75
 341 342 341 342 352 333 c 0,76,77
 364 324 364 324 371 317 c 256,78,79
 378 310 378 310 377 304 c 0,80,81
 377 303 377 303 376 301 c 256,82,83
 375 299 375 299 375 298 c 0,84,85
 375 294 375 294 377 290 c 0,86,87
 379 285 379 285 383 280 c 0,88,89
 386 275 386 275 389 270 c 256,90,91
 392 265 392 265 393 263 c 0,92,93
 394 258 394 258 394 247 c 0,94,95
 395 236 395 236 395 223 c 0,96,97
 396 210 396 210 395 196 c 256,98,99
 394 182 394 182 392 170 c 256,100,101
 390 158 390 158 385 150 c 0,102,103
 380 143 380 143 380 140 c 0,104,105
 379 137 379 137 379 133 c 0,106,107
 379 130 379 130 378 127 c 0,108,109
 377 120 377 120 370 116 c 0,110,111
 363 113 363 113 356 106 c 0,112,113
 350 100 350 100 346 93 c 256,114,115
 342 86 342 86 338 82 c 0,116,117
 295 45 295 45 265 45 c 0,118,119
 254 45 254 45 238 51 c 0,120,121
 222 58 222 58 207 67 c 256,122,123
 192 76 192 76 180 86 c 0,124,125
 169 95 169 95 165 101 c 0,126,127
 163 104 163 104 164 108 c 0,128,129
 164 113 164 113 163 116 c 0,130,131
 162 118 162 118 161 119 c 0,132,133
 159 120 159 120 158 121 c 0,134,135
 157 121 157 121 156 123 c 0,136,137
 156 125 156 125 156 130 c 0,138,139
 157 135 157 135 161 141 c 256,140,141
 165 147 165 147 169 152 c 0,142,143
 174 158 174 158 177 163 c 0,144,145
 181 168 181 168 182 173 c 256,146,147
 183 178 183 178 181 187 c 1,148,149
 168 177 168 177 157 165 c 256,150,151
 146 153 146 153 135 139 c 0,152,153
 125 125 125 125 114 112 c 0,154,155
 103 98 103 98 92 87 c 0,156,157
 87 82 87 82 81 79 c 0,158,159
 76 75 76 75 73 72 c 0,160,161
 69 69 69 69 66 65 c 256,162,163
 63 61 63 61 62 55 c 0,164,165
 61 50 61 50 67 43 c 256,166,167
 73 36 73 36 80 30 c 0,168,169
 88 24 88 24 96 18 c 0,170,171
 104 13 104 13 106 11 c 0,172,173
 119 -2 119 -2 125 -10 c 0,174,175
 132 -18 132 -18 140 -18 c 0,176,177
 143 -18 143 -18 147 -18 c 0,178,179
 151 -17 151 -17 154 -17 c 256,180,181
 157 -17 157 -17 160 -19 c 0,182,183
 162 -20 162 -20 162 -22 c 0,184,185
 179 -26 179 -26 195 -26 c 0,186,187
 218 -26 218 -26 244 -18 c 0,188,189
 252 -15 252 -15 259 -9 c 0,190,191
 267 -4 267 -4 275 1 c 0,192,193
 281 4 281 4 286 4 c 0,194,195
 291 3 291 3 296 6 c 0,196,197
 299 8 299 8 304 13 c 0,198,199
 308 17 308 17 312 20 c 0,200,201
 324 29 324 29 336 38 c 0,202,203
 349 46 349 46 356 53 c 0,204,205
 360 57 360 57 362 62 c 0,206,207
 364 68 364 68 369 72 c 0,208,209
 372 76 372 76 377 77 c 0,210,211
 382 79 382 79 385 82 c 0,212,213
 389 86 389 86 389 92 c 0,214,215
 389 97 389 97 393 101 c 0,216,217
 398 106 398 106 403 108 c 0,218,219
 409 110 409 110 410 116 c 0,220,221
 411 120 411 120 412 119 c 0,222,223
 414 118 414 118 415 120 c 0,224,225
 441 151 441 151 461 178 c 256,226,227
 481 205 481 205 485 229 c 0,228,229
 487 240 487 240 487 251 c 0,230,231
 487 263 487 263 486 277 c 0,232,233
 485 277 485 277 485 279 c 0,234,235
 486 282 486 282 487 284 c 0,236,237
 487 286 487 286 488 288 c 0,238,239
 488 292 488 292 485 294 c 0,240,241
 481 296 481 296 480 301 c 0,242,243
 480 308 480 308 481 319 c 0,244,245
 482 329 482 329 481 334 c 1,246,247
 481 333 481 333 477 340 c 256,248,249
 473 347 473 347 467 355 c 0,250,251
 461 364 461 364 456 373 c 0,252,253
 450 382 450 382 448 386 c 0,254,255
 443 394 443 394 438 399 c 0,256,257
 434 404 434 404 429 408 c 256,258,259
 424 412 424 412 419 415 c 0,260,261
 414 419 414 419 407 424 c 0,262,263
 385 438 385 438 374 448 c 0,264,265
 364 459 364 459 353 467 c 0,266,267
 349 469 349 469 344 469 c 0,268,269
 340 469 340 469 335 472 c 0,270,271
 327 476 327 476 325 481 c 0,272,273
 323 485 323 485 324 492 c 0,274,275
 325 496 325 496 328 505 c 0,276,277
 330 513 330 513 333 522 c 0,278,279
 336 532 336 532 340 540 c 0,280,281
 343 548 343 548 344 552 c 0,282,283
 346 558 346 558 350 567 c 0,284,285
 353 577 353 577 357 587 c 256,286,287
 361 597 361 597 364 605 c 0,288,289
 368 612 368 612 370 614 c 0,290,291
 377 619 377 619 393 619 c 0,292,293
 410 618 410 618 433 623 c 0,294,295
 443 626 443 626 452 628 c 0,296,297
 460 631 460 631 467 633 c 256,298,299
 474 635 474 635 482 637 c 256,300,301
 490 639 490 639 499 639 c 2,302,-1
 511 639 l 2,303,304
 520 639 520 639 524 640 c 256,305,306
 528 641 528 641 529 643 c 0,307,308
 531 645 531 645 532 647 c 0,309,310
 534 650 534 650 537 652 c 0,311,312
 544 656 544 656 552 658 c 0,313,314
 559 659 559 659 563 661 c 0,315,316
 565 663 565 663 566 666 c 0,317,318
 568 670 568 670 569 671 c 0,319,320
 580 677 580 677 590 677 c 0,321,322
 600 678 600 678 610 686 c 1,323,-1
 610 686 l 1,0,1
EndSplineSet
EndChar

StartChar: six
Encoding: 54 54 25
Width: 493
VWidth: 1024
Flags: W
LayerCount: 2
Fore
SplineSet
412 172 m 1,0,1
 407 158 407 158 399 142 c 0,2,3
 391 127 391 127 383 111 c 0,4,5
 373 93 373 93 368 80 c 0,6,7
 362 67 362 67 354 59 c 256,8,9
 346 51 346 51 334 47 c 0,10,11
 321 43 321 43 298 43 c 0,12,13
 290 43 290 43 283 45 c 0,14,15
 277 46 277 46 272 49 c 0,16,17
 269 51 269 51 268 56 c 0,18,19
 268 60 268 60 265 63 c 0,20,21
 260 67 260 67 256 70 c 0,22,23
 252 72 252 72 248 76 c 0,24,25
 245 79 245 79 241 84 c 0,26,27
 238 88 238 88 233 96 c 0,28,29
 232 98 232 98 229 100 c 0,30,31
 226 103 226 103 224 106 c 0,32,33
 221 109 221 109 219 112 c 0,34,35
 217 114 217 114 217 117 c 0,36,37
 218 118 218 118 218 120 c 0,38,39
 219 121 219 121 219 122 c 256,40,41
 219 123 219 123 218 124 c 2,42,43
 218 124 218 124 219 125 c 0,44,45
 216 130 216 130 215 135 c 0,46,47
 214 139 214 139 214 147 c 256,48,49
 214 155 214 155 215 167 c 0,50,51
 217 180 217 180 221 202 c 0,52,53
 223 214 223 214 226 227 c 0,54,55
 230 240 230 240 236 248 c 1,56,57
 235 247 235 247 240 253 c 256,58,59
 245 259 245 259 253 268 c 256,60,61
 261 277 261 277 270 287 c 0,62,63
 280 298 280 298 289 305 c 0,64,65
 322 334 322 334 345 351 c 0,66,67
 369 368 369 368 384 368 c 256,68,69
 399 368 399 368 409 359 c 0,70,71
 418 350 418 350 423 336 c 0,72,73
 427 322 427 322 428 305 c 0,74,75
 429 287 429 287 428 271 c 0,76,77
 427 254 427 254 425 239 c 0,78,79
 423 225 423 225 422 216 c 0,80,81
 420 205 420 205 417 193 c 0,82,83
 415 182 415 182 412 172 c 1,84,-1
 412 172 l 1,0,1
666 723 m 1,85,86
 660 726 660 726 652 728 c 0,87,88
 644 729 644 729 635 729 c 0,89,90
 625 729 625 729 620 727 c 256,91,92
 615 725 615 725 612 723 c 256,93,94
 609 721 609 721 606 719 c 256,95,96
 603 717 603 717 597 717 c 0,97,98
 594 717 594 717 590 718 c 256,99,100
 586 719 586 719 583 719 c 0,101,102
 573 719 573 719 563 716 c 0,103,104
 552 712 552 712 543 709 c 0,105,106
 534 705 534 705 529 702 c 0,107,108
 523 699 523 699 523 699 c 2,109,110
 522 699 522 699 520 699 c 0,111,112
 518 700 518 700 516 700 c 0,113,114
 513 700 513 700 509 696 c 0,115,116
 504 692 504 692 498 687 c 0,117,118
 493 682 493 682 488 677 c 256,119,120
 483 672 483 672 481 671 c 0,121,122
 476 667 476 667 467 666 c 0,123,124
 459 665 459 665 455 661 c 0,125,126
 451 658 451 658 447 650 c 256,127,128
 443 642 443 642 438 637 c 0,129,130
 429 628 429 628 419 621 c 0,131,132
 408 614 408 614 398 607 c 0,133,134
 387 600 387 600 378 594 c 0,135,136
 368 588 368 588 361 581 c 0,137,138
 340 562 340 562 318 541 c 256,139,140
 296 520 296 520 276 497 c 0,141,142
 256 475 256 475 238 453 c 0,143,144
 219 430 219 430 207 410 c 0,145,146
 206 408 206 408 202 407 c 256,147,148
 198 406 198 406 197 405 c 0,149,150
 193 400 193 400 192 392 c 0,151,152
 190 384 190 384 187 377 c 0,153,154
 181 364 181 364 175 350 c 256,155,156
 169 336 169 336 162 322 c 0,157,158
 156 307 156 307 150 294 c 0,159,160
 144 282 144 282 140 272 c 0,161,162
 137 265 137 265 135 257 c 256,163,164
 133 249 133 249 131 241 c 0,165,166
 130 234 130 234 128 229 c 0,167,168
 125 225 125 225 122 225 c 0,169,170
 121 223 121 223 121 219 c 0,171,172
 120 211 120 211 121 208 c 0,173,174
 123 204 123 204 123 201 c 0,175,176
 122 198 122 198 120 197 c 0,177,178
 118 197 118 197 117 196 c 0,179,180
 114 186 114 186 113 179 c 0,181,182
 111 172 111 172 109 167 c 0,183,184
 103 130 103 130 109 96 c 0,185,186
 115 63 115 63 127 34 c 0,187,188
 130 26 130 26 132 22 c 256,189,190
 134 18 134 18 137 17 c 0,191,192
 139 15 139 15 143 13 c 0,193,194
 148 11 148 11 155 6 c 0,195,196
 161 3 161 3 163 -4 c 0,197,198
 166 -10 166 -10 170 -13 c 0,199,200
 188 -26 188 -26 201 -32 c 256,201,202
 214 -38 214 -38 229 -38 c 0,203,204
 239 -38 239 -38 250 -36 c 0,205,206
 262 -35 262 -35 272 -32 c 0,207,208
 277 -30 277 -30 287 -23 c 0,209,210
 296 -16 296 -16 307 -6 c 0,211,212
 318 3 318 3 329 13 c 256,213,214
 340 23 340 23 349 30 c 0,215,216
 364 43 364 43 382 57 c 256,217,218
 400 71 400 71 411 82 c 0,219,220
 413 85 413 85 418 91 c 0,221,222
 422 97 422 97 425 97 c 0,223,224
 426 97 426 97 427 96 c 0,225,226
 429 95 429 95 430 95 c 0,227,228
 432 95 432 95 433 98 c 0,229,230
 433 99 433 99 433 101 c 256,231,232
 433 103 433 103 433 104 c 0,233,234
 433 107 433 107 440 110 c 256,235,236
 447 113 447 113 450 116 c 0,237,238
 456 121 456 121 457 125 c 0,239,240
 459 128 459 128 462 134 c 0,241,242
 464 135 464 135 468 136 c 256,243,244
 472 137 472 137 473 139 c 0,245,246
 474 142 474 142 476 153 c 256,247,248
 478 164 478 164 483 172 c 0,249,250
 484 174 484 174 486 174 c 0,251,252
 487 174 487 174 489 177 c 0,253,254
 492 183 492 183 493 185 c 0,255,256
 495 188 495 188 496 189 c 0,257,258
 498 190 498 190 499 193 c 0,259,260
 501 195 501 195 503 201 c 0,261,262
 504 204 504 204 502 210 c 0,263,264
 501 216 501 216 502 223 c 0,265,266
 503 228 503 228 505 229 c 0,267,268
 507 231 507 231 509 234 c 0,269,270
 511 241 511 241 513 249 c 0,271,272
 515 256 515 256 516 265 c 0,273,274
 523 299 523 299 525 324 c 0,275,276
 528 350 528 350 527 363 c 0,277,278
 527 364 527 364 523 367 c 0,279,280
 520 370 520 370 518 372 c 0,281,282
 517 376 517 376 517 379 c 0,283,284
 518 383 518 383 516 386 c 0,285,286
 512 396 512 396 505 405 c 0,287,288
 499 415 499 415 491 423 c 256,289,290
 483 431 483 431 474 437 c 256,291,292
 465 443 465 443 455 443 c 0,293,294
 442 443 442 443 430 438 c 256,295,296
 418 433 418 433 406 426 c 0,297,298
 394 418 394 418 381 408 c 0,299,300
 369 399 369 399 356 391 c 0,301,302
 348 385 348 385 343 383 c 0,303,304
 337 380 337 380 332 377 c 0,305,306
 328 374 328 374 322 371 c 256,307,308
 316 368 316 368 308 363 c 0,309,310
 305 361 305 361 301 356 c 0,311,312
 296 352 296 352 290 348 c 0,313,314
 284 343 284 343 279 340 c 0,315,316
 273 336 273 336 269 336 c 256,317,318
 265 336 265 336 266 342 c 0,319,320
 267 346 267 346 269 351 c 256,321,322
 271 356 271 356 274 362 c 0,323,324
 277 367 277 367 279 371 c 256,325,326
 281 375 281 375 282 377 c 0,327,328
 288 394 288 394 294 404 c 0,329,330
 300 413 300 413 303 419 c 0,331,332
 309 431 309 431 313 439 c 0,333,334
 316 446 316 446 319 452 c 0,335,336
 322 457 322 457 325 461 c 0,337,338
 328 466 328 466 333 472 c 0,339,340
 335 474 335 474 338 482 c 0,341,342
 342 489 342 489 347 498 c 0,343,344
 351 506 351 506 356 515 c 0,345,346
 361 523 361 523 366 529 c 0,347,348
 368 532 368 532 371 533 c 256,349,350
 374 534 374 534 377 538 c 0,351,352
 384 546 384 546 387 553 c 0,353,354
 391 561 391 561 396 566 c 0,355,356
 404 574 404 574 414 579 c 256,357,358
 424 584 424 584 434 590 c 0,359,360
 439 593 439 593 443 598 c 0,361,362
 446 602 446 602 450 604 c 0,363,364
 466 614 466 614 483 618 c 0,365,366
 499 623 499 623 516 628 c 0,367,368
 528 632 528 632 541 636 c 0,369,370
 554 641 554 641 562 642 c 0,371,372
 574 644 574 644 582 645 c 0,373,374
 590 645 590 645 597 646 c 0,375,376
 603 647 603 647 609 649 c 256,377,378
 615 651 615 651 621 657 c 0,379,380
 628 662 628 662 635 670 c 256,381,382
 642 678 642 678 648 687 c 0,383,384
 655 695 655 695 660 704 c 0,385,386
 665 712 665 712 666 719 c 0,387,388
 667 720 667 720 666 721 c 0,389,390
 666 722 666 722 666 723 c 1,391,-1
 666 723 l 1,85,86
EndSplineSet
EndChar

StartChar: seven
Encoding: 55 55 26
Width: 421
VWidth: 1024
Flags: W
LayerCount: 2
Fore
SplineSet
629 696 m 1,0,1
 633 704 633 704 635 710 c 0,2,3
 636 717 636 717 634 724 c 256,4,5
 632 731 632 731 632 739 c 1,6,7
 597 734 597 734 561 729 c 0,8,9
 524 724 524 724 485 724 c 0,10,11
 460 724 460 724 434 729 c 0,12,13
 408 735 408 735 386 735 c 0,14,15
 368 735 368 735 353 723 c 0,16,17
 338 712 338 712 321 696 c 0,18,19
 315 692 315 692 312 685 c 0,20,21
 308 679 308 679 303 673 c 0,22,23
 300 671 300 671 295 671 c 0,24,25
 289 671 289 671 287 668 c 0,26,27
 285 666 285 666 283 661 c 0,28,29
 282 657 282 657 280 654 c 0,30,31
 272 645 272 645 261 633 c 0,32,33
 251 621 251 621 244 611 c 0,34,35
 237 602 237 602 229 598 c 0,36,37
 221 593 221 593 219 584 c 0,38,39
 217 574 217 574 222 569 c 0,40,41
 226 564 226 564 233 564 c 0,42,43
 236 564 236 564 241 565 c 0,44,45
 246 567 246 567 246 570 c 0,46,47
 246 571 246 571 246 573 c 0,48,49
 246 574 246 574 247 576 c 0,50,51
 247 579 247 579 252 581 c 0,52,53
 256 583 256 583 259 588 c 0,54,55
 265 597 265 597 272 606 c 0,56,57
 278 616 278 616 285 624 c 256,58,59
 292 632 292 632 301 637 c 256,60,61
 310 642 310 642 324 642 c 0,62,63
 334 642 334 642 341 638 c 0,64,65
 349 635 349 635 357 635 c 0,66,67
 364 635 364 635 370 637 c 0,68,69
 375 640 375 640 382 640 c 256,70,71
 389 640 389 640 396 637 c 0,72,73
 403 635 403 635 410 635 c 0,74,75
 419 635 419 635 432 636 c 0,76,77
 444 637 444 637 455 637 c 0,78,79
 467 637 467 637 476 634 c 0,80,81
 485 632 485 632 488 625 c 0,82,83
 488 624 488 624 482 611 c 256,84,85
 476 598 476 598 469 583 c 0,86,87
 462 567 462 567 456 554 c 256,88,89
 450 541 450 541 450 541 c 2,90,91
 449 539 449 539 449 536 c 0,92,93
 449 534 449 534 448 532 c 0,94,95
 448 530 448 530 443 525 c 256,96,97
 438 520 438 520 436 516 c 0,98,99
 428 502 428 502 425 495 c 0,100,101
 421 488 421 488 419 485 c 0,102,103
 417 481 417 481 417 481 c 2,104,105
 416 480 416 480 415 478 c 0,106,107
 407 463 407 463 402 448 c 0,108,109
 397 432 397 432 391 421 c 0,110,111
 389 419 389 419 385 414 c 0,112,113
 381 410 381 410 379 407 c 0,114,115
 375 401 375 401 375 398 c 0,116,117
 374 394 374 394 371 388 c 0,118,119
 370 386 370 386 365 381 c 0,120,121
 360 377 360 377 359 374 c 0,122,123
 347 352 347 352 339 336 c 0,124,125
 330 321 330 321 323 309 c 0,126,127
 317 296 317 296 311 285 c 0,128,129
 305 273 305 273 296 260 c 0,130,131
 279 238 279 238 272 226 c 0,132,133
 265 215 265 215 262 208 c 0,134,135
 259 202 259 202 257 197 c 0,136,137
 255 193 255 193 249 184 c 0,138,139
 242 175 242 175 233 166 c 0,140,141
 225 157 225 157 220 151 c 0,142,143
 217 148 217 148 216 144 c 0,144,145
 216 140 216 140 212 136 c 0,146,147
 201 121 201 121 187 106 c 0,148,149
 172 90 172 90 160 79 c 0,150,151
 156 76 156 76 156 73 c 0,152,153
 155 69 155 69 153 65 c 0,154,155
 148 60 148 60 141 56 c 0,156,157
 135 52 135 52 130 46 c 0,158,159
 113 28 113 28 101 14 c 256,160,161
 89 0 89 0 78 -6 c 0,162,163
 72 -10 72 -10 68 -13 c 0,164,165
 65 -15 65 -15 61 -18 c 0,166,167
 58 -22 58 -22 54 -25 c 0,168,169
 51 -29 51 -29 45 -34 c 0,170,171
 42 -38 42 -38 36 -41 c 0,172,173
 31 -45 31 -45 25 -50 c 0,174,175
 20 -54 20 -54 16 -59 c 0,176,177
 11 -64 11 -64 11 -69 c 0,178,179
 10 -73 10 -73 12 -77 c 0,180,181
 15 -81 15 -81 21 -81 c 256,182,183
 27 -81 27 -81 36 -77 c 0,184,185
 44 -73 44 -73 53 -67 c 0,186,187
 56 -66 56 -66 58 -59 c 0,188,189
 60 -53 60 -53 66 -49 c 0,190,191
 71 -45 71 -45 80 -44 c 0,192,193
 88 -43 88 -43 91 -39 c 0,194,195
 94 -36 94 -36 96 -31 c 0,196,197
 99 -26 99 -26 100 -21 c 0,198,199
 102 -17 102 -17 104 -13 c 0,200,201
 106 -10 106 -10 109 -10 c 0,202,203
 111 -10 111 -10 113 -11 c 0,204,205
 116 -11 116 -11 118 -11 c 0,206,207
 124 -11 124 -11 128 -7 c 0,208,209
 133 -3 133 -3 136 2 c 0,210,211
 139 8 139 8 142 12 c 0,212,213
 144 17 144 17 144 18 c 0,214,215
 153 27 153 27 163 34 c 0,216,217
 174 41 174 41 183 51 c 0,218,219
 201 69 201 69 216 87 c 0,220,221
 232 106 232 106 249 127 c 0,222,223
 253 131 253 131 257 134 c 0,224,225
 262 136 262 136 265 141 c 0,226,227
 270 147 270 147 272 153 c 0,228,229
 275 160 275 160 280 165 c 0,230,231
 287 176 287 176 297 184 c 0,232,233
 307 193 307 193 314 203 c 0,234,235
 317 207 317 207 320 212 c 0,236,237
 324 218 324 218 328 224 c 0,238,239
 331 230 331 230 335 236 c 0,240,241
 338 242 338 242 341 245 c 0,242,243
 345 251 345 251 350 255 c 256,244,245
 355 259 355 259 358 265 c 0,246,247
 376 289 376 289 389 308 c 0,248,249
 401 326 401 326 411 341 c 256,250,251
 421 356 421 356 428 368 c 256,252,253
 435 380 435 380 443 393 c 0,254,255
 449 405 449 405 457 415 c 0,256,257
 464 425 464 425 471 435 c 0,258,259
 478 444 478 444 482 451 c 0,260,261
 487 459 487 459 488 464 c 0,262,263
 490 468 490 468 492 468 c 0,264,265
 494 467 494 467 494 469 c 0,266,267
 499 475 499 475 499 480 c 256,268,269
 499 485 499 485 502 492 c 0,270,271
 504 494 504 494 509 497 c 0,272,273
 513 501 513 501 515 502 c 0,274,275
 525 521 525 521 535 538 c 0,276,277
 544 556 544 556 550 569 c 0,278,279
 551 572 551 572 553 572 c 256,280,281
 555 572 555 572 555 574 c 0,282,283
 561 584 561 584 564 593 c 0,284,285
 567 603 567 603 571 611 c 0,286,287
 573 614 573 614 577 616 c 256,288,289
 581 618 581 618 583 621 c 0,290,291
 589 632 589 632 591 639 c 0,292,293
 593 647 593 647 597 649 c 0,294,295
 598 649 598 649 599 651 c 0,296,297
 599 653 599 653 599 655 c 256,298,299
 599 657 599 657 599 658 c 0,300,301
 599 661 599 661 604 667 c 0,302,303
 608 672 608 672 613 678 c 0,304,305
 619 684 619 684 624 689 c 0,306,307
 628 695 628 695 629 696 c 1,308,-1
 629 696 l 1,0,1
EndSplineSet
EndChar

StartChar: eight
Encoding: 56 56 27
Width: 490
VWidth: 1024
Flags: W
LayerCount: 2
Fore
SplineSet
519 525 m 1,0,1
 511 509 511 509 501 493 c 0,2,3
 490 476 490 476 478 459 c 0,4,5
 472 450 472 450 468 441 c 0,6,7
 464 433 464 433 459 426 c 0,8,9
 457 425 457 425 453 424 c 0,10,11
 449 422 449 422 448 421 c 0,12,13
 446 418 446 418 442 410 c 0,14,15
 439 403 439 403 431 403 c 0,16,17
 421 403 421 403 415 413 c 256,18,19
 409 423 409 423 403 436 c 1,20,21
 405 432 405 432 401 435 c 0,22,23
 398 438 398 438 393 446 c 0,24,25
 389 455 389 455 383 466 c 0,26,27
 377 478 377 478 371 490 c 0,28,29
 366 502 366 502 364 514 c 0,30,31
 361 526 361 526 363 535 c 0,32,33
 367 558 367 558 370 576 c 0,34,35
 374 594 374 594 378 607 c 256,36,37
 382 620 382 620 388 629 c 256,38,39
 394 638 394 638 402 645 c 0,40,41
 406 648 406 648 413 654 c 256,42,43
 420 660 420 660 427 666 c 0,44,45
 435 672 435 672 443 677 c 256,46,47
 451 682 451 682 456 682 c 1,48,-1
 457 688 l 1,49,50
 462 686 462 686 469 681 c 0,51,52
 476 675 476 675 483 669 c 0,53,54
 491 662 491 662 498 654 c 0,55,56
 505 647 505 647 510 640 c 0,57,58
 512 638 512 638 513 632 c 0,59,60
 515 626 515 626 516 621 c 0,61,62
 518 618 518 618 522 618 c 0,63,64
 525 618 525 618 525 614 c 0,65,66
 525 613 525 613 524 612 c 0,67,68
 523 610 523 610 523 609 c 0,69,70
 523 607 523 607 523 607 c 2,71,72
 525 603 525 603 526 599 c 0,73,74
 528 595 528 595 529 589 c 256,75,76
 530 583 530 583 529 572 c 256,77,78
 528 561 528 561 524 543 c 0,79,80
 523 535 523 535 519 525 c 1,81,-1
 519 525 l 1,0,1
394 113 m 1,82,83
 389 93 389 93 373 80 c 256,84,85
 357 67 357 67 340 55 c 0,86,87
 338 53 338 53 335 48 c 0,88,89
 333 44 333 44 329 41 c 0,90,91
 319 34 319 34 307 30 c 0,92,93
 294 25 294 25 281 25 c 0,94,95
 275 25 275 25 270 26 c 0,96,97
 266 27 266 27 261 29 c 0,98,99
 257 31 257 31 252 34 c 0,100,101
 246 37 246 37 239 41 c 0,102,103
 235 43 235 43 231 43 c 0,104,105
 228 43 228 43 225 46 c 0,106,107
 224 48 224 48 222 52 c 0,108,109
 219 55 219 55 217 60 c 0,110,111
 215 66 215 66 213 71 c 0,112,113
 212 76 212 76 212 79 c 0,114,115
 213 82 213 82 208 87 c 0,116,117
 204 93 204 93 201 98 c 0,118,119
 199 103 199 103 198 108 c 256,120,121
 197 113 197 113 197 119 c 0,122,123
 198 125 198 125 198 133 c 256,124,125
 198 141 198 141 197 151 c 0,126,127
 195 153 195 153 196 160 c 0,128,129
 197 166 197 166 195 169 c 0,130,131
 194 171 194 171 192 172 c 0,132,133
 191 173 191 173 189 174 c 0,134,135
 188 175 188 175 187 177 c 0,136,137
 186 180 186 180 187 185 c 0,138,139
 188 188 188 188 189 192 c 0,140,141
 190 195 190 195 190 198 c 0,142,143
 191 203 191 203 191 207 c 0,144,145
 192 211 192 211 193 216 c 0,146,147
 195 229 195 229 200 245 c 0,148,149
 205 260 205 260 214 279 c 0,150,151
 216 286 216 286 222 292 c 0,152,153
 228 299 228 299 236 306 c 256,154,155
 244 313 244 313 254 321 c 0,156,157
 263 329 263 329 272 340 c 0,158,159
 274 343 274 343 278 347 c 0,160,161
 281 351 281 351 285 355 c 256,162,163
 289 359 289 359 294 362 c 0,164,165
 299 364 299 364 303 364 c 0,166,167
 311 364 311 364 320 355 c 0,168,169
 329 345 329 345 339 331 c 256,170,171
 349 317 349 317 358 303 c 0,172,173
 368 288 368 288 375 279 c 0,174,175
 378 275 378 275 378 269 c 0,176,177
 378 262 378 262 381 255 c 0,178,179
 382 252 382 252 387 250 c 0,180,181
 392 249 392 249 394 245 c 256,182,183
 396 241 396 241 394 236 c 0,184,185
 393 232 393 232 395 226 c 0,186,187
 396 224 396 224 398 219 c 0,188,189
 401 214 401 214 402 212 c 0,190,191
 404 194 404 194 405 180 c 0,192,193
 405 167 405 167 403 154 c 0,194,195
 401 145 401 145 399 135 c 256,196,197
 397 125 397 125 394 113 c 1,198,-1
 394 113 l 1,82,83
589 521 m 1,199,200
 594 529 594 529 598 543 c 0,201,202
 602 558 602 558 605 575 c 0,203,204
 609 595 609 595 610 614 c 0,205,206
 612 633 612 633 610 640 c 0,207,208
 609 642 609 642 609 647 c 0,209,210
 609 653 609 653 608 658 c 0,211,212
 608 663 608 663 607 667 c 0,213,214
 607 671 607 671 607 673 c 0,215,216
 606 674 606 674 603 675 c 0,217,218
 599 677 599 677 598 678 c 0,219,220
 596 681 596 681 597 685 c 256,221,222
 598 689 598 689 595 692 c 0,223,224
 588 704 588 704 578 714 c 0,225,226
 567 724 567 724 556 732 c 256,227,228
 545 740 545 740 536 744 c 0,229,230
 526 749 526 749 520 749 c 0,231,232
 516 749 516 749 514 747 c 0,233,234
 511 744 511 744 510 744 c 0,235,236
 497 742 497 742 487 736 c 0,237,238
 476 729 476 729 466 720 c 0,239,240
 455 712 455 712 446 703 c 0,241,242
 438 694 438 694 429 688 c 0,243,244
 425 684 425 684 419 683 c 0,245,246
 413 681 413 681 408 678 c 0,247,248
 395 668 395 668 382 658 c 0,249,250
 369 647 369 647 358 637 c 256,251,252
 347 627 347 627 339 620 c 0,253,254
 331 612 331 612 329 611 c 0,255,256
 320 598 320 598 311 589 c 0,257,258
 301 580 301 580 294 571 c 0,259,260
 286 562 286 562 281 551 c 0,261,262
 275 540 275 540 272 525 c 0,263,264
 272 518 272 518 273 515 c 0,265,266
 275 511 275 511 275 508 c 0,267,268
 274 505 274 505 271 501 c 0,269,270
 267 497 267 497 267 497 c 1,271,272
 266 483 266 483 265 470 c 256,273,274
 264 457 264 457 264 454 c 0,275,276
 265 448 265 448 269 440 c 0,277,278
 274 432 274 432 279 424 c 0,279,280
 284 415 284 415 288 407 c 0,281,282
 293 399 293 399 291 394 c 0,283,284
 291 391 291 391 286 386 c 0,285,286
 282 382 282 382 277 378 c 0,287,288
 272 375 272 375 267 371 c 0,289,290
 263 368 263 368 263 367 c 0,291,292
 262 366 262 366 262 364 c 0,293,294
 263 363 263 363 262 361 c 2,295,-1
 262 360 l 1,296,297
 246 344 246 344 231 333 c 256,298,299
 216 322 216 322 203 312 c 0,300,301
 190 303 190 303 178 294 c 0,302,303
 167 285 167 285 156 274 c 0,304,305
 148 265 148 265 143 258 c 0,306,307
 139 251 139 251 135 244 c 256,308,309
 131 237 131 237 126 230 c 256,310,311
 121 223 121 223 112 212 c 0,312,313
 105 202 105 202 100 189 c 0,314,315
 95 175 95 175 94 161 c 0,316,317
 89 136 89 136 91 118 c 0,318,319
 92 114 92 114 93 114 c 0,320,321
 94 113 94 113 94 113 c 1,322,323
 99 78 99 78 105 56 c 256,324,325
 111 34 111 34 120 18 c 0,326,327
 122 15 122 15 127 13 c 0,328,329
 131 11 131 11 133 8 c 0,330,331
 137 1 137 1 138 -4 c 0,332,333
 138 -10 138 -10 139 -11 c 0,334,335
 142 -14 142 -14 148 -14 c 0,336,337
 153 -14 153 -14 158 -16 c 0,338,339
 159 -17 159 -17 163 -20 c 0,340,341
 167 -24 167 -24 170 -25 c 0,342,343
 176 -29 176 -29 180 -31 c 0,344,345
 184 -34 184 -34 188 -36 c 256,346,347
 192 -38 192 -38 197 -39 c 256,348,349
 202 -40 202 -40 210 -40 c 0,350,351
 228 -40 228 -40 243 -33 c 0,352,353
 257 -27 257 -27 260 -25 c 0,354,355
 287 -15 287 -15 307 -3 c 0,356,357
 326 9 326 9 342 21 c 0,358,359
 358 34 358 34 372 46 c 0,360,361
 385 59 385 59 400 70 c 0,362,363
 405 73 405 73 410 76 c 0,364,365
 415 78 415 78 420 81 c 0,366,367
 425 83 425 83 428 86 c 0,368,369
 432 88 432 88 433 90 c 0,370,371
 433 92 433 92 433 93 c 0,372,373
 433 95 433 95 433 96 c 0,374,375
 434 99 434 99 441 105 c 0,376,377
 449 110 449 110 450 113 c 0,378,379
 457 121 457 121 459 128 c 0,380,381
 460 134 460 134 465 141 c 0,382,383
 469 147 469 147 473 149 c 0,384,385
 476 152 476 152 480 155 c 0,386,387
 483 157 483 157 485 161 c 256,388,389
 487 165 487 165 488 172 c 0,390,391
 488 174 488 174 488 176 c 0,392,393
 488 177 488 177 489 179 c 0,394,395
 490 183 490 183 491 185 c 0,396,397
 492 188 492 188 494 189 c 0,398,399
 496 191 496 191 497 193 c 0,400,401
 499 195 499 195 499 198 c 0,402,403
 501 204 501 204 499 214 c 0,404,405
 498 224 498 224 496 234 c 0,406,407
 495 244 495 244 493 252 c 0,408,409
 492 260 492 260 492 265 c 0,410,411
 492 275 492 275 490 283 c 0,412,413
 488 290 488 290 484 297 c 0,414,415
 480 303 480 303 474 310 c 0,416,417
 469 317 469 317 464 326 c 0,418,419
 463 329 463 329 460 331 c 256,420,421
 457 333 457 333 457 336 c 0,422,423
 455 341 455 341 457 346 c 0,424,425
 458 350 458 350 455 355 c 0,426,427
 451 364 451 364 446 370 c 0,428,429
 440 375 440 375 441 378 c 0,430,431
 442 386 442 386 453 396 c 0,432,433
 464 405 464 405 478 415 c 256,434,435
 492 425 492 425 505 434 c 256,436,437
 518 443 518 443 525 450 c 0,438,439
 533 458 533 458 538 467 c 0,440,441
 544 476 544 476 550 483 c 0,442,443
 553 488 553 488 559 493 c 256,444,445
 565 498 565 498 571 503 c 256,446,447
 577 508 577 508 582 512 c 0,448,449
 586 517 586 517 589 521 c 1,450,-1
 589 521 l 1,199,200
EndSplineSet
EndChar

StartChar: nine
Encoding: 57 57 28
Width: 490
VWidth: 1024
Flags: W
LayerCount: 2
Fore
SplineSet
495 495 m 1,0,1
 496 480 496 480 494 469 c 256,2,3
 492 458 492 458 483 441 c 0,4,5
 474 425 474 425 461 407 c 0,6,7
 447 389 447 389 430 370 c 0,8,9
 413 352 413 352 394 337 c 0,10,11
 375 323 375 323 356 314 c 0,12,13
 336 305 336 305 319 305 c 0,14,15
 310 305 310 305 303 313 c 256,16,17
 296 321 296 321 292 335 c 0,18,19
 287 349 287 349 286 367 c 256,20,21
 285 385 285 385 288 405 c 0,22,23
 289 412 289 412 291 419 c 256,24,25
 293 426 293 426 294 433 c 0,26,27
 296 444 296 444 297 454 c 256,28,29
 298 464 298 464 300 473 c 0,30,31
 302 485 302 485 308 504 c 256,32,33
 314 523 314 523 321 542 c 0,34,35
 329 562 329 562 337 578 c 0,36,37
 345 595 345 595 353 604 c 0,38,39
 359 612 359 612 370 622 c 0,40,41
 380 632 380 632 390 639 c 0,42,43
 399 647 399 647 406 652 c 256,44,45
 413 657 413 657 413 657 c 2,46,47
 417 657 417 657 424 653 c 0,48,49
 431 648 431 648 439 641 c 0,50,51
 448 633 448 633 456 624 c 0,52,53
 464 614 464 614 472 604 c 0,54,55
 474 602 474 602 473 598 c 0,56,57
 472 593 472 593 474 590 c 0,58,59
 474 588 474 588 479 587 c 0,60,61
 483 587 483 587 482 584 c 0,62,63
 482 583 482 583 481 581 c 256,64,65
 480 579 480 579 480 578 c 0,66,67
 480 576 480 576 482 576 c 2,68,-1
 484 576 l 2,69,70
 485 576 485 576 485 576 c 1,71,72
 488 569 488 569 489 559 c 0,73,74
 491 548 491 548 492 537 c 0,75,76
 493 525 493 525 494 514 c 0,77,78
 494 503 494 503 495 495 c 1,79,-1
 495 495 l 1,0,1
582 505 m 1,80,81
 583 509 583 509 581 513 c 0,82,83
 579 516 579 516 580 523 c 0,84,85
 581 528 581 528 584 531 c 256,86,87
 587 534 587 534 588 539 c 2,88,-1
 589 543 l 2,89,90
 590 543 590 543 586 553 c 0,91,92
 583 564 583 564 579 577 c 0,93,94
 574 590 574 590 571 602 c 0,95,96
 569 615 569 615 569 621 c 2,97,-1
 571 626 l 2,98,99
 571 632 571 632 570 637 c 0,100,101
 568 642 568 642 565 646 c 256,102,103
 562 650 562 650 558 654 c 0,104,105
 555 658 555 658 553 661 c 0,106,107
 551 665 551 665 552 669 c 256,108,109
 553 673 553 673 550 675 c 0,110,111
 541 691 541 691 533 701 c 0,112,113
 524 710 524 710 517 716 c 0,114,115
 511 721 511 721 507 723 c 0,116,117
 502 725 502 725 502 725 c 1,118,119
 477 725 477 725 463 722 c 0,120,121
 450 718 450 718 440 711 c 0,122,123
 430 705 430 705 421 695 c 0,124,125
 413 686 413 686 398 675 c 0,126,127
 396 674 396 674 391 673 c 256,128,129
 386 672 386 672 384 671 c 0,130,131
 372 663 372 663 364 656 c 256,132,133
 356 649 356 649 349 642 c 256,134,135
 342 635 342 635 335 629 c 0,136,137
 329 622 329 622 321 614 c 0,138,139
 314 607 314 607 306 601 c 0,140,141
 299 596 299 596 293 590 c 0,142,143
 286 583 286 583 281 576 c 0,144,145
 275 568 275 568 269 562 c 0,146,147
 258 551 258 551 251 547 c 0,148,149
 244 542 244 542 241 538 c 0,150,151
 232 525 232 525 227 508 c 256,152,153
 222 491 222 491 215 472 c 0,154,155
 211 457 211 457 205 443 c 0,156,157
 198 429 198 429 196 415 c 0,158,159
 195 408 195 408 196 405 c 0,160,161
 198 402 198 402 197 396 c 0,162,163
 195 387 195 387 194 383 c 0,164,165
 192 380 192 380 191 377 c 0,166,167
 191 371 191 371 191 363 c 0,168,169
 192 355 192 355 193 346 c 0,170,171
 195 336 195 336 196 328 c 0,172,173
 197 319 197 319 197 315 c 0,174,175
 198 306 198 306 202 291 c 0,176,177
 205 275 205 275 212 261 c 0,178,179
 219 246 219 246 231 235 c 0,180,181
 243 225 243 225 262 225 c 0,182,183
 273 225 273 225 287 230 c 0,184,185
 300 235 300 235 312 243 c 0,186,187
 325 251 325 251 336 259 c 0,188,189
 348 266 348 266 356 272 c 0,190,191
 365 279 365 279 373 282 c 0,192,193
 380 286 380 286 388 291 c 0,194,195
 399 301 399 301 411 314 c 0,196,197
 423 326 423 326 434 338 c 0,198,199
 445 349 445 349 454 357 c 0,200,201
 464 365 464 365 471 365 c 0,202,203
 474 365 474 365 476 363 c 0,204,205
 467 346 467 346 462 331 c 0,206,207
 457 317 457 317 453 303 c 0,208,209
 450 290 450 290 447 279 c 0,210,211
 444 267 444 267 440 258 c 0,212,213
 436 254 436 254 431 251 c 0,214,215
 426 249 426 249 422 244 c 0,216,217
 418 237 418 237 416 232 c 0,218,219
 413 226 413 226 412 221 c 0,220,221
 410 216 410 216 408 212 c 0,222,223
 406 209 406 209 401 205 c 2,224,225
 401 205 401 205 400 204 c 0,226,227
 400 202 400 202 400 200 c 256,228,229
 400 198 400 198 399 197 c 2,230,-1
 399 196 l 2,231,232
 396 191 396 191 392 185 c 0,233,234
 387 179 387 179 383 173 c 0,235,236
 379 168 379 168 376 165 c 256,237,238
 373 162 373 162 373 162 c 2,239,240
 373 160 373 160 373 158 c 256,241,242
 373 156 373 156 373 155 c 0,243,244
 372 150 372 150 364 147 c 256,245,246
 356 144 356 144 351 139 c 0,247,248
 347 134 347 134 344 127 c 256,249,250
 341 120 341 120 338 116 c 0,251,252
 336 114 336 114 333 113 c 0,253,254
 329 112 329 112 328 111 c 0,255,256
 324 107 324 107 324 103 c 256,257,258
 324 99 324 99 320 96 c 0,259,260
 317 93 317 93 312 92 c 0,261,262
 308 90 308 90 304 87 c 0,263,264
 293 79 293 79 285 72 c 0,265,266
 277 64 277 64 269 58 c 256,267,268
 261 52 261 52 252 49 c 0,269,270
 243 45 243 45 230 45 c 0,271,272
 203 45 203 45 184 50 c 256,273,274
 165 55 165 55 153 61 c 0,275,276
 140 67 140 67 131 72 c 256,277,278
 122 77 122 77 116 77 c 256,279,280
 110 77 110 77 106 74 c 0,281,282
 101 71 101 71 97 67 c 0,283,284
 93 64 93 64 89 61 c 0,285,286
 86 58 86 58 83 58 c 0,287,288
 82 58 82 58 80 58 c 0,289,290
 78 59 78 59 77 59 c 0,291,292
 74 59 74 59 70 54 c 0,293,294
 66 50 66 50 62 44 c 0,295,296
 58 39 58 39 55 33 c 0,297,298
 52 28 52 28 51 26 c 0,299,300
 50 23 50 23 55 19 c 256,301,302
 60 15 60 15 67 11 c 0,303,304
 74 8 74 8 80 5 c 0,305,306
 87 2 87 2 89 1 c 0,307,308
 105 -6 105 -6 128 -9 c 0,309,310
 150 -12 150 -12 174 -12 c 0,311,312
 201 -12 201 -12 225 -7 c 0,313,314
 249 -3 249 -3 261 6 c 0,315,316
 265 9 265 9 267 13 c 0,317,318
 270 17 270 17 273 20 c 0,319,320
 277 23 277 23 283 26 c 0,321,322
 289 30 289 30 295 33 c 0,323,324
 301 37 301 37 306 40 c 0,325,326
 310 43 310 43 310 45 c 1,327,328
 310 44 310 44 314 47 c 0,329,330
 317 51 317 51 321 56 c 0,331,332
 325 60 325 60 329 66 c 0,333,334
 333 71 333 71 335 72 c 0,335,336
 341 78 341 78 350 85 c 256,337,338
 359 92 359 92 369 98 c 256,339,340
 379 104 379 104 387 110 c 0,341,342
 394 116 394 116 395 120 c 256,343,344
 396 124 396 124 398 124 c 0,345,346
 400 123 400 123 401 125 c 0,347,348
 405 130 405 130 406 137 c 256,349,350
 407 144 407 144 410 149 c 0,351,352
 412 150 412 150 415 151 c 0,353,354
 419 152 419 152 420 153 c 0,355,356
 425 158 425 158 426 163 c 0,357,358
 427 167 427 167 433 172 c 256,359,360
 439 177 439 177 447 182 c 0,361,362
 455 186 455 186 455 191 c 0,363,364
 455 193 455 193 460 199 c 0,365,366
 466 206 466 206 472 215 c 0,367,368
 478 223 478 223 484 231 c 256,369,370
 490 239 490 239 494 244 c 0,371,372
 497 250 497 250 503 256 c 0,373,374
 509 261 509 261 511 263 c 0,375,376
 513 266 513 266 515 273 c 0,377,378
 516 280 516 280 518 288 c 256,379,380
 520 296 520 296 521 303 c 0,381,382
 523 311 523 311 525 315 c 0,383,384
 526 316 526 316 530 319 c 256,385,386
 534 322 534 322 536 324 c 0,387,388
 539 332 539 332 541 341 c 256,389,390
 543 350 543 350 546 357 c 0,391,392
 554 369 554 369 557 378 c 256,393,394
 560 387 560 387 562 398 c 0,395,396
 565 414 565 414 566 430 c 256,397,398
 567 446 567 446 570 467 c 0,399,400
 572 476 572 476 576 486 c 0,401,402
 581 496 581 496 582 505 c 1,403,-1
 582 505 l 1,80,81
EndSplineSet
EndChar

StartChar: colon
Encoding: 58 58 29
Width: 231
VWidth: 1024
Flags: W
LayerCount: 2
Fore
SplineSet
277 365 m 1,0,1
 277 371 277 371 274 373 c 0,2,3
 272 375 272 375 268 376 c 256,4,5
 264 377 264 377 260 377 c 0,6,7
 256 378 256 378 251 380 c 0,8,9
 249 381 249 381 250 385 c 256,10,11
 251 389 251 389 246 389 c 256,12,13
 241 389 241 389 238 387 c 256,14,15
 235 385 235 385 233 384 c 0,16,17
 217 381 217 381 208 373 c 0,18,19
 198 365 198 365 195 356 c 0,20,21
 192 350 192 350 189 341 c 0,22,23
 185 332 185 332 182 321 c 0,24,25
 178 310 178 310 175 300 c 0,26,27
 172 289 172 289 170 281 c 0,28,29
 168 266 168 266 171 259 c 0,30,31
 175 251 175 251 192 251 c 0,32,33
 202 251 202 251 211 259 c 0,34,35
 219 268 219 268 227 281 c 256,36,37
 235 294 235 294 243 309 c 0,38,39
 250 324 250 324 258 337 c 0,40,41
 262 343 262 343 269 347 c 0,42,43
 275 351 275 351 277 359 c 0,44,45
 278 363 278 363 277 365 c 1,46,-1
 277 365 l 1,0,1
178 83 m 1,47,48
 177 88 177 88 175 90 c 0,49,50
 172 92 172 92 169 93 c 0,51,52
 165 93 165 93 160 94 c 0,53,54
 156 94 156 94 152 97 c 0,55,56
 151 97 151 97 151 99 c 0,57,58
 151 100 151 100 150 102 c 0,59,60
 150 104 150 104 149 105 c 256,61,62
 148 106 148 106 145 106 c 0,63,64
 141 106 141 106 138 104 c 256,65,66
 135 102 135 102 134 101 c 0,67,68
 118 98 118 98 109 90 c 256,69,70
 100 82 100 82 95 72 c 0,71,72
 94 67 94 67 90 58 c 0,73,74
 86 48 86 48 82 37 c 0,75,76
 79 26 79 26 76 15 c 256,77,78
 73 4 73 4 71 -3 c 0,79,80
 69 -17 69 -17 73 -25 c 0,81,82
 77 -32 77 -32 92 -32 c 0,83,84
 103 -32 103 -32 112 -24 c 0,85,86
 120 -15 120 -15 128 -2 c 0,87,88
 135 11 135 11 143 26 c 0,89,90
 150 41 150 41 159 54 c 0,91,92
 163 60 163 60 170 64 c 0,93,94
 176 68 176 68 177 77 c 0,95,96
 178 81 178 81 178 83 c 1,97,-1
 178 83 l 1,47,48
EndSplineSet
EndChar

StartChar: semicolon
Encoding: 59 59 30
Width: 233
VWidth: 1024
Flags: W
LayerCount: 2
Fore
SplineSet
284 365 m 1,0,1
 284 371 284 371 281 373 c 0,2,3
 279 375 279 375 275 376 c 256,4,5
 271 377 271 377 267 377 c 0,6,7
 263 378 263 378 258 380 c 0,8,9
 256 381 256 381 257 385 c 256,10,11
 258 389 258 389 253 389 c 256,12,13
 248 389 248 389 245 387 c 256,14,15
 242 385 242 385 240 384 c 0,16,17
 224 381 224 381 215 373 c 0,18,19
 205 365 205 365 202 356 c 0,20,21
 199 350 199 350 196 341 c 0,22,23
 192 332 192 332 189 321 c 0,24,25
 185 310 185 310 182 300 c 0,26,27
 179 289 179 289 177 281 c 0,28,29
 175 266 175 266 178 259 c 0,30,31
 182 251 182 251 199 251 c 0,32,33
 209 251 209 251 218 259 c 0,34,35
 226 268 226 268 234 281 c 256,36,37
 242 294 242 294 250 309 c 0,38,39
 257 324 257 324 265 337 c 0,40,41
 269 343 269 343 276 347 c 0,42,43
 282 351 282 351 284 359 c 0,44,45
 285 363 285 363 284 365 c 1,46,-1
 284 365 l 1,0,1
162 16 m 1,47,48
 163 22 163 22 161 27 c 0,49,50
 160 31 160 31 160 34 c 0,51,52
 160 36 160 36 162 38 c 256,53,54
 164 40 164 40 165 40 c 2,55,-1
 166 39 l 1,56,57
 166 58 166 58 164 69 c 0,58,59
 162 81 162 81 162 79 c 1,60,61
 163 82 163 82 164 84 c 256,62,63
 165 86 165 86 165 88 c 256,64,65
 165 90 165 90 163 93 c 0,66,67
 161 95 161 95 159 98 c 0,68,69
 156 100 156 100 154 103 c 0,70,71
 152 105 152 105 152 106 c 2,72,-1
 153 106 l 2,73,74
 149 107 149 107 146 107 c 0,75,76
 139 107 139 107 131 104 c 0,77,78
 123 102 123 102 123 101 c 2,79,-1
 124 101 l 2,80,81
 120 100 120 100 113 97 c 0,82,83
 107 93 107 93 100 88 c 0,84,85
 94 83 94 83 90 77 c 0,86,87
 85 71 85 71 84 64 c 0,88,89
 83 58 83 58 82 50 c 0,90,91
 82 42 82 42 82 33 c 0,92,93
 81 25 81 25 82 16 c 0,94,95
 82 8 82 8 83 1 c 0,96,97
 83 -3 83 -3 86 -8 c 0,98,99
 90 -13 90 -13 88 -20 c 0,100,101
 88 -26 88 -26 85 -31 c 0,102,103
 81 -36 81 -36 81 -37 c 0,104,105
 80 -44 80 -44 81 -48 c 0,106,107
 83 -53 83 -53 82 -58 c 0,108,109
 81 -60 81 -60 75 -68 c 0,110,111
 68 -75 68 -75 60 -85 c 0,112,113
 53 -94 53 -94 45 -105 c 0,114,115
 38 -116 38 -116 36 -125 c 0,116,117
 36 -128 36 -128 42 -132 c 0,118,119
 49 -136 49 -136 51 -136 c 0,120,121
 55 -135 55 -135 59 -132 c 0,122,123
 64 -129 64 -129 69 -126 c 0,124,125
 73 -122 73 -122 76 -119 c 256,126,127
 79 -116 79 -116 79 -116 c 2,128,129
 79 -114 79 -114 79 -113 c 0,130,131
 79 -111 79 -111 80 -109 c 2,132,133
 80 -109 80 -109 80 -108 c 0,134,135
 87 -100 87 -100 92 -97 c 256,136,137
 97 -94 97 -94 100 -92 c 0,138,139
 104 -89 104 -89 107 -85 c 0,140,141
 111 -80 111 -80 116 -70 c 0,142,143
 116 -68 116 -68 121 -63 c 0,144,145
 125 -57 125 -57 129 -51 c 0,146,147
 134 -45 134 -45 138 -39 c 0,148,149
 142 -34 142 -34 143 -32 c 0,150,151
 149 -18 149 -18 154 -6 c 0,152,153
 159 7 159 7 162 16 c 1,154,-1
 162 16 l 1,47,48
EndSplineSet
EndChar

StartChar: less
Encoding: 60 60 31
Width: 399
VWidth: 1024
Flags: W
LayerCount: 2
Fore
SplineSet
482 545 m 1,0,1
 485 549 485 549 486 556 c 0,2,3
 488 565 488 565 486 574 c 0,4,5
 485 583 485 583 479 583 c 0,6,7
 471 583 471 583 467 578 c 0,8,9
 464 574 464 574 460 572 c 0,10,11
 453 567 453 567 446 564 c 0,12,13
 439 562 439 562 431 557 c 0,14,15
 419 548 419 548 407 535 c 0,16,17
 396 523 396 523 386 515 c 0,18,19
 383 513 383 513 379 513 c 0,20,21
 376 512 376 512 373 511 c 0,22,23
 365 506 365 506 356 495 c 0,24,25
 347 485 347 485 342 481 c 0,26,27
 339 479 339 479 336 479 c 256,28,29
 333 479 333 479 329 477 c 0,30,31
 326 474 326 474 323 469 c 0,32,33
 321 465 321 465 315 462 c 0,34,35
 313 460 313 460 309 460 c 0,36,37
 305 459 305 459 303 458 c 0,38,39
 300 456 300 456 293 452 c 256,40,41
 286 448 286 448 279 444 c 0,42,43
 272 439 272 439 266 435 c 256,44,45
 260 431 260 431 260 427 c 0,46,47
 251 421 251 421 242 416 c 0,48,49
 233 412 233 412 222 405 c 0,50,51
 212 398 212 398 203 391 c 0,52,53
 195 383 195 383 187 378 c 0,54,55
 182 374 182 374 177 373 c 0,56,57
 172 371 172 371 168 370 c 0,58,59
 163 368 163 368 160 363 c 0,60,61
 157 359 157 359 155 350 c 0,62,63
 154 343 154 343 158 339 c 0,64,65
 163 335 163 335 169 331 c 0,66,67
 174 328 174 328 180 326 c 256,68,69
 186 324 186 324 188 321 c 0,70,71
 190 320 190 320 197 311 c 0,72,73
 205 303 205 303 214 294 c 0,74,75
 224 284 224 284 234 275 c 256,76,77
 244 266 244 266 256 253 c 0,78,79
 261 247 261 247 269 239 c 0,80,81
 277 232 277 232 286 224 c 0,82,83
 294 216 294 216 302 208 c 0,84,85
 309 200 309 200 314 192 c 0,86,87
 315 189 315 189 314 186 c 0,88,89
 314 183 314 183 315 181 c 0,90,91
 317 179 317 179 320 177 c 0,92,93
 324 175 324 175 327 173 c 0,94,95
 331 171 331 171 333 169 c 0,96,97
 336 167 336 167 335 163 c 0,98,99
 335 162 335 162 335 161 c 0,100,101
 334 160 334 160 334 158 c 1,102,-1
 334 158 l 1,103,104
 340 152 340 152 343 148 c 0,105,106
 347 144 347 144 349 141 c 0,107,108
 350 139 350 139 352 137 c 0,109,110
 354 136 354 136 357 136 c 0,111,112
 363 136 363 136 367 143 c 0,113,114
 371 151 371 151 373 160 c 0,115,116
 376 170 376 170 378 179 c 256,117,118
 380 188 380 188 382 192 c 0,119,120
 385 198 385 198 388 202 c 0,121,122
 392 205 392 205 394 207 c 0,123,124
 397 209 397 209 399 211 c 256,125,126
 401 213 401 213 402 218 c 0,127,128
 403 224 403 224 399 232 c 0,129,130
 395 241 395 241 387 251 c 0,131,132
 379 260 379 260 369 270 c 256,133,134
 359 280 359 280 350 291 c 0,135,136
 335 305 335 305 325 318 c 256,137,138
 315 331 315 331 302 344 c 0,139,140
 300 347 300 347 296 348 c 256,141,142
 292 349 292 349 289 352 c 0,143,144
 286 354 286 354 283 357 c 256,145,146
 280 360 280 360 278 363 c 256,147,148
 276 366 276 366 274 369 c 0,149,150
 272 371 272 371 272 371 c 2,151,152
 270 371 270 371 269 370 c 0,153,154
 267 370 267 370 266 370 c 0,155,156
 262 370 262 370 259 374 c 256,157,158
 256 378 256 378 255 384 c 0,159,160
 253 389 253 389 252 393 c 256,161,162
 251 397 251 397 251 396 c 1,163,164
 251 398 251 398 257 401 c 0,165,166
 262 404 262 404 269 407 c 0,167,168
 275 410 275 410 281 412 c 0,169,170
 287 415 287 415 288 416 c 0,171,172
 293 420 293 420 298 422 c 0,173,174
 302 424 302 424 305 427 c 0,175,176
 331 445 331 445 342 452 c 0,177,178
 354 459 354 459 360 463 c 0,179,180
 366 466 366 466 373 469 c 256,181,182
 380 472 380 472 395 481 c 0,183,184
 403 483 403 483 408 489 c 0,185,186
 413 494 413 494 416 495 c 0,187,188
 420 498 420 498 425 498 c 0,189,190
 429 497 429 497 433 500 c 0,191,192
 434 501 434 501 439 505 c 0,193,194
 443 509 443 509 447 514 c 0,195,196
 452 518 452 518 457 522 c 0,197,198
 461 526 461 526 464 526 c 256,199,200
 467 526 467 526 470 529 c 0,201,202
 474 532 474 532 476 536 c 0,203,204
 478 539 478 539 480 542 c 256,205,206
 482 545 482 545 482 545 c 1,207,-1
 482 545 l 1,0,1
EndSplineSet
EndChar

StartChar: equal
Encoding: 61 61 32
Width: 521
VWidth: 1024
Flags: W
LayerCount: 2
Fore
SplineSet
589 424 m 1,0,1
 586 427 586 427 583 427 c 0,2,3
 578 427 578 427 575 423 c 0,4,5
 572 418 572 418 569 416 c 0,6,7
 565 414 565 414 558 413 c 256,8,9
 551 412 551 412 544 408 c 0,10,11
 543 408 543 408 540 405 c 256,12,13
 537 402 537 402 536 401 c 0,14,15
 525 395 525 395 505 393 c 256,16,17
 485 391 485 391 462 391 c 0,18,19
 447 391 447 391 433 391 c 0,20,21
 418 392 418 392 405 393 c 0,22,23
 395 394 395 394 386 398 c 0,24,25
 377 401 377 401 365 401 c 0,26,27
 361 401 361 401 358 399 c 0,28,29
 356 398 356 398 352 398 c 0,30,31
 349 398 349 398 347 399 c 0,32,33
 344 401 344 401 343 401 c 0,34,35
 335 401 335 401 329 399 c 0,36,37
 324 398 324 398 317 398 c 0,38,39
 308 398 308 398 300 399 c 0,40,41
 291 401 291 401 287 401 c 0,42,43
 285 401 285 401 282 397 c 0,44,45
 279 394 279 394 275 389 c 0,46,47
 271 385 271 385 267 381 c 0,48,49
 263 378 263 378 261 378 c 0,50,51
 260 378 260 378 259 378 c 256,52,53
 258 378 258 378 256 378 c 0,54,55
 251 373 251 373 246 368 c 0,56,57
 241 364 241 364 236 358 c 0,58,59
 230 353 230 353 226 348 c 256,60,61
 222 343 222 343 217 339 c 0,62,63
 211 335 211 335 206 330 c 0,64,65
 201 326 201 326 197 321 c 0,66,67
 194 316 194 316 193 310 c 0,68,69
 192 306 192 306 196 306 c 0,70,71
 205 306 205 306 212 312 c 256,72,73
 219 318 219 318 229 321 c 0,74,75
 240 324 240 324 257 326 c 0,76,77
 273 327 273 327 288 327 c 0,78,79
 305 327 305 327 315 326 c 0,80,81
 326 324 326 324 331 324 c 0,82,83
 345 324 345 324 357 325 c 0,84,85
 368 326 368 326 377 326 c 0,86,87
 391 326 391 326 411 324 c 256,88,89
 431 322 431 322 453 322 c 0,90,91
 461 322 461 322 467 322 c 0,92,93
 472 322 472 322 477 323 c 0,94,95
 482 325 482 325 487 328 c 256,96,97
 492 331 492 331 497 336 c 0,98,99
 509 347 509 347 523 357 c 0,100,101
 537 368 537 368 549 378 c 0,102,103
 562 388 562 388 572 399 c 0,104,105
 583 410 583 410 589 424 c 1,106,-1
 589 424 l 1,0,1
527 298 m 1,107,108
 523 301 523 301 520 301 c 0,109,110
 516 301 516 301 513 297 c 0,111,112
 509 292 509 292 506 290 c 0,113,114
 502 287 502 287 495 287 c 0,115,116
 488 286 488 286 481 282 c 0,117,118
 480 281 480 281 478 279 c 0,119,120
 475 276 475 276 473 275 c 0,121,122
 463 269 463 269 443 267 c 0,123,124
 422 265 422 265 400 265 c 0,125,126
 385 265 385 265 370 266 c 0,127,128
 355 266 355 266 342 267 c 0,129,130
 332 268 332 268 323 271 c 256,131,132
 314 274 314 274 302 275 c 0,133,134
 298 275 298 275 295 273 c 0,135,136
 293 271 293 271 289 271 c 0,137,138
 286 271 286 271 283 273 c 0,139,140
 281 275 281 275 280 275 c 0,141,142
 271 275 271 275 265 273 c 256,143,144
 259 271 259 271 252 271 c 0,145,146
 244 271 244 271 236 273 c 256,147,148
 228 275 228 275 223 275 c 0,149,150
 221 275 221 275 218 271 c 256,151,152
 215 267 215 267 211 263 c 256,153,154
 207 259 207 259 204 255 c 0,155,156
 200 251 200 251 198 251 c 0,157,158
 197 251 197 251 195 252 c 0,159,160
 194 252 194 252 193 252 c 1,161,162
 193 251 193 251 183 243 c 0,163,164
 174 235 174 235 163 224 c 0,165,166
 151 212 151 212 141 201 c 256,167,168
 131 190 131 190 130 184 c 0,169,170
 129 180 129 180 132 180 c 0,171,172
 141 180 141 180 149 186 c 0,173,174
 156 192 156 192 166 195 c 0,175,176
 178 198 178 198 196 199 c 0,177,178
 213 201 213 201 229 201 c 0,179,180
 244 201 244 201 254 200 c 0,181,182
 263 198 263 198 268 198 c 0,183,184
 282 198 282 198 293 199 c 0,185,186
 303 200 303 200 313 200 c 0,187,188
 328 200 328 200 348 198 c 256,189,190
 368 196 368 196 391 196 c 0,191,192
 398 196 398 196 404 196 c 256,193,194
 410 196 410 196 414 197 c 0,195,196
 419 198 419 198 424 201 c 256,197,198
 429 204 429 204 434 210 c 0,199,200
 446 221 446 221 460 231 c 256,201,202
 474 241 474 241 486 252 c 0,203,204
 499 262 499 262 509 273 c 0,205,206
 520 284 520 284 527 298 c 1,207,-1
 527 298 l 1,107,108
EndSplineSet
EndChar

StartChar: greater
Encoding: 62 62 33
Width: 398
VWidth: 1024
Flags: W
LayerCount: 2
Fore
SplineSet
472 372 m 1,0,1
 472 378 472 378 467 382 c 0,2,3
 463 386 463 386 457 389 c 0,4,5
 452 392 452 392 446 394 c 0,6,7
 441 396 441 396 438 398 c 0,8,9
 437 401 437 401 436 401 c 0,10,11
 434 401 434 401 432 403 c 0,12,13
 427 406 427 406 422 413 c 0,14,15
 418 420 418 420 413 425 c 0,16,17
 402 434 402 434 392 443 c 0,18,19
 383 453 383 453 370 467 c 0,20,21
 364 473 364 473 356 481 c 0,22,23
 349 488 349 488 340 495 c 0,24,25
 331 503 331 503 324 511 c 0,26,27
 317 520 317 520 313 528 c 0,28,29
 312 530 312 530 313 533 c 256,30,31
 314 536 314 536 312 539 c 0,32,33
 310 541 310 541 306 543 c 0,34,35
 303 544 303 544 299 546 c 0,36,37
 296 548 296 548 293 550 c 0,38,39
 291 553 291 553 291 556 c 0,40,41
 291 557 291 557 292 559 c 0,42,43
 293 560 293 560 293 561 c 0,44,45
 293 564 293 564 290 568 c 256,46,47
 287 572 287 572 282 575 c 256,48,49
 277 578 277 578 273 581 c 0,50,51
 270 583 270 583 269 583 c 0,52,53
 263 583 263 583 260 576 c 0,54,55
 256 569 256 569 253 559 c 0,56,57
 251 550 251 550 249 541 c 256,58,59
 247 532 247 532 245 528 c 0,60,61
 242 521 242 521 239 518 c 0,62,63
 235 515 235 515 232 513 c 0,64,65
 230 511 230 511 227 509 c 0,66,67
 225 507 225 507 224 502 c 0,68,69
 223 496 223 496 227 488 c 0,70,71
 232 480 232 480 239 470 c 0,72,73
 247 460 247 460 257 450 c 0,74,75
 267 439 267 439 277 429 c 0,76,77
 291 415 291 415 301 401 c 0,78,79
 312 388 312 388 324 375 c 0,80,81
 328 373 328 373 331 372 c 0,82,83
 335 371 335 371 338 368 c 0,84,85
 340 366 340 366 343 363 c 0,86,87
 346 359 346 359 348 356 c 256,88,89
 350 353 350 353 353 351 c 0,90,91
 355 349 355 349 356 349 c 256,92,93
 357 349 357 349 358 349 c 256,94,95
 359 349 359 349 361 349 c 0,96,97
 364 349 364 349 368 345 c 0,98,99
 371 341 371 341 372 336 c 0,100,101
 374 331 374 331 375 327 c 256,102,103
 376 323 376 323 376 323 c 2,104,105
 375 321 375 321 370 318 c 0,106,107
 364 315 364 315 358 313 c 0,108,109
 352 310 352 310 346 307 c 0,110,111
 340 305 340 305 338 304 c 0,112,113
 333 300 333 300 329 297 c 0,114,115
 325 295 325 295 321 292 c 0,116,117
 303 279 303 279 292 272 c 0,118,119
 282 265 282 265 274 261 c 0,120,121
 267 258 267 258 262 255 c 0,122,123
 256 253 256 253 249 251 c 0,124,125
 248 250 248 250 247 247 c 256,126,127
 246 244 246 244 244 243 c 0,128,129
 241 241 241 241 238 241 c 0,130,131
 235 240 235 240 232 239 c 0,132,133
 225 235 225 235 219 230 c 256,134,135
 213 225 213 225 211 224 c 0,136,137
 206 221 206 221 202 222 c 256,138,139
 198 223 198 223 195 220 c 0,140,141
 192 218 192 218 188 214 c 256,142,143
 184 210 184 210 179 205 c 0,144,145
 175 201 175 201 170 197 c 0,146,147
 166 193 166 193 163 193 c 256,148,149
 160 193 160 193 157 190 c 0,150,151
 153 187 153 187 149 183 c 0,152,153
 146 178 146 178 143 173 c 0,154,155
 141 167 141 167 140 163 c 0,156,157
 139 154 139 154 141 145 c 0,158,159
 142 135 142 135 148 135 c 0,160,161
 155 135 155 135 159 141 c 0,162,163
 163 146 163 146 167 148 c 0,164,165
 172 153 172 153 180 155 c 0,166,167
 188 158 188 158 196 163 c 0,168,169
 209 172 209 172 220 184 c 0,170,171
 231 197 231 197 241 205 c 0,172,173
 244 207 244 207 247 207 c 0,174,175
 251 207 251 207 254 209 c 0,176,177
 261 214 261 214 270 225 c 0,178,179
 279 235 279 235 285 239 c 0,180,181
 288 240 288 240 291 241 c 0,182,183
 294 241 294 241 297 243 c 256,184,185
 300 245 300 245 303 249 c 0,186,187
 307 253 307 253 312 258 c 0,188,189
 317 262 317 262 323 266 c 0,190,191
 329 269 329 269 336 269 c 0,192,193
 340 270 340 270 346 273 c 0,194,195
 352 277 352 277 356 281 c 0,196,197
 361 286 361 286 367 292 c 0,198,199
 382 303 382 303 403 317 c 0,200,201
 425 330 425 330 440 342 c 0,202,203
 445 345 445 345 450 347 c 0,204,205
 455 348 455 348 459 350 c 0,206,207
 464 352 464 352 467 356 c 256,208,209
 470 360 470 360 471 370 c 2,210,-1
 472 372 l 1,211,-1
 472 372 l 1,0,1
EndSplineSet
EndChar

StartChar: question
Encoding: 63 63 34
Width: 437
VWidth: 1024
Flags: W
LayerCount: 2
Fore
SplineSet
258 83 m 1,0,1
 258 88 258 88 255 90 c 0,2,3
 253 92 253 92 249 93 c 0,4,5
 245 93 245 93 240 94 c 0,6,7
 236 94 236 94 232 97 c 0,8,9
 230 97 230 97 230 99 c 0,10,11
 230 100 230 100 230 102 c 256,12,13
 230 104 230 104 229 105 c 256,14,15
 228 106 228 106 225 106 c 0,16,17
 221 106 221 106 218 104 c 256,18,19
 215 102 215 102 214 101 c 0,20,21
 197 98 197 98 188 90 c 256,22,23
 179 82 179 82 175 72 c 0,24,25
 173 67 173 67 170 58 c 0,26,27
 166 49 166 49 163 38 c 0,28,29
 159 27 159 27 156 17 c 0,30,31
 153 6 153 6 151 -2 c 0,32,33
 148 -17 148 -17 153 -25 c 0,34,35
 157 -32 157 -32 172 -32 c 0,36,37
 183 -32 183 -32 191 -24 c 0,38,39
 200 -15 200 -15 208 -2 c 256,40,41
 216 11 216 11 223 26 c 256,42,43
 230 41 230 41 239 54 c 0,44,45
 242 60 242 60 249 64 c 256,46,47
 256 68 256 68 258 77 c 0,48,49
 258 81 258 81 258 83 c 1,50,-1
 258 83 l 1,0,1
550 500 m 1,51,52
 555 511 555 511 557 520 c 256,53,54
 559 529 559 529 560 537 c 0,55,56
 563 551 563 551 562 563 c 0,57,58
 562 574 562 574 562 590 c 0,59,60
 561 602 561 602 562 610 c 0,61,62
 562 619 562 619 562 627 c 0,63,64
 561 635 561 635 558 643 c 256,65,66
 555 651 555 651 550 661 c 0,67,68
 549 664 549 664 546 666 c 256,69,70
 543 668 543 668 543 671 c 0,71,72
 541 674 541 674 541 678 c 256,73,74
 541 682 541 682 540 686 c 0,75,76
 537 691 537 691 532 695 c 0,77,78
 528 698 528 698 524 704 c 0,79,80
 520 712 520 712 518 718 c 0,81,82
 516 725 516 725 515 728 c 0,83,84
 512 731 512 731 505 734 c 0,85,86
 499 737 499 737 493 742 c 256,87,88
 487 747 487 747 484 752 c 0,89,90
 482 757 482 757 472 757 c 0,91,92
 464 757 464 757 462 753 c 0,93,94
 461 749 461 749 456 747 c 0,95,96
 450 745 450 745 446 743 c 0,97,98
 441 742 441 742 437 740 c 256,99,100
 433 738 433 738 428 737 c 0,101,102
 427 737 427 737 425 737 c 0,103,104
 424 738 424 738 422 738 c 0,105,106
 419 738 419 738 414 733 c 0,107,108
 410 728 410 728 408 728 c 256,109,110
 406 728 406 728 404 728 c 256,111,112
 402 728 402 728 401 728 c 0,113,114
 399 728 399 728 394 723 c 256,115,116
 389 718 389 718 387 718 c 0,117,118
 386 718 386 718 384 718 c 0,119,120
 382 719 382 719 381 719 c 0,121,122
 377 719 377 719 370 711 c 0,123,124
 363 704 363 704 357 700 c 0,125,126
 347 693 347 693 337 687 c 0,127,128
 328 681 328 681 319 675 c 0,129,130
 317 674 317 674 311 668 c 0,131,132
 305 663 305 663 300 658 c 0,133,134
 294 653 294 653 290 648 c 256,135,136
 286 643 286 643 286 642 c 0,137,138
 284 639 284 639 283 639 c 0,139,140
 281 640 281 640 280 638 c 0,141,142
 244 594 244 594 227 561 c 0,143,144
 211 529 211 529 209 518 c 0,145,146
 207 509 207 509 206 502 c 0,147,148
 206 494 206 494 204 481 c 0,149,150
 204 476 204 476 200 467 c 256,151,152
 196 458 196 458 194 447 c 0,153,154
 190 427 190 427 193 415 c 256,155,156
 196 403 196 403 204 403 c 0,157,158
 209 403 209 403 216 406 c 0,159,160
 222 410 222 410 227 415 c 0,161,162
 233 420 233 420 237 424 c 0,163,164
 242 428 242 428 243 429 c 0,165,166
 247 431 247 431 250 431 c 0,167,168
 254 431 254 431 257 431 c 2,169,-1
 265 431 l 2,170,171
 269 431 269 431 272 432 c 0,172,173
 275 434 275 434 278 439 c 1,174,175
 275 450 275 450 278 461 c 0,176,177
 280 471 280 471 275 476 c 0,178,179
 274 476 274 476 274 478 c 0,180,181
 275 479 275 479 277 480 c 256,182,183
 279 481 279 481 280 481 c 1,184,-1
 280 481 l 1,185,186
 280 488 280 488 280 494 c 0,187,188
 279 499 279 499 279 505 c 256,189,190
 279 511 279 511 279 517 c 256,191,192
 279 523 279 523 280 533 c 0,193,194
 282 541 282 541 284 552 c 0,195,196
 287 564 287 564 291 576 c 0,197,198
 294 588 294 588 300 601 c 0,199,200
 305 613 305 613 310 624 c 0,201,202
 313 628 313 628 318 631 c 0,203,204
 324 633 324 633 328 638 c 0,205,206
 330 641 330 641 333 647 c 0,207,208
 336 654 336 654 340 660 c 256,209,210
 344 666 344 666 348 671 c 0,211,212
 351 675 351 675 354 675 c 2,213,-1
 357 675 l 2,214,215
 361 676 361 676 365 680 c 0,216,217
 370 684 370 684 377 684 c 0,218,219
 386 684 386 684 392 679 c 0,220,221
 399 674 399 674 409 671 c 2,222,223
 409 671 409 671 411 670 c 256,224,225
 413 669 413 669 416 668 c 0,226,227
 420 666 420 666 423 664 c 0,228,229
 426 663 426 663 426 661 c 0,230,231
 429 660 429 660 428 655 c 256,232,233
 427 650 427 650 429 647 c 256,234,235
 431 644 431 644 435 645 c 0,236,237
 440 645 440 645 442 642 c 0,238,239
 453 630 453 630 455 619 c 0,240,241
 458 609 458 609 463 600 c 0,242,243
 467 593 467 593 470 591 c 0,244,245
 473 588 473 588 474 581 c 0,246,247
 477 565 477 565 476 545 c 0,248,249
 474 525 474 525 471 504 c 0,250,251
 468 487 468 487 464 471 c 0,252,253
 459 455 459 455 454 443 c 0,254,255
 454 442 454 442 454 440 c 0,256,257
 453 438 453 438 453 436 c 0,258,259
 452 427 452 427 444 421 c 0,260,261
 437 415 437 415 434 410 c 0,262,263
 431 403 431 403 429 398 c 0,264,265
 428 393 428 393 427 390 c 0,266,267
 426 386 426 386 425 383 c 256,268,269
 424 380 424 380 419 377 c 0,270,271
 389 350 389 350 357 324 c 256,272,273
 325 298 325 298 299 275 c 256,274,275
 273 252 273 252 255 233 c 0,276,277
 238 214 238 214 236 201 c 0,278,279
 235 198 235 198 233 198 c 0,280,281
 232 198 232 198 230 197 c 0,282,283
 225 186 225 186 219 174 c 0,284,285
 214 162 214 162 212 154 c 0,286,287
 211 147 211 147 221 144 c 0,288,289
 230 142 230 142 243 142 c 0,290,291
 257 142 257 142 265 152 c 256,292,293
 273 162 273 162 278 176 c 0,294,295
 284 190 284 190 288 205 c 256,296,297
 292 220 292 220 298 230 c 0,298,299
 300 231 300 231 306 236 c 0,300,301
 312 240 312 240 315 244 c 0,302,303
 342 276 342 276 365 297 c 0,304,305
 387 318 387 318 406 333 c 0,306,307
 424 347 424 347 437 358 c 256,308,309
 450 369 450 369 458 382 c 0,310,311
 459 383 459 383 463 384 c 256,312,313
 467 385 467 385 468 386 c 0,314,315
 487 406 487 406 496 419 c 256,316,317
 505 432 505 432 511 439 c 256,318,319
 517 446 517 446 524 452 c 256,320,321
 531 458 531 458 534 462 c 0,322,323
 537 467 537 467 542 480 c 0,324,325
 547 492 547 492 550 500 c 1,326,-1
 550 500 l 1,51,52
EndSplineSet
EndChar

StartChar: at
Encoding: 64 64 35
Width: 573
VWidth: 1024
Flags: W
LayerCount: 2
Fore
SplineSet
381 200 m 1,0,1
 377 181 377 181 374 168 c 0,2,3
 371 154 371 154 367 142 c 256,4,5
 363 130 363 130 355 118 c 0,6,7
 347 107 347 107 333 93 c 0,8,9
 328 88 328 88 320 81 c 256,10,11
 312 74 312 74 303 68 c 256,12,13
 294 62 294 62 286 58 c 0,14,15
 277 53 277 53 271 53 c 0,16,17
 268 53 268 53 269 61 c 0,18,19
 270 68 270 68 271 74 c 0,20,21
 275 96 275 96 281 118 c 0,22,23
 287 141 287 141 294 162 c 0,24,25
 301 180 301 180 312 198 c 256,26,27
 323 216 323 216 331 230 c 0,28,29
 331 231 331 231 335 234 c 0,30,31
 338 237 338 237 342 240 c 0,32,33
 345 244 345 244 348 247 c 0,34,35
 351 251 351 251 352 252 c 0,36,37
 352 254 352 254 352 255 c 0,38,39
 352 257 352 257 352 258 c 0,40,41
 352 261 352 261 356 264 c 256,42,43
 360 267 360 267 364 271 c 0,44,45
 369 274 369 274 373 277 c 256,46,47
 377 280 377 280 378 281 c 0,48,49
 380 283 380 283 384 287 c 0,50,51
 387 291 387 291 391 295 c 0,52,53
 396 299 396 299 400 302 c 256,54,55
 404 305 404 305 408 305 c 1,56,57
 408 305 408 305 408 302 c 0,58,59
 408 300 408 300 408 296 c 0,60,61
 407 293 407 293 407 290 c 0,62,63
 406 287 406 287 406 286 c 0,64,65
 404 275 404 275 401 268 c 0,66,67
 399 260 399 260 396 251 c 0,68,69
 392 242 392 242 389 230 c 0,70,71
 385 218 385 218 381 200 c 1,72,-1
 381 200 l 1,0,1
641 388 m 1,73,74
 641 392 641 392 641 400 c 0,75,76
 641 409 641 409 641 413 c 0,77,78
 640 417 640 417 637 421 c 0,79,80
 633 425 633 425 632 431 c 0,81,82
 630 434 630 434 630 438 c 0,83,84
 630 441 630 441 629 444 c 0,85,86
 628 446 628 446 626 448 c 0,87,88
 623 450 623 450 622 452 c 0,89,90
 614 467 614 467 601 486 c 0,91,92
 589 505 589 505 576 521 c 0,93,94
 564 537 564 537 551 549 c 0,95,96
 538 560 538 560 529 560 c 0,97,98
 513 560 513 560 499 554 c 256,99,100
 485 548 485 548 472 539 c 256,101,102
 459 530 459 530 448 521 c 0,103,104
 437 511 437 511 426 504 c 0,105,106
 422 501 422 501 419 497 c 0,107,108
 415 493 415 493 411 490 c 0,109,110
 406 487 406 487 400 486 c 256,111,112
 394 485 394 485 389 482 c 0,113,114
 382 478 382 478 375 472 c 0,115,116
 368 465 368 465 361 459 c 0,117,118
 354 452 354 452 349 448 c 0,119,120
 343 443 343 443 341 443 c 0,121,122
 340 443 340 443 338 444 c 0,123,124
 336 444 336 444 335 444 c 1,125,126
 335 443 335 443 331 440 c 0,127,128
 328 437 328 437 323 433 c 0,129,130
 318 430 318 430 314 426 c 0,131,132
 310 423 310 423 309 422 c 0,133,134
 300 410 300 410 287 399 c 0,135,136
 275 389 275 389 262 379 c 0,137,138
 249 370 249 370 236 360 c 0,139,140
 224 350 224 350 214 341 c 0,141,142
 211 338 211 338 208 333 c 0,143,144
 206 328 206 328 202 324 c 0,145,146
 200 322 200 322 197 322 c 0,147,148
 194 321 194 321 193 319 c 0,149,150
 190 317 190 317 190 314 c 0,151,152
 189 310 189 310 186 307 c 0,153,154
 178 298 178 298 167 291 c 256,155,156
 156 284 156 284 151 277 c 0,157,158
 147 272 147 272 144 262 c 0,159,160
 142 252 142 252 136 243 c 0,161,162
 135 240 135 240 130 236 c 256,163,164
 125 232 125 232 125 229 c 0,165,166
 125 228 125 228 125 227 c 256,167,168
 125 226 125 226 125 226 c 2,169,170
 125 222 125 222 123 222 c 0,171,172
 121 223 121 223 120 221 c 0,173,174
 111 209 111 209 108 197 c 0,175,176
 104 184 104 184 102 174 c 0,177,178
 100 163 100 163 98 153 c 0,179,180
 95 144 95 144 88 136 c 0,181,182
 83 123 83 123 80 111 c 0,183,184
 78 99 78 99 76 86 c 0,185,186
 72 64 72 64 63 40 c 256,187,188
 54 16 54 16 50 -5 c 0,189,190
 49 -11 49 -11 51 -13 c 0,191,192
 52 -16 52 -16 51 -20 c 0,193,194
 50 -25 50 -25 48 -27 c 256,195,196
 46 -29 46 -29 45 -34 c 256,197,198
 44 -39 44 -39 45 -42 c 0,199,200
 47 -44 47 -44 46 -52 c 0,201,202
 45 -55 45 -55 44 -59 c 0,203,204
 43 -62 43 -62 43 -65 c 0,205,206
 42 -69 42 -69 45 -75 c 0,207,208
 49 -81 49 -81 49 -85 c 0,209,210
 48 -87 48 -87 48 -88 c 0,211,212
 47 -90 47 -90 46 -92 c 0,213,214
 46 -97 46 -97 50 -97 c 0,215,216
 53 -97 53 -97 55 -99 c 0,217,218
 58 -108 58 -108 58 -118 c 0,219,220
 59 -128 59 -128 62 -134 c 0,221,222
 63 -135 63 -135 68 -139 c 0,223,224
 74 -143 74 -143 80 -150 c 0,225,226
 85 -156 85 -156 87 -161 c 0,227,228
 90 -165 90 -165 93 -168 c 256,229,230
 96 -171 96 -171 100 -174 c 256,231,232
 104 -177 104 -177 113 -180 c 0,233,234
 126 -186 126 -186 137 -193 c 256,235,236
 148 -200 148 -200 159 -207 c 0,237,238
 169 -214 169 -214 177 -219 c 0,239,240
 184 -224 184 -224 190 -224 c 0,241,242
 195 -224 195 -224 198 -222 c 0,243,244
 200 -220 200 -220 201 -217 c 256,245,246
 202 -214 202 -214 203 -210 c 256,247,248
 204 -206 204 -206 207 -202 c 0,249,250
 209 -200 209 -200 211 -199 c 0,251,252
 212 -199 212 -199 214 -198 c 256,253,254
 216 -197 216 -197 218 -194 c 256,255,256
 220 -191 220 -191 223 -184 c 0,257,258
 225 -183 225 -183 228 -182 c 0,259,260
 232 -181 232 -181 233 -180 c 256,261,262
 234 -179 234 -179 237 -172 c 256,263,264
 240 -165 240 -165 242 -157 c 0,265,266
 246 -148 246 -148 249 -137 c 1,267,268
 249 -137 249 -137 241 -133 c 0,269,270
 233 -128 233 -128 223 -123 c 0,271,272
 212 -118 212 -118 202 -112 c 0,273,274
 192 -107 192 -107 186 -103 c 0,275,276
 177 -99 177 -99 166 -94 c 256,277,278
 155 -89 155 -89 145 -84 c 0,279,280
 135 -80 135 -80 129 -73 c 0,281,282
 123 -67 123 -67 125 -60 c 0,283,284
 126 -55 126 -55 128 -49 c 0,285,286
 129 -43 129 -43 130 -36 c 0,287,288
 131 -31 131 -31 130 -27 c 0,289,290
 130 -23 130 -23 128 -18 c 0,291,292
 127 -13 127 -13 126 -8 c 0,293,294
 125 -2 125 -2 127 6 c 0,295,296
 128 15 128 15 132 23 c 0,297,298
 135 32 135 32 139 41 c 0,299,300
 142 50 142 50 146 60 c 0,301,302
 149 71 149 71 151 83 c 0,303,304
 153 90 153 90 154 97 c 0,305,306
 155 103 155 103 155 109 c 0,307,308
 158 126 158 126 165 142 c 0,309,310
 171 159 171 159 178 175 c 0,311,312
 184 190 184 190 190 205 c 0,313,314
 197 219 197 219 198 232 c 0,315,316
 200 237 200 237 200 242 c 0,317,318
 200 246 200 246 201 250 c 0,319,320
 202 257 202 257 207 263 c 0,321,322
 211 268 211 268 216 277 c 0,323,324
 223 291 223 291 224 297 c 256,325,326
 225 303 225 303 229 307 c 0,327,328
 245 321 245 321 256 332 c 256,329,330
 267 343 267 343 280 354 c 0,331,332
 305 375 305 375 325 395 c 256,333,334
 345 415 345 415 366 431 c 0,335,336
 373 436 373 436 382 442 c 256,337,338
 391 448 391 448 399 454 c 0,339,340
 408 460 408 460 416 464 c 0,341,342
 423 468 423 468 424 469 c 0,343,344
 435 476 435 476 448 481 c 0,345,346
 461 487 461 487 473 487 c 0,347,348
 483 487 483 487 491 479 c 0,349,350
 498 472 498 472 505 465 c 0,351,352
 513 457 513 457 524 444 c 0,353,354
 536 431 536 431 545 417 c 0,355,356
 554 402 554 402 560 387 c 0,357,358
 566 371 566 371 564 358 c 0,359,360
 562 349 562 349 558 337 c 256,361,362
 554 325 554 325 550 312 c 0,363,364
 543 284 543 284 538 257 c 0,365,366
 533 229 533 229 523 205 c 0,367,368
 512 177 512 177 505 154 c 0,369,370
 499 132 499 132 489 111 c 0,371,372
 483 98 483 98 479 91 c 0,373,374
 476 83 476 83 472 78 c 256,375,376
 468 73 468 73 463 69 c 0,377,378
 458 66 458 66 450 59 c 0,379,380
 443 54 443 54 437 49 c 0,381,382
 432 44 432 44 427 44 c 0,383,384
 426 44 426 44 424 45 c 256,385,386
 422 46 422 46 422 50 c 0,387,388
 423 53 423 53 424 56 c 0,389,390
 425 60 425 60 425 62 c 0,391,392
 426 66 426 66 425 68 c 256,393,394
 424 70 424 70 422 72 c 0,395,396
 420 73 420 73 420 76 c 0,397,398
 419 79 419 79 420 86 c 0,399,400
 422 98 422 98 427 110 c 0,401,402
 431 123 431 123 436 136 c 256,403,404
 441 149 441 149 446 163 c 0,405,406
 450 178 450 178 453 195 c 0,407,408
 455 207 455 207 457 219 c 256,409,410
 459 231 459 231 460 243 c 0,411,412
 464 263 464 263 472 281 c 0,413,414
 480 300 480 300 482 315 c 0,415,416
 487 342 487 342 485 357 c 0,417,418
 483 373 483 373 473 373 c 0,419,420
 467 373 467 373 461 367 c 0,421,422
 454 362 454 362 446 362 c 0,423,424
 445 362 445 362 444 362 c 0,425,426
 443 363 443 363 441 363 c 0,427,428
 438 363 438 363 437 358 c 0,429,430
 435 354 435 354 432 354 c 0,431,432
 431 354 431 354 429 354 c 256,433,434
 427 354 427 354 426 354 c 1,435,436
 427 354 427 354 419 348 c 0,437,438
 410 342 410 342 399 334 c 0,439,440
 387 327 387 327 376 320 c 0,441,442
 365 314 365 314 362 312 c 256,443,444
 359 310 359 310 350 304 c 0,445,446
 342 298 342 298 332 292 c 0,447,448
 323 286 323 286 316 280 c 0,449,450
 308 273 308 273 308 270 c 0,451,452
 308 269 308 269 308 267 c 256,453,454
 308 265 308 265 307 264 c 0,455,456
 307 263 307 263 303 262 c 256,457,458
 299 261 299 261 298 260 c 0,459,460
 287 252 287 252 280 247 c 0,461,462
 273 241 273 241 268 235 c 256,463,464
 263 229 263 229 260 221 c 256,465,466
 257 213 257 213 255 201 c 0,467,468
 251 179 251 179 241 162 c 0,469,470
 231 146 231 146 225 141 c 0,471,472
 222 134 222 134 220 127 c 0,473,474
 219 120 219 120 218 112 c 0,475,476
 216 101 216 101 213 93 c 256,477,478
 210 85 210 85 207 78 c 256,479,480
 204 71 204 71 202 66 c 0,481,482
 199 60 199 60 197 55 c 0,483,484
 191 38 191 38 188 27 c 0,485,486
 184 16 184 16 183 8 c 0,487,488
 183 5 183 5 184 -1 c 256,489,490
 185 -7 185 -7 187 -13 c 0,491,492
 188 -18 188 -18 190 -23 c 0,493,494
 191 -27 191 -27 192 -27 c 256,495,496
 193 -27 193 -27 195 -27 c 0,497,498
 197 -26 197 -26 198 -26 c 0,499,500
 204 -26 204 -26 206 -30 c 0,501,502
 208 -33 208 -33 211 -33 c 0,503,504
 216 -33 216 -33 223 -29 c 0,505,506
 230 -24 230 -24 237 -19 c 256,507,508
 244 -14 244 -14 250 -10 c 0,509,510
 255 -5 255 -5 256 -5 c 0,511,512
 258 -5 258 -5 259 -5 c 0,513,514
 261 -6 261 -6 262 -6 c 0,515,516
 266 -6 266 -6 271 2 c 0,517,518
 277 10 277 10 279 12 c 0,519,520
 288 19 288 19 297 25 c 0,521,522
 307 31 307 31 314 38 c 0,523,524
 316 40 316 40 319 44 c 0,525,526
 321 48 321 48 324 52 c 0,527,528
 327 55 327 55 330 58 c 256,529,530
 333 61 333 61 337 61 c 0,531,532
 340 61 340 61 343 59 c 0,533,534
 338 39 338 39 334 27 c 0,535,536
 329 16 329 16 328 8 c 0,537,538
 328 2 328 2 328 -3 c 256,539,540
 328 -8 328 -8 330 -14 c 1,541,542
 329 -13 329 -13 335 -16 c 0,543,544
 340 -19 340 -19 345 -23 c 0,545,546
 351 -27 351 -27 356 -31 c 256,547,548
 361 -35 361 -35 361 -35 c 2,549,550
 361 -34 361 -34 361 -34 c 1,551,-1
 361 -32 l 2,552,553
 362 -32 362 -32 366 -30 c 256,554,555
 370 -28 370 -28 374 -25 c 0,556,557
 379 -22 379 -22 384 -18 c 0,558,559
 389 -15 389 -15 391 -14 c 0,560,561
 399 -8 399 -8 413 -1 c 256,562,563
 427 6 427 6 433 12 c 0,564,565
 439 17 439 17 446 25 c 0,566,567
 454 33 454 33 459 34 c 0,568,569
 469 34 469 34 476 39 c 0,570,571
 484 44 484 44 491 50 c 0,572,573
 497 57 497 57 503 64 c 256,574,575
 509 71 509 71 513 76 c 0,576,577
 519 82 519 82 526 87 c 0,578,579
 534 92 534 92 534 94 c 256,580,581
 534 96 534 96 534 98 c 256,582,583
 534 100 534 100 534 102 c 0,584,585
 536 107 536 107 539 109 c 0,586,587
 543 111 543 111 547 113 c 0,588,589
 551 114 551 114 555 116 c 256,590,591
 559 118 559 118 560 121 c 0,592,593
 560 123 560 123 560 125 c 256,594,595
 560 127 560 127 560 128 c 0,596,597
 561 132 561 132 565 137 c 256,598,599
 569 142 569 142 574 146 c 0,600,601
 579 151 579 151 584 154 c 0,602,603
 588 158 588 158 588 159 c 0,604,605
 589 165 589 165 589 176 c 256,606,607
 589 187 589 187 590 196 c 0,608,609
 590 200 590 200 592 199 c 0,610,611
 595 198 595 198 595 201 c 0,612,613
 596 206 596 206 594 208 c 256,614,615
 592 210 592 210 593 217 c 0,616,617
 595 228 595 228 600 244 c 0,618,619
 605 259 605 259 610 275 c 0,620,621
 614 290 614 290 619 302 c 0,622,623
 623 314 623 314 625 319 c 2,624,-1
 626 328 l 2,625,626
 629 345 629 345 633 357 c 0,627,628
 638 369 638 369 640 381 c 2,629,-1
 641 388 l 1,630,-1
 641 388 l 1,73,74
EndSplineSet
EndChar

StartChar: A
Encoding: 65 65 36
Width: 629
VWidth: 1024
Flags: W
LayerCount: 2
Fore
SplineSet
485 251 m 1,0,1
 480 247 480 247 474 245 c 0,2,3
 468 244 468 244 460 243 c 0,4,5
 452 243 452 243 443 243 c 256,6,7
 434 243 434 243 426 242 c 0,8,9
 387 237 387 237 343 230 c 256,10,11
 299 223 299 223 257 223 c 1,12,13
 265 247 265 247 280 269 c 0,14,15
 296 291 296 291 311 313 c 0,16,17
 325 335 325 335 338 358 c 0,18,19
 350 382 350 382 365 403 c 0,20,21
 379 424 379 424 396 444 c 0,22,23
 412 464 412 464 426 484 c 0,24,25
 435 496 435 496 442 509 c 0,26,27
 450 522 450 522 457 535 c 0,28,29
 465 548 465 548 473 561 c 0,30,31
 481 573 481 573 491 584 c 1,32,-1
 492 584 l 2,33,34
 495 584 495 584 497 575 c 0,35,36
 499 567 499 567 499 553 c 0,37,38
 500 539 500 539 499 522 c 0,39,40
 498 504 498 504 497 487 c 0,41,42
 495 469 495 469 494 453 c 0,43,44
 492 438 492 438 492 427 c 2,45,-1
 489 413 l 1,46,47
 491 398 491 398 490 373 c 0,48,49
 488 349 488 349 488 322 c 0,50,51
 488 314 488 314 489 304 c 0,52,53
 491 294 491 294 491 284 c 0,54,55
 490 279 490 279 488 278 c 0,56,57
 485 277 485 277 485 275 c 1,58,59
 485 276 485 276 487 270 c 256,60,61
 489 264 489 264 488 258 c 0,62,63
 487 254 487 254 485 251 c 1,64,-1
 485 251 l 1,0,1
651 38 m 1,65,66
 649 44 649 44 639 44 c 0,67,68
 630 44 630 44 618 41 c 0,69,70
 606 39 606 39 595 39 c 0,71,72
 585 39 585 39 581 42 c 0,73,74
 580 43 580 43 578 50 c 0,75,76
 577 57 577 57 575 65 c 0,77,78
 572 74 572 74 571 81 c 0,79,80
 571 88 571 88 571 90 c 0,81,82
 571 93 571 93 571 99 c 0,83,84
 572 104 572 104 574 111 c 0,85,86
 576 117 576 117 577 123 c 0,87,88
 579 135 579 135 576 143 c 0,89,90
 574 152 574 152 574 162 c 0,91,92
 573 181 573 181 578 202 c 0,93,94
 582 223 582 223 583 242 c 0,95,96
 583 249 583 249 580 258 c 0,97,98
 577 266 577 266 578 275 c 0,99,100
 579 279 579 279 580 283 c 0,101,102
 582 287 582 287 583 291 c 0,103,104
 584 301 584 301 582 311 c 0,105,106
 579 321 579 321 580 332 c 0,107,108
 581 348 581 348 583 367 c 0,109,110
 585 385 585 385 585 405 c 0,111,112
 586 424 586 424 586 442 c 0,113,114
 585 460 585 460 581 474 c 0,115,116
 579 487 579 487 579 497 c 0,117,118
 579 506 579 506 579 508 c 256,119,120
 579 510 579 510 582 513 c 256,121,122
 585 516 585 516 586 523 c 0,123,124
 588 534 588 534 587 542 c 256,125,126
 586 550 586 550 586 560 c 0,127,128
 586 569 586 569 588 582 c 256,129,130
 590 595 590 595 593 609 c 0,131,132
 595 623 595 623 597 635 c 256,133,134
 599 647 599 647 599 655 c 0,135,136
 599 659 599 659 597 664 c 256,137,138
 595 669 595 669 592 674 c 0,139,140
 590 678 590 678 588 682 c 256,141,142
 586 686 586 686 586 688 c 0,143,144
 585 695 585 695 586 699 c 0,145,146
 586 704 586 704 586 707 c 256,147,148
 586 710 586 710 582 711 c 0,149,150
 579 712 579 712 570 712 c 256,151,152
 561 712 561 712 557 706 c 256,153,154
 553 700 553 700 549 698 c 0,155,156
 543 695 543 695 535 695 c 0,157,158
 528 696 528 696 520 693 c 0,159,160
 517 691 517 691 511 685 c 0,161,162
 504 679 504 679 498 674 c 0,163,164
 490 669 490 669 484 668 c 0,165,166
 477 666 477 666 476 663 c 0,167,168
 476 661 476 661 476 659 c 0,169,170
 476 658 476 658 476 656 c 0,171,172
 476 655 476 655 468 652 c 256,173,174
 460 649 460 649 451 644 c 0,175,176
 441 640 441 640 432 634 c 0,177,178
 424 628 424 628 422 622 c 0,179,180
 420 618 420 618 417 614 c 0,181,182
 413 611 413 611 409 608 c 256,183,184
 405 605 405 605 401 602 c 0,185,186
 398 599 398 599 397 595 c 0,187,188
 396 589 396 589 400 586 c 0,189,190
 405 584 405 584 408 584 c 0,191,192
 412 584 412 584 417 586 c 0,193,194
 422 589 422 589 427 592 c 0,195,196
 432 596 432 596 436 598 c 0,197,198
 441 601 441 601 445 601 c 0,199,200
 447 601 447 601 451 598 c 1,201,202
 445 583 445 583 435 567 c 0,203,204
 426 550 426 550 415 535 c 0,205,206
 405 520 405 520 396 509 c 0,207,208
 388 497 388 497 385 494 c 0,209,210
 382 489 382 489 382 485 c 0,211,212
 381 480 381 480 378 474 c 0,213,214
 374 471 374 471 368 467 c 0,215,216
 363 464 363 464 361 460 c 0,217,218
 354 451 354 451 353 443 c 0,219,220
 351 435 351 435 346 432 c 0,221,222
 345 431 345 431 345 431 c 2,223,224
 345 429 345 429 345 427 c 256,225,226
 345 425 345 425 344 424 c 2,227,-1
 344 422 l 1,228,229
 335 410 335 410 325 395 c 0,230,231
 315 379 315 379 306 366 c 0,232,233
 297 352 297 352 291 343 c 0,234,235
 286 335 286 335 286 335 c 2,236,237
 285 333 285 333 285 331 c 256,238,239
 285 329 285 329 285 328 c 0,240,241
 284 321 284 321 275 313 c 0,242,243
 267 305 267 305 265 299 c 0,244,245
 261 289 261 289 259 287 c 0,246,247
 256 285 256 285 253 280 c 0,248,249
 231 254 231 254 215 227 c 0,250,251
 200 200 200 200 183 176 c 0,252,253
 176 165 176 165 167 155 c 0,254,255
 158 144 158 144 151 133 c 0,256,257
 146 126 146 126 142 118 c 0,258,259
 137 110 137 110 133 102 c 0,260,261
 128 95 128 95 124 89 c 256,262,263
 120 83 120 83 117 80 c 2,264,265
 117 80 117 80 116 79 c 0,266,267
 116 78 116 78 116 76 c 256,268,269
 116 74 116 74 116 72 c 0,270,271
 116 71 116 71 111 67 c 256,272,273
 106 63 106 63 99 59 c 0,274,275
 93 55 93 55 88 51 c 256,276,277
 83 47 83 47 82 45 c 0,278,279
 82 43 82 43 82 41 c 256,280,281
 82 39 82 39 82 38 c 0,282,283
 81 36 81 36 78 33 c 0,284,285
 74 30 74 30 69 27 c 0,286,287
 65 24 65 24 60 22 c 0,288,289
 56 20 56 20 55 19 c 0,290,291
 50 17 50 17 38 17 c 0,292,293
 27 18 27 18 15 16 c 256,294,295
 3 14 3 14 -7 8 c 256,296,297
 -17 2 -17 2 -20 -13 c 0,298,299
 -20 -20 -20 -20 -15 -22 c 0,300,301
 -9 -25 -9 -25 3 -25 c 256,302,303
 15 -25 15 -25 30 -23 c 0,304,305
 45 -20 45 -20 59 -17 c 0,306,307
 74 -15 74 -15 84 -12 c 0,308,309
 95 -10 95 -10 97 -10 c 0,310,311
 109 -8 109 -8 127 -6 c 0,312,313
 144 -4 144 -4 162 -1 c 0,314,315
 179 2 179 2 192 8 c 0,316,317
 205 13 205 13 207 24 c 1,318,319
 202 29 202 29 191 31 c 0,320,321
 181 32 181 32 171 35 c 0,322,323
 161 37 161 37 154 41 c 0,324,325
 148 46 148 46 149 55 c 0,326,327
 151 64 151 64 157 71 c 0,328,329
 163 77 163 77 165 80 c 0,330,331
 185 118 185 118 198 138 c 0,332,333
 212 158 212 158 226 167 c 256,334,335
 240 176 240 176 259 178 c 0,336,337
 277 181 277 181 307 184 c 0,338,339
 343 189 343 189 376 190 c 256,340,341
 409 191 409 191 442 195 c 0,342,343
 453 196 453 196 461 197 c 256,344,345
 469 198 469 198 474 198 c 0,346,347
 483 198 483 198 485 191 c 0,348,349
 488 184 488 184 487 173 c 0,350,351
 487 163 487 163 485 152 c 256,352,353
 483 141 483 141 483 133 c 0,354,355
 483 126 483 126 485 117 c 256,356,357
 487 108 487 108 487 99 c 0,358,359
 487 89 487 89 485 78 c 0,360,361
 483 66 483 66 481 55 c 0,362,363
 479 41 479 41 477 35 c 0,364,365
 474 28 474 28 471 25 c 0,366,367
 467 23 467 23 462 23 c 0,368,369
 457 24 457 24 448 24 c 2,370,-1
 438 24 l 2,371,372
 424 24 424 24 412 22 c 256,373,374
 400 20 400 20 399 10 c 0,375,376
 398 3 398 3 406 -4 c 0,377,378
 415 -10 415 -10 429 -10 c 256,379,380
 443 -10 443 -10 457 -5 c 0,381,382
 471 -1 471 -1 481 -1 c 0,383,384
 494 -1 494 -1 503 -5 c 0,385,386
 512 -10 512 -10 518 -10 c 2,387,-1
 520 -10 l 2,388,389
 520 -9 520 -9 526 -6 c 256,390,391
 532 -3 532 -3 539 0 c 0,392,393
 547 3 547 3 553 6 c 0,394,395
 559 8 559 8 560 9 c 0,396,397
 570 13 570 13 585 13 c 0,398,399
 599 13 599 13 614 13 c 0,400,401
 628 13 628 13 640 16 c 0,402,403
 651 18 651 18 653 28 c 0,404,405
 653 32 653 32 651 38 c 1,406,-1
 651 38 l 1,65,66
EndSplineSet
EndChar

StartChar: B
Encoding: 66 66 37
Width: 572
VWidth: 1024
Flags: W
LayerCount: 2
Fore
SplineSet
577 510 m 1,0,1
 576 506 576 506 569 498 c 0,2,3
 562 489 562 489 552 479 c 0,4,5
 543 469 543 469 533 460 c 0,6,7
 523 452 523 452 519 448 c 0,8,9
 515 445 515 445 511 446 c 0,10,11
 508 446 508 446 504 443 c 0,12,13
 502 442 502 442 501 439 c 0,14,15
 499 435 499 435 497 434 c 0,16,17
 494 432 494 432 490 432 c 0,18,19
 486 431 486 431 482 429 c 0,20,21
 480 427 480 427 479 424 c 0,22,23
 478 420 478 420 476 419 c 0,24,25
 470 417 470 417 463 415 c 0,26,27
 455 413 455 413 450 410 c 0,28,29
 444 407 444 407 440 403 c 0,30,31
 435 399 435 399 429 396 c 0,32,33
 425 394 425 394 421 394 c 256,34,35
 417 394 417 394 413 391 c 0,36,37
 412 389 412 389 411 386 c 0,38,39
 409 383 409 383 408 382 c 0,40,41
 404 379 404 379 400 379 c 0,42,43
 396 380 396 380 392 377 c 0,44,45
 390 375 390 375 384 370 c 0,46,47
 378 364 378 364 371 360 c 0,48,49
 364 355 364 355 357 351 c 0,50,51
 349 347 349 347 342 347 c 0,52,53
 338 347 338 347 338 351 c 2,54,-1
 337 355 l 2,55,56
 337 354 337 354 338 357 c 0,57,58
 339 359 339 359 341 363 c 0,59,60
 342 366 342 366 344 369 c 256,61,62
 346 372 346 372 349 372 c 0,63,64
 350 379 350 379 349 385 c 0,65,66
 347 392 347 392 349 399 c 0,67,68
 350 413 350 413 358 427 c 0,69,70
 365 441 365 441 369 457 c 0,71,72
 370 460 370 460 370 464 c 0,73,74
 370 467 370 467 370 470 c 0,75,76
 371 478 371 478 375 483 c 0,77,78
 378 489 378 489 382 494 c 0,79,80
 385 499 385 499 389 504 c 0,81,82
 392 509 392 509 393 516 c 0,83,84
 394 522 394 522 395 527 c 256,85,86
 396 532 396 532 396 539 c 0,87,88
 399 552 399 552 405 568 c 0,89,90
 412 583 412 583 419 597 c 0,91,92
 426 610 426 610 432 619 c 256,93,94
 438 628 438 628 440 628 c 0,95,96
 443 628 443 628 452 627 c 0,97,98
 460 626 460 626 469 624 c 0,99,100
 471 623 471 623 474 619 c 0,101,102
 476 616 476 616 477 614 c 0,103,104
 483 611 483 611 489 609 c 0,105,106
 495 608 495 608 504 604 c 1,107,108
 504 605 504 605 508 602 c 0,109,110
 511 598 511 598 516 595 c 0,111,112
 522 591 522 591 529 586 c 0,113,114
 533 586 533 586 538 578 c 0,115,116
 544 571 544 571 549 562 c 0,117,118
 555 553 555 553 559 543 c 0,119,120
 564 534 564 534 567 529 c 0,121,122
 571 520 571 520 575 517 c 0,123,124
 578 515 578 515 577 510 c 1,125,-1
 577 510 l 1,0,1
506 158 m 1,126,127
 505 149 505 149 505 143 c 256,128,129
 505 137 505 137 504 133 c 0,130,131
 504 132 504 132 500 125 c 256,132,133
 496 118 496 118 491 110 c 0,134,135
 485 102 485 102 481 95 c 0,136,137
 476 88 476 88 474 87 c 0,138,139
 470 85 470 85 461 83 c 256,140,141
 452 81 452 81 440 79 c 0,142,143
 429 77 429 77 418 75 c 0,144,145
 406 74 406 74 400 72 c 0,146,147
 380 69 380 69 352 66 c 256,148,149
 324 63 324 63 295 63 c 0,150,151
 279 63 279 63 265 64 c 256,152,153
 251 65 251 65 239 68 c 1,154,155
 244 92 244 92 251 111 c 256,156,157
 258 130 258 130 265 148 c 0,158,159
 272 165 272 165 280 184 c 0,160,161
 287 202 287 202 294 225 c 0,162,163
 297 233 297 233 299 243 c 0,164,165
 301 252 301 252 304 262 c 256,166,167
 307 272 307 272 311 280 c 0,168,169
 315 287 315 287 321 291 c 0,170,171
 323 293 323 293 328 293 c 0,172,173
 332 293 332 293 335 296 c 0,174,175
 374 324 374 324 397 340 c 0,176,177
 419 356 419 356 430 356 c 0,178,179
 437 356 437 356 444 348 c 0,180,181
 445 347 445 347 446 343 c 0,182,183
 446 340 446 340 447 339 c 0,184,185
 450 336 450 336 456 335 c 0,186,187
 462 333 462 333 464 329 c 0,188,189
 467 326 467 326 471 321 c 0,190,191
 474 316 474 316 478 311 c 0,192,193
 481 307 481 307 484 302 c 0,194,195
 487 298 487 298 487 296 c 0,196,197
 489 291 489 291 489 285 c 0,198,199
 488 279 488 279 488 273 c 256,200,201
 488 267 488 267 488 261 c 0,202,203
 487 254 487 254 488 248 c 0,204,205
 489 244 489 244 491 241 c 0,206,207
 494 239 494 239 495 234 c 0,208,209
 496 231 496 231 496 227 c 0,210,211
 496 224 496 224 497 220 c 0,212,213
 499 217 499 217 501 214 c 0,214,215
 502 211 502 211 504 205 c 0,216,217
 505 199 505 199 506 188 c 0,218,219
 506 177 506 177 506 158 c 1,220,-1
 506 158 l 1,126,127
672 538 m 1,221,222
 673 540 673 540 666 546 c 0,223,224
 660 552 660 552 656 557 c 0,225,226
 651 566 651 566 650 575 c 256,227,228
 649 584 649 584 647 586 c 0,229,230
 645 589 645 589 638 591 c 0,231,232
 632 594 632 594 626 600 c 0,233,234
 625 602 625 602 624 605 c 0,235,236
 623 609 623 609 621 613 c 0,237,238
 620 618 620 618 619 621 c 0,239,240
 617 624 617 624 614 624 c 0,241,242
 613 624 613 624 612 624 c 0,243,244
 610 623 610 623 609 623 c 0,245,246
 605 623 605 623 605 627 c 0,247,248
 606 632 606 632 603 633 c 0,249,250
 600 636 600 636 594 635 c 0,251,252
 588 635 588 635 586 638 c 0,253,254
 583 640 583 640 584 645 c 0,255,256
 585 649 585 649 584 653 c 0,257,258
 581 659 581 659 567 665 c 0,259,260
 553 672 553 672 539 677 c 256,261,262
 525 682 525 682 514 687 c 0,263,264
 504 691 504 691 506 695 c 1,265,266
 500 698 500 698 493 699 c 256,267,268
 486 700 486 700 480 701 c 0,269,270
 473 702 473 702 469 704 c 256,271,272
 465 706 465 706 466 710 c 0,273,274
 466 712 466 712 468 716 c 0,275,276
 471 721 471 721 473 727 c 0,277,278
 476 733 476 733 478 739 c 0,279,280
 481 745 481 745 482 750 c 0,281,282
 483 757 483 757 484 762 c 0,283,284
 484 768 484 768 485 773 c 256,285,286
 486 778 486 778 487 780 c 0,287,288
 487 785 487 785 481 785 c 2,289,-1
 479 785 l 1,290,291
 474 775 474 775 467 768 c 0,292,293
 459 761 459 761 459 759 c 256,294,295
 459 757 459 757 459 756 c 0,296,297
 459 754 459 754 459 752 c 0,298,299
 459 751 459 751 452 747 c 0,300,301
 445 744 445 744 443 742 c 0,302,303
 431 735 431 735 424 730 c 256,304,305
 417 725 417 725 412 722 c 0,306,307
 406 719 406 719 402 717 c 0,308,309
 397 715 397 715 390 714 c 0,310,311
 375 714 375 714 359 719 c 256,312,313
 343 724 343 724 328 724 c 0,314,315
 321 724 321 724 310 717 c 0,316,317
 300 711 300 711 289 702 c 0,318,319
 279 693 279 693 269 684 c 0,320,321
 260 675 260 675 254 671 c 0,322,323
 248 666 248 666 239 660 c 256,324,325
 230 654 230 654 222 648 c 256,326,327
 214 642 214 642 208 634 c 0,328,329
 202 627 202 627 200 619 c 0,330,331
 200 616 200 616 200 612 c 256,332,333
 200 608 200 608 206 608 c 256,334,335
 212 608 212 608 218 614 c 0,336,337
 225 621 225 621 232 628 c 0,338,339
 240 636 240 636 250 642 c 0,340,341
 260 649 260 649 270 649 c 0,342,343
 272 649 272 649 273 648 c 0,344,345
 275 647 275 647 279 647 c 0,346,347
 289 647 289 647 303 650 c 0,348,349
 316 652 316 652 327 652 c 0,350,351
 335 652 335 652 341 650 c 256,352,353
 347 648 347 648 349 642 c 1,354,355
 349 643 349 643 347 638 c 0,356,357
 346 632 346 632 344 624 c 0,358,359
 343 616 343 616 340 606 c 0,360,361
 337 597 337 597 335 590 c 256,362,363
 333 583 333 583 328 577 c 0,364,365
 322 571 322 571 321 567 c 0,366,367
 319 558 319 558 314 544 c 0,368,369
 310 530 310 530 305 515 c 0,370,371
 300 499 300 499 294 482 c 0,372,373
 289 466 289 466 285 452 c 0,374,375
 280 438 280 438 276 429 c 0,376,377
 273 419 273 419 272 417 c 0,378,379
 270 412 270 412 272 407 c 0,380,381
 273 401 273 401 272 396 c 0,382,383
 270 387 270 387 264 376 c 0,384,385
 258 366 258 366 257 363 c 0,386,387
 254 357 254 357 253 352 c 0,388,389
 253 348 253 348 253 345 c 2,390,-1
 251 336 l 2,391,392
 250 333 250 333 248 332 c 0,393,394
 246 330 246 330 246 328 c 0,395,396
 245 326 245 326 245 324 c 256,397,398
 245 322 245 322 245 321 c 2,399,400
 245 321 245 321 239 318 c 256,401,402
 233 315 233 315 227 311 c 256,403,404
 221 307 221 307 215 301 c 0,405,406
 209 296 209 296 207 290 c 0,407,408
 207 286 207 286 209 282 c 0,409,410
 212 279 212 279 215 275 c 0,411,412
 219 271 219 271 221 266 c 0,413,414
 224 262 224 262 223 256 c 0,415,416
 222 251 222 251 220 247 c 0,417,418
 218 244 218 244 216 239 c 2,419,420
 216 239 216 239 212 235 c 0,421,422
 209 232 209 232 207 223 c 0,423,424
 206 216 206 216 205 210 c 0,425,426
 205 204 205 204 204 199 c 0,427,428
 204 194 204 194 200 187 c 0,429,430
 197 179 197 179 192 171 c 0,431,432
 187 162 187 162 182 153 c 0,433,434
 177 143 177 143 174 134 c 0,435,436
 172 128 172 128 168 117 c 0,437,438
 165 106 165 106 162 95 c 0,439,440
 158 84 158 84 156 75 c 0,441,442
 153 66 153 66 151 63 c 0,443,444
 148 58 148 58 142 55 c 0,445,446
 137 52 137 52 132 50 c 0,447,448
 126 48 126 48 120 45 c 0,449,450
 114 43 114 43 109 39 c 0,451,452
 101 34 101 34 97 26 c 0,453,454
 92 18 92 18 86 11 c 0,455,456
 79 4 79 4 70 0 c 0,457,458
 62 -4 62 -4 60 -11 c 0,459,460
 59 -17 59 -17 64 -17 c 0,461,462
 68 -18 68 -18 73 -18 c 0,463,464
 94 -18 94 -18 114 -16 c 0,465,466
 133 -13 133 -13 148 -13 c 0,467,468
 158 -13 158 -13 168 -15 c 0,469,470
 179 -17 179 -17 190 -17 c 0,471,472
 195 -18 195 -18 203 -16 c 256,473,474
 211 -14 211 -14 219 -13 c 0,475,476
 249 -10 249 -10 271 -8 c 0,477,478
 293 -5 293 -5 307 -3 c 0,479,480
 322 -1 322 -1 331 1 c 0,481,482
 340 2 340 2 343 2 c 0,483,484
 345 2 345 2 347 2 c 0,485,486
 348 1 348 1 349 1 c 0,487,488
 357 3 357 3 368 6 c 0,489,490
 378 8 378 8 388 11 c 256,491,492
 398 14 398 14 405 16 c 256,493,494
 412 18 412 18 415 20 c 0,495,496
 418 23 418 23 418 25 c 0,497,498
 419 28 419 28 421 30 c 0,499,500
 426 33 426 33 432 35 c 0,501,502
 438 36 438 36 442 39 c 0,503,504
 451 46 451 46 459 54 c 256,505,506
 467 62 467 62 476 68 c 0,507,508
 480 71 480 71 486 73 c 0,509,510
 492 74 492 74 497 78 c 0,511,512
 501 81 501 81 503 87 c 256,513,514
 505 93 505 93 509 97 c 0,515,516
 514 100 514 100 520 101 c 0,517,518
 526 103 526 103 530 106 c 0,519,520
 539 112 539 112 550 123 c 0,521,522
 560 135 560 135 571 146 c 0,523,524
 581 158 581 158 587 167 c 0,525,526
 594 177 594 177 595 179 c 0,527,528
 595 186 595 186 593 193 c 0,529,530
 591 201 591 201 591 211 c 0,531,532
 592 233 592 233 592 243 c 0,533,534
 592 252 592 252 592 256 c 0,535,536
 591 260 591 260 590 261 c 256,537,538
 589 262 589 262 587 268 c 0,539,540
 584 278 584 278 581 290 c 0,541,542
 579 302 579 302 575 310 c 256,543,544
 571 318 571 318 570 325 c 0,545,546
 569 331 569 331 567 338 c 256,547,548
 565 345 565 345 563 352 c 256,549,550
 561 359 561 359 557 368 c 0,551,552
 554 373 554 373 549 379 c 256,553,554
 544 385 544 385 540 391 c 0,555,556
 536 396 536 396 533 403 c 0,557,558
 530 409 530 409 531 415 c 0,559,560
 532 420 532 420 536 424 c 0,561,562
 541 427 541 427 546 431 c 0,563,564
 552 434 552 434 559 437 c 0,565,566
 565 440 565 440 570 443 c 0,567,568
 576 446 576 446 579 451 c 0,569,570
 583 455 583 455 587 457 c 0,571,572
 594 462 594 462 599 463 c 256,573,574
 604 464 604 464 607 467 c 0,575,576
 614 471 614 471 625 481 c 0,577,578
 635 490 635 490 645 501 c 0,579,580
 656 512 656 512 664 522 c 256,581,582
 672 532 672 532 672 538 c 1,583,-1
 672 538 l 1,221,222
EndSplineSet
EndChar

StartChar: C
Encoding: 67 67 38
Width: 596
VWidth: 1024
Flags: W
LayerCount: 2
Fore
SplineSet
767 686 m 1,0,1
 766 689 766 689 762 691 c 256,2,3
 758 693 758 693 751 695 c 0,4,5
 745 696 745 696 740 697 c 0,6,7
 734 698 734 698 731 700 c 0,8,9
 710 710 710 710 700 715 c 0,10,11
 689 719 689 719 685 720 c 0,12,13
 680 721 680 721 677 721 c 0,14,15
 675 721 675 721 670 724 c 0,16,17
 664 726 664 726 656 730 c 0,18,19
 647 733 647 733 638 737 c 0,20,21
 628 740 628 740 617 742 c 0,22,23
 607 745 607 745 598 745 c 0,24,25
 590 745 590 745 584 741 c 256,26,27
 578 737 578 737 574 737 c 0,28,29
 573 737 573 737 571 737 c 0,30,31
 570 738 570 738 569 738 c 0,32,33
 565 738 565 738 559 735 c 256,34,35
 553 732 553 732 548 728 c 0,36,37
 542 724 542 724 536 720 c 0,38,39
 529 716 529 716 525 714 c 0,40,41
 508 705 508 705 489 697 c 0,42,43
 469 689 469 689 457 681 c 0,44,45
 452 677 452 677 449 672 c 0,46,47
 446 666 446 666 440 661 c 0,48,49
 420 647 420 647 399 634 c 0,50,51
 379 621 379 621 359 604 c 0,52,53
 336 587 336 587 318 571 c 256,54,55
 300 555 300 555 280 538 c 0,56,57
 270 529 270 529 259 521 c 0,58,59
 247 512 247 512 241 505 c 0,60,61
 239 502 239 502 235 494 c 0,62,63
 232 487 232 487 227 481 c 0,64,65
 223 476 223 476 218 471 c 0,66,67
 212 466 212 466 210 462 c 0,68,69
 205 454 205 454 203 448 c 0,70,71
 202 442 202 442 197 439 c 0,72,73
 195 438 195 438 195 436 c 0,74,75
 195 435 195 435 195 433 c 256,76,77
 195 431 195 431 195 429 c 1,78,-1
 195 429 l 1,79,80
 186 413 186 413 179 396 c 0,81,82
 172 378 172 378 166 360 c 0,83,84
 160 341 160 341 155 322 c 256,85,86
 150 303 150 303 145 286 c 0,87,88
 143 279 143 279 140 272 c 0,89,90
 137 264 137 264 136 258 c 0,91,92
 135 251 135 251 135 242 c 0,93,94
 134 232 134 232 134 222 c 256,95,96
 134 212 134 212 134 204 c 256,97,98
 134 196 134 196 134 191 c 0,99,100
 133 188 133 188 135 186 c 0,101,102
 137 183 137 183 136 182 c 0,103,104
 136 151 136 151 136 124 c 0,105,106
 137 97 137 97 148 83 c 0,107,108
 153 74 153 74 157 62 c 256,109,110
 161 50 161 50 165 45 c 0,111,112
 169 39 169 39 173 38 c 256,113,114
 177 37 177 37 182 34 c 0,115,116
 183 34 183 34 183 31 c 0,117,118
 184 27 184 27 185 25 c 0,119,120
 200 13 200 13 221 4 c 0,121,122
 241 -4 241 -4 254 -13 c 0,123,124
 267 -20 267 -20 286 -23 c 256,125,126
 305 -26 305 -26 325 -26 c 0,127,128
 347 -26 347 -26 362 -22 c 0,129,130
 375 -18 375 -18 390 -17 c 0,131,132
 405 -17 405 -17 415 -13 c 0,133,134
 419 -11 419 -11 423 -7 c 0,135,136
 426 -3 426 -3 429 -3 c 0,137,138
 431 -3 431 -3 432 -3 c 0,139,140
 434 -3 434 -3 435 -3 c 0,141,142
 438 -3 438 -3 439 1 c 256,143,144
 440 5 440 5 443 6 c 0,145,146
 452 11 452 11 458 12 c 256,147,148
 464 13 464 13 468 16 c 0,149,150
 476 22 476 22 480 27 c 0,151,152
 483 32 483 32 492 39 c 0,153,154
 497 45 497 45 503 48 c 256,155,156
 509 51 509 51 513 54 c 0,157,158
 525 66 525 66 533 80 c 0,159,160
 541 93 541 93 550 101 c 2,161,-1
 601 149 l 2,162,163
 612 160 612 160 624 169 c 0,164,165
 635 179 635 179 642 191 c 1,166,-1
 637 191 l 2,167,168
 628 191 628 191 621 188 c 0,169,170
 614 184 614 184 609 179 c 0,171,172
 603 174 603 174 598 168 c 256,173,174
 593 162 593 162 588 158 c 0,175,176
 582 153 582 153 575 149 c 0,177,178
 567 146 567 146 562 139 c 0,179,180
 555 133 555 133 551 124 c 0,181,182
 548 116 548 116 542 111 c 0,183,184
 538 107 538 107 532 108 c 0,185,186
 526 108 526 108 522 106 c 0,187,188
 513 100 513 100 506 92 c 0,189,190
 500 83 500 83 494 78 c 0,191,192
 490 74 490 74 484 73 c 0,193,194
 478 71 478 71 473 68 c 0,195,196
 460 61 460 61 449 57 c 0,197,198
 439 52 439 52 428 50 c 0,199,200
 417 47 417 47 403 46 c 0,201,202
 390 45 390 45 371 45 c 0,203,204
 356 45 356 45 343 46 c 0,205,206
 329 47 329 47 322 49 c 0,207,208
 319 50 319 50 311 58 c 256,209,210
 303 66 303 66 293 72 c 0,211,212
 283 79 283 79 273 83 c 0,213,214
 263 86 263 86 258 92 c 0,215,216
 247 103 247 103 242 115 c 0,217,218
 238 127 238 127 237 137 c 0,219,220
 235 148 235 148 234 156 c 0,221,222
 233 163 233 163 230 168 c 0,223,224
 229 168 229 168 229 170 c 0,225,226
 229 171 229 171 230 173 c 0,227,228
 230 174 230 174 231 176 c 2,229,-1
 231 177 l 2,230,231
 228 189 228 189 228 204 c 0,232,233
 228 218 228 218 229 234 c 0,234,235
 231 249 231 249 233 265 c 0,236,237
 236 281 236 281 238 296 c 0,238,239
 239 305 239 305 239 315 c 0,240,241
 238 325 238 325 239 332 c 0,242,243
 241 341 241 341 247 349 c 0,244,245
 254 357 254 357 256 368 c 0,246,247
 257 374 257 374 257 380 c 0,248,249
 258 385 258 385 258 390 c 0,250,251
 260 400 260 400 268 407 c 0,252,253
 275 414 275 414 278 419 c 0,254,255
 284 430 284 430 288 442 c 0,256,257
 293 455 293 455 294 457 c 0,258,259
 303 476 303 476 309 486 c 0,260,261
 314 496 314 496 317 501 c 256,262,263
 320 506 320 506 322 509 c 0,264,265
 325 511 325 511 328 515 c 0,266,267
 331 518 331 518 332 522 c 256,268,269
 333 526 333 526 336 529 c 0,270,271
 338 532 338 532 341 533 c 0,272,273
 344 535 344 535 347 538 c 0,274,275
 356 550 356 550 361 556 c 0,276,277
 367 562 367 562 376 571 c 0,278,279
 381 576 381 576 386 584 c 0,280,281
 391 591 391 591 395 595 c 0,282,283
 399 598 399 598 406 601 c 256,284,285
 413 604 413 604 421 609 c 0,286,287
 434 619 434 619 445 630 c 0,288,289
 455 640 455 640 466 647 c 0,290,291
 478 655 478 655 491 658 c 256,292,293
 504 661 504 661 516 661 c 0,294,295
 555 661 555 661 578 654 c 0,296,297
 601 646 601 646 617 638 c 0,298,299
 633 629 633 629 647 622 c 0,300,301
 660 614 660 614 676 614 c 0,302,303
 681 614 681 614 686 618 c 0,304,305
 691 621 691 621 697 626 c 0,306,307
 703 632 703 632 710 637 c 0,308,309
 716 643 716 643 723 647 c 0,310,311
 725 649 725 649 730 650 c 0,312,313
 734 651 734 651 737 653 c 0,314,315
 741 655 741 655 746 660 c 0,316,317
 751 664 751 664 755 669 c 0,318,319
 760 674 760 674 763 678 c 0,320,321
 766 683 766 683 767 686 c 1,322,-1
 767 686 l 1,0,1
EndSplineSet
EndChar

